<svg width="40" height="41" viewBox="0 0 40 41" fill="currentColor" xmlns="http://www.w3.org/2000/svg">
<path d="M11.5348 26.3475H18.5533V21.2642H11.5348V26.3475ZM11.5348 19.7081H18.5533V10.579H11.5348V19.7081ZM20.0902 26.3475H27.1086V17.2184H20.0902V26.3475ZM20.0902 15.6623H27.1086V10.579H20.0902V15.6623ZM10.4078 29.9265C9.73498 29.9265 9.16548 29.6905 8.69929 29.2185C8.2331 28.7465 8 28.1698 8 27.4886V9.43791C8 8.75667 8.2331 8.18004 8.69929 7.70803C9.16548 7.23601 9.73498 7 10.4078 7H28.2357C28.9085 7 29.478 7.23601 29.9442 7.70803C30.4104 8.18004 30.6435 8.75667 30.6435 9.43791V12.2389H33V14.2618H30.6435V17.4518H33V19.4747H30.6435V22.6648H33V24.6876H30.6435V27.4886C30.6435 28.1698 30.4104 28.7465 29.9442 29.2185C29.478 29.6905 28.9085 29.9265 28.2357 29.9265H10.4078ZM10.4078 27.9036H28.2357C28.3381 27.9036 28.4321 27.8604 28.5175 27.7739C28.6029 27.6875 28.6455 27.5924 28.6455 27.4886V9.43791C28.6455 9.33415 28.6029 9.23904 28.5175 9.15257C28.4321 9.06612 28.3381 9.0229 28.2357 9.0229H10.4078C10.3053 9.0229 10.2114 9.06612 10.126 9.15257C10.0406 9.23904 9.99793 9.33415 9.99793 9.43791V27.4886C9.99793 27.5924 10.0406 27.6875 10.126 27.7739C10.2114 27.8604 10.3053 27.9036 10.4078 27.9036Z" fill="currentColor"/>
</svg>
