<svg width="40" height="40" viewBox="0 0 40 40" fill="currentColor" xmlns="http://www.w3.org/2000/svg">
<path fill-rule="evenodd" clip-rule="evenodd" d="M27.3272 8.16587C30.1787 7.37378 33 9.51823 33 12.4777V23.6387C33 26.5982 30.1787 28.7426 27.3272 27.9505L15.7692 24.74V27.1954C15.7692 29.088 14.2349 30.6223 12.3423 30.6223C10.6884 30.6223 9.27053 29.4411 8.97175 27.8145L8.00425 22.5469C6.20413 21.8057 5 20.0428 5 18.0582C5 15.8772 6.4543 13.9639 8.55572 13.3802L27.3272 8.16587ZM7.15385 18.0582C7.15385 19.2717 7.96299 20.3362 9.13218 20.661L26.5385 25.4961V10.6203L9.13218 15.4554C7.96299 15.7802 7.15385 16.8447 7.15385 18.0582ZM28.6923 10.1609V25.9555C29.8621 25.872 30.8462 24.8975 30.8462 23.6387V12.4777C30.8462 11.2189 29.8621 10.2444 28.6923 10.1609ZM10.3189 23.226L11.0902 27.4254C11.2012 28.0297 11.7279 28.4685 12.3423 28.4685C13.0454 28.4685 13.6154 27.8985 13.6154 27.1954V24.1417L10.3189 23.226Z" fill="currentColor"/>
</svg>
