<svg width="40" height="41" viewBox="0 0 40 41" fill="currentColor" xmlns="http://www.w3.org/2000/svg" >

<path d="M27.4584 32C27.1193 31.9991 26.7837 31.9309 26.4711 31.7996C26.1584 31.6682 25.8749 31.4762 25.637 31.2346L19.9995 25.6301L14.362 31.2383C13.9999 31.6056 13.5356 31.8553 13.0295 31.9549C12.5234 32.0545 11.9991 31.9993 11.5249 31.7965C11.0459 31.6039 10.6362 31.2713 10.3492 30.8422C10.0622 30.4131 9.91129 29.9074 9.91613 29.3912V14.5833C9.91613 13.3678 10.399 12.202 11.2586 11.3424C12.1181 10.4829 13.2839 10 14.4995 10H25.4995C26.1014 10 26.6974 10.1186 27.2534 10.3489C27.8095 10.5792 28.3148 10.9168 28.7404 11.3424C29.166 11.768 29.5036 12.2733 29.7339 12.8294C29.9642 13.3854 30.0828 13.9814 30.0828 14.5833V29.3912C30.0879 29.907 29.9375 30.4123 29.6512 30.8414C29.3649 31.2704 28.956 31.6033 28.4777 31.7965C28.1549 31.9315 27.8083 32.0007 27.4584 32ZM14.4995 11.8333C13.7701 11.8333 13.0706 12.1231 12.5549 12.6388C12.0392 13.1545 11.7495 13.854 11.7495 14.5833V29.3912C11.7491 29.5439 11.7941 29.6933 11.8786 29.8206C11.9632 29.9478 12.0835 30.0471 12.2245 30.1059C12.3654 30.1648 12.5207 30.1805 12.6706 30.1512C12.8205 30.1219 12.9583 30.0488 13.0667 29.9412L19.3578 23.6886C19.5295 23.5179 19.7619 23.422 20.004 23.422C20.2462 23.422 20.4785 23.5179 20.6503 23.6886L26.934 29.9393C27.0424 30.047 27.1803 30.1201 27.3302 30.1494C27.4801 30.1787 27.6353 30.163 27.7763 30.1041C27.9172 30.0452 28.0376 29.9459 28.1221 29.8187C28.2067 29.6915 28.2516 29.5421 28.2513 29.3893V14.5833C28.2513 13.854 27.9616 13.1545 27.4458 12.6388C26.9301 12.1231 26.2306 11.8333 25.5013 11.8333H14.4995Z" fill="currentColor"/>

<defs>
<clipPath id="clip0_27_2433">
<rect width="22" height="22" fill="white" transform="translate(9 10)"/>
</clipPath>
</defs>
</svg>
