<svg width="16" height="26" viewBox="0 0 16 26" fill="none" xmlns="http://www.w3.org/2000/svg">
<g id="Group">
<path id="Vector" fill-rule="evenodd" clip-rule="evenodd" d="M14.9411 11.1989C15.4287 11.6871 15.7025 12.3488 15.7025 13.0387C15.7025 13.7287 15.4287 14.3904 14.9411 14.8786L5.12412 24.699C4.6357 25.1872 3.97337 25.4614 3.28281 25.4612C2.59226 25.461 1.93005 25.1866 1.44187 24.6982C0.953691 24.2097 0.679525 23.5474 0.679688 22.8569C0.67985 22.1663 0.954328 21.5041 1.44274 21.0159L9.41992 13.0387L1.44274 5.06155C0.968251 4.57074 0.705517 3.91321 0.711125 3.23057C0.716732 2.54793 0.990233 1.8948 1.47272 1.41186C1.95521 0.928915 2.60808 0.654798 3.29071 0.648547C3.97335 0.642295 4.63113 0.90441 5.12238 1.37844L14.9429 11.1972L14.9411 11.1989Z" fill="#D9D9D9"/>
</g>
</svg>
