<svg width="16" height="25" viewBox="0 0 16 25" fill="none" xmlns="http://www.w3.org/2000/svg">
<path fill-rule="evenodd" clip-rule="evenodd" d="M0.762008 14.262C0.274453 13.7739 0.000598822 13.1121 0.000598822 12.4222C0.000598822 11.7323 0.274453 11.0705 0.762008 10.5824L10.579 0.761909C11.0674 0.273728 11.7298 -0.000436415 12.4203 -0.000273978C13.1109 -0.000111541 13.7731 0.274365 14.2613 0.762776C14.7494 1.25119 15.0236 1.91352 15.0234 2.60408C15.0233 3.29463 14.7488 3.95684 14.2604 4.44502L6.2832 12.4222L14.2604 20.3994C14.7349 20.8902 14.9976 21.5477 14.992 22.2304C14.9864 22.913 14.7129 23.5661 14.2304 24.0491C13.7479 24.532 13.095 24.8061 12.4124 24.8124C11.7298 24.8186 11.072 24.5565 10.5807 24.0825L0.760269 14.2638L0.762008 14.262Z" fill="#D9D9D9"/>
</svg>
