<svg width="15" height="15" viewBox="0 0 15 15" fill="none" xmlns="http://www.w3.org/2000/svg">
<path d="M7.59219 12.4271H12.9637M2.2207 12.4271H3.22013C3.51209 12.4271 3.65807 12.4271 3.79544 12.3941C3.91724 12.3649 4.03368 12.3166 4.14048 12.2512C4.26094 12.1774 4.36416 12.0741 4.57061 11.8677L12.0685 4.36982C12.5629 3.87539 12.5629 3.07375 12.0685 2.57932C11.574 2.08489 10.7724 2.08489 10.278 2.57932L2.78009 10.0772C2.57364 10.2836 2.47042 10.3869 2.3966 10.5073C2.33115 10.6141 2.28293 10.7306 2.25368 10.8524C2.2207 10.9897 2.2207 11.1357 2.2207 11.4277V12.4271Z" stroke="#4B5563" stroke-width="1.34288" stroke-linecap="round" stroke-linejoin="round"/>
</svg>
