<svg width="17" height="15" viewBox="0 0 17 15" fill="none" xmlns="http://www.w3.org/2000/svg">
<g id="fi-rr-upload" clip-path="url(#clip0_48_2860)">
<path id="Vector" d="M7.95198 2.31665L7.94737 11.2088C7.94737 11.3615 8.01673 11.508 8.14018 11.616C8.26363 11.7241 8.43106 11.7847 8.60564 11.7847C8.78023 11.7847 8.94766 11.7241 9.07111 11.616C9.19456 11.508 9.26392 11.3615 9.26392 11.2088L9.26852 2.32644L11.1854 4.00429C11.3089 4.11228 11.4763 4.17294 11.6508 4.17294C11.8254 4.17294 11.9928 4.11228 12.1162 4.00429C12.2396 3.89628 12.3089 3.7498 12.3089 3.59707C12.3089 3.44434 12.2396 3.29786 12.1162 3.18985L10.0025 1.33804C9.8191 1.17747 9.60134 1.05009 9.36167 0.963182C9.12199 0.876275 8.86509 0.831543 8.60564 0.831543C8.3462 0.831543 8.0893 0.876275 7.84962 0.963182C7.60994 1.05009 7.39219 1.17747 7.20879 1.33804L5.09508 3.18812C4.97167 3.29613 4.90234 3.44261 4.90234 3.59534C4.90234 3.74807 4.97167 3.89455 5.09508 4.00257C5.21852 4.11055 5.38593 4.17121 5.56048 4.17121C5.73503 4.17121 5.90243 4.11055 6.02587 4.00257L7.95198 2.31665Z" fill="#6D6D6D"/>
<path id="Vector_2" d="M15.1871 10.6229V12.9268C15.1871 13.0796 15.1177 13.2261 14.9943 13.3341C14.8708 13.4421 14.7034 13.5028 14.5288 13.5028H2.6799C2.50531 13.5028 2.33788 13.4421 2.21443 13.3341C2.09098 13.2261 2.02162 13.0796 2.02162 12.9268V10.6229C2.02162 10.4701 1.95227 10.3236 1.82882 10.2156C1.70537 10.1076 1.53794 10.0469 1.36335 10.0469C1.18877 10.0469 1.02133 10.1076 0.897882 10.2156C0.774432 10.3236 0.705078 10.4701 0.705078 10.6229L0.705078 12.9268C0.705078 13.3851 0.913139 13.8246 1.28349 14.1487C1.65384 14.4727 2.15614 14.6548 2.6799 14.6548H14.5288C15.0526 14.6548 15.5549 14.4727 15.9252 14.1487C16.2956 13.8246 16.5036 13.3851 16.5036 12.9268V10.6229C16.5036 10.4701 16.4343 10.3236 16.3108 10.2156C16.1874 10.1076 16.0199 10.0469 15.8453 10.0469C15.6708 10.0469 15.5033 10.1076 15.3799 10.2156C15.2564 10.3236 15.1871 10.4701 15.1871 10.6229Z" fill="#6D6D6D"/>
</g>
<defs>
<clipPath id="clip0_48_2860">
<rect width="15.7985" height="13.8237" fill="white" transform="translate(0.705078 0.831543)"/>
</clipPath>
</defs>
</svg>
