<svg width="363" height="167" viewBox="0 0 363 167" fill="none" xmlns="http://www.w3.org/2000/svg">
<path d="M116.22 135.659H99.7137V164.614H59.6936V135.659H0.0527344V105.926L62.3408 14.8594H99.7137V105.459H116.22V135.659ZM59.8493 105.459V88.0241C59.8493 84.7551 60.005 80.3963 60.1608 74.7922C60.4722 69.1881 60.6279 66.386 60.7836 66.0747H59.6936C57.3578 71.3675 54.7105 76.1932 51.7518 80.8633L35.0898 105.459H59.8493Z" fill="#F4DFFB"/>
<path d="M235.037 90.0481C235.037 116.512 230.521 135.971 221.8 148.269C212.924 160.566 199.377 166.793 181.002 166.793C163.094 166.793 149.702 160.411 140.514 147.49C131.483 134.57 126.967 115.422 126.967 90.0481C126.967 63.4286 131.327 43.9699 140.359 31.5163C149.235 19.0627 162.782 12.8359 181.157 12.8359C198.91 12.8359 212.457 19.3741 221.489 32.2947C230.365 45.2152 235.037 64.3626 235.037 90.0481ZM167.143 90.0481C167.143 107.016 168.233 118.691 170.257 124.918C172.437 131.301 175.863 134.414 180.846 134.414C185.829 134.414 189.411 131.145 191.591 124.607C193.615 118.069 194.705 106.549 194.705 90.0481C194.705 73.3915 193.615 61.8719 191.591 55.1781C189.411 48.4843 185.985 45.2152 181.002 45.2152C176.019 45.2152 172.437 48.4843 170.413 54.8668C168.077 61.2492 167.143 72.9245 167.143 90.0481Z" fill="#F4DFFB"/>
<path d="M362.105 135.659H345.598V164.614H305.578V135.659H245.938V105.926L308.226 14.8594H345.598V105.459H362.105V135.659ZM305.734 105.459V88.0241C305.734 84.7551 305.89 80.3963 306.045 74.7922C306.357 69.1881 306.513 66.386 306.668 66.0747H305.578C303.243 71.3675 300.595 76.1932 297.637 80.8633L280.975 105.459H305.734Z" fill="#F4DFFB"/>
<path d="M224.929 25.1344C224.91 25.4222 224.744 25.6813 224.44 25.9403C224.323 26.0363 224.196 26.1322 224.078 26.2186C223.971 26.305 223.873 26.3913 223.765 26.4681C223.354 26.7847 222.924 26.9862 222.473 27.063C220.741 27.3604 219.626 27.3988 219.186 27.1781C218.677 26.9286 218.54 25.9787 218.481 25.6237V25.5086C218.413 25.2111 218.236 24.5875 218.227 24.5779C218.227 24.5587 218.217 24.5491 218.217 24.5395C218.236 24.4819 218.354 24.4052 218.413 24.3572L218.481 24.29C218.99 23.8391 219.616 23.3689 220.458 23.2538C220.751 23.2154 221.025 23.1098 221.289 23.0139C221.417 22.9563 221.544 22.9179 221.681 22.8796C221.896 22.8028 222.082 22.8028 222.229 22.8604C223.031 23.1578 223.922 23.5608 224.607 24.3092C224.851 24.5875 224.969 24.8657 224.949 25.144L224.929 25.1344Z" fill="#FFE888"/>
<path d="M222.002 30.1232C221.709 30.3535 221.386 30.6509 221.112 31.0251C220.896 31.3226 220.574 31.4281 220.251 31.5049C220.231 31.5049 220.221 31.5145 220.211 31.5145L219.174 31.8119C219.106 31.8407 218.998 31.8695 218.851 31.9079H218.812C217.941 32.1478 217.217 32.0518 216.513 31.6104C215.71 31.1115 215.446 30.3727 215.71 29.4708C216.004 28.5593 216.552 28.0027 217.393 27.7821C217.491 27.7533 217.579 27.6957 217.638 27.6573C217.667 27.6285 217.736 27.5806 217.755 27.5806C217.834 27.6189 217.892 27.7149 217.961 27.8012C218 27.8588 218.039 27.8972 218.069 27.9356C218.489 28.4441 219.037 28.6936 219.693 28.6936H219.722C220.319 28.6936 220.896 28.6552 221.337 28.6072C221.865 28.5784 222.12 28.7128 222.306 29.1445C222.443 29.4804 222.335 29.8258 221.992 30.1136L222.002 30.1232Z" fill="#F4D13D"/>
<path d="M214.644 31.8694C214.644 31.8694 214.624 31.8886 214.615 31.8982C214.37 32.2436 213.587 32.5218 213.01 32.6466C213 32.6466 212.981 32.6562 212.951 32.6562C212.746 32.7425 212.501 32.7809 212.139 32.7809C210.984 32.9536 210.701 32.8001 210.691 32.8001C210.671 32.7713 210.632 32.7425 210.593 32.7329C210.534 32.7233 210.456 32.6945 210.309 32.637C209.673 32.3683 209.047 32.0997 208.421 31.831C208.147 31.7255 208.078 31.6103 208.078 31.5815C208.137 30.6412 209.086 29.4323 210.074 29.4131L210.73 29.3939C211.131 29.3747 211.513 29.3651 211.904 29.3555C212.139 29.3459 212.403 29.3651 212.618 29.4706C212.785 29.5474 212.922 29.5666 213.049 29.509C213.196 29.4515 213.303 29.3363 213.392 29.1348L213.421 29.0485C213.45 28.9621 213.489 28.8662 213.529 28.7798C213.538 28.751 213.548 28.751 213.558 28.7606C213.548 28.9813 213.597 29.154 213.724 29.2692C213.832 29.3939 214.008 29.4515 214.233 29.4419C214.067 30.1327 214.302 30.7564 214.507 31.3129C214.546 31.428 214.585 31.5623 214.605 31.6967L214.624 31.8118L214.634 31.8502L214.644 31.8694Z" fill="#FFE888"/>
<path d="M215.113 26.3716C214.359 27.1776 213.469 27.7053 212.481 27.9452C212.295 28.0027 212.099 28.0027 211.884 28.0123C211.786 28.0123 211.678 28.0123 211.59 28.0219C211.13 28.0219 210.514 27.9835 209.936 27.6669C208.958 27.1104 208.772 25.6328 209.281 24.7405C209.555 24.2511 209.897 23.9345 210.347 23.7714C210.846 23.5891 211.385 23.4739 211.952 23.4355H212.04C212.383 23.4355 212.676 23.5795 212.852 23.8673C213.205 24.4526 213.723 24.7692 214.477 24.8652C214.888 24.9036 215.201 25.1339 215.328 25.4601C215.445 25.7767 215.357 26.1125 215.103 26.3908L215.113 26.3716Z" fill="#F4D13D"/>
<path d="M219.48 22.0445C218.922 22.7065 218.188 23.1191 217.405 23.5605L217.337 23.5988C216.691 23.7428 216.172 23.7044 216.153 23.7044C215.439 23.7236 214.871 23.5892 214.362 23.3014C213.932 23.0711 213.599 22.4666 213.54 21.8334C213.511 21.488 213.55 20.8259 214.147 20.3558C214.45 20.1063 214.734 19.9432 215.008 19.828L215.194 19.7417C215.194 19.7417 215.595 19.521 216.251 19.521C216.29 19.521 216.339 19.5306 216.378 19.5306C216.681 19.569 216.985 19.5882 217.268 19.5978C217.493 19.6074 217.728 19.6074 217.963 19.6265C218.1 19.6457 218.208 19.6553 218.266 19.6649C218.276 19.6745 218.296 19.6841 218.325 19.6841C218.413 19.7033 218.707 19.7992 219.059 20.1159C219.47 20.4901 219.519 20.6244 219.578 20.7683C219.578 20.7875 219.587 20.8067 219.597 20.8259C219.91 21.2097 219.881 21.5551 219.48 22.0445Z" fill="#F4D13D"/>
<path d="M245.494 25.4689C245.386 25.0947 245.161 24.8548 244.799 24.7301C244.457 24.615 244.124 24.5094 243.801 24.3559C242.666 23.8282 241.423 23.3101 240.093 23.0702C239.212 22.9071 238.302 22.7631 237.431 22.6288C236.58 22.4945 235.689 22.3602 234.828 22.2066C233.507 21.9668 232.098 21.8708 230.66 21.9188C231.442 21.4198 231.922 20.681 232.284 20.0286C232.401 19.8271 232.509 19.616 232.617 19.4145C232.734 19.1938 232.851 18.9731 232.979 18.7621C233.497 17.8505 233.429 17.0542 232.744 16.277C232.47 15.9603 232.147 15.8548 231.746 15.9411C230.797 16.133 229.838 16.4401 228.614 16.9102C228.223 17.0637 227.822 17.1981 227.43 17.3132C226.667 17.5627 225.875 17.8122 225.141 18.2727C225.15 18.2535 225.15 18.2343 225.16 18.2247L225.19 18.1576C225.405 17.6011 225.62 17.0542 225.835 16.4976C226.256 15.4422 226.687 14.3484 227.078 13.2546C227.381 12.4102 227.665 11.5467 227.939 10.7119C228.282 9.68525 228.624 8.62021 229.006 7.59355C229.456 6.38459 229.348 5.29077 228.683 4.26411C228.517 4.01464 228.272 3.63084 227.783 3.58287C226.745 3.49652 225.923 3.80355 225.366 4.51358L225.209 4.70548C224.661 5.39631 224.094 6.10634 223.487 6.76839C222.88 7.43044 222.215 8.0733 221.579 8.69697C220.953 9.29185 220.316 9.91552 219.72 10.5584C219.7 10.5776 219.68 10.5968 219.661 10.616C219.651 10.616 219.651 10.6255 219.641 10.6255C219.504 10.2034 219.358 9.79079 219.211 9.37821C219.084 9.0232 218.956 8.66818 218.839 8.31317C218.594 7.61274 218.222 6.96988 217.733 6.41337C217.146 5.75132 216.471 5.65538 215.717 6.11593C214.612 6.79717 213.799 7.84302 213.242 9.32064C212.713 10.7023 212.713 12.1415 212.743 13.504C212.752 13.6863 212.752 13.859 212.752 14.0413C212.704 13.9358 212.664 13.8303 212.615 13.7247C212.361 13.1106 212.087 12.4678 211.666 11.9113C211.402 11.5754 211.138 11.2492 210.864 10.9134C210.492 10.4528 210.11 9.98269 209.748 9.50294C208.643 7.97735 207.312 6.50932 205.443 4.73426C204.543 3.88991 203.564 3.02636 202.263 1.93254C202.116 1.8174 201.979 1.69267 201.842 1.57753C201.441 1.23211 201.03 0.877099 200.589 0.570061C200.423 0.464517 199.944 0.138289 199.493 0.483707C198.818 1.01143 198.476 1.59672 198.437 2.26836C198.398 2.96879 198.486 3.67882 198.574 4.2833C198.701 5.11806 198.926 5.91444 199.219 6.86434C199.464 7.65112 199.738 8.48588 200.149 9.27266C200.482 9.87714 200.834 10.5392 201.069 11.2492C201.294 11.9401 201.617 12.6597 202.077 13.5232C202.635 14.5691 203.28 15.5765 203.907 16.5552C204.181 16.987 204.455 17.4092 204.729 17.8505C204.934 18.1672 205.14 18.5222 205.335 18.9156C205.267 18.8772 205.198 18.8388 205.12 18.81C203.408 18.052 201.822 17.5723 200.276 17.342C200.178 17.3228 200.071 17.3132 199.963 17.3036L199.758 17.2748C198.114 17.0254 196.617 17.0829 195.178 17.4284C194.943 17.4859 194.738 17.6011 194.552 17.7642C194.033 18.2247 193.945 19.2802 194.376 19.971C194.836 20.7194 195.511 21.2759 196.157 21.8036L196.264 21.89C196.382 21.9955 196.509 22.1011 196.626 22.2066C197.076 22.5904 197.546 22.9742 198.055 23.3196C197.654 23.2429 197.262 23.2045 196.861 23.2045C195.374 23.2045 194.151 23.8666 193.221 25.1811C192.976 25.5265 192.879 25.9007 192.947 26.2461C193.016 26.6107 193.26 26.9369 193.652 27.196C193.867 27.3399 194.112 27.4551 194.356 27.5702C194.934 27.8389 195.521 28.0883 196.088 28.2898C196.636 28.4913 197.106 28.8175 197.595 29.163C197.742 29.2685 197.898 29.374 198.045 29.47C198.681 29.8922 199.337 30.1225 200.041 30.1704C200.139 30.1704 200.237 30.18 200.335 30.1896C200.511 30.1992 200.687 30.2184 200.854 30.2184C200.814 30.2472 200.785 30.276 200.746 30.3048C200.609 30.3911 200.472 30.4871 200.345 30.583C199.21 31.4561 198.104 32.502 196.763 33.9892C195.53 35.3613 194.591 36.8869 193.984 38.518C193.309 40.3411 193.192 41.9818 193.632 43.517C193.984 44.7451 194.229 45.34 196 45.4456C197.047 45.5031 197.683 45.1577 198.075 44.3229C198.3 43.8336 198.671 43.4018 199.2 42.9989C199.719 42.6151 200.208 42.1257 200.658 41.55C201.587 40.3411 202.86 38.7867 204.396 37.4722C204.464 37.4146 204.543 37.357 204.621 37.3091C204.65 37.2899 204.689 37.2611 204.719 37.2419L204.66 37.453C204.552 37.808 204.445 38.1726 204.357 38.5372C203.995 40.0052 203.76 41.5596 203.672 43.1716C203.564 45.1289 203.593 46.7505 203.76 48.2857C203.838 48.9477 204.004 49.8017 204.582 50.5309L204.621 50.5788C204.758 50.7516 204.934 50.9626 205.228 50.9626H205.267C205.854 50.9147 206.607 50.7899 207.175 50.1663C207.322 50.0031 207.468 49.84 207.605 49.6769C207.752 49.5138 207.889 49.3507 208.036 49.1972L208.349 48.8518C209.024 48.1034 209.719 47.3262 210.267 46.453C210.296 46.405 210.316 46.3859 210.316 46.3763C210.326 46.3859 210.345 46.4051 210.365 46.4434C210.433 46.5586 210.521 46.6545 210.61 46.7505L210.658 46.808C210.795 46.952 210.923 47.0191 211.069 47.0287C211.197 47.0383 211.334 46.9712 211.461 46.856C211.608 46.7217 211.754 46.597 211.901 46.4722C212.478 45.9637 213.075 45.4456 213.447 44.7067C213.506 44.6012 213.584 44.4957 213.692 44.3901C213.721 44.3517 214.367 43.4978 214.621 43.018L214.641 42.9893C214.641 42.9893 214.661 42.9413 214.67 42.9317C215.042 42.1353 215.258 41.4061 215.336 40.7153C215.346 40.6193 215.375 40.5425 215.453 40.4466C215.522 40.3698 215.62 40.2547 215.698 40.2355C215.815 40.485 216.627 42.1353 217.156 42.7878C217.185 42.8261 217.215 42.8645 217.244 42.9029L217.312 42.9797C217.655 43.421 218.007 43.872 218.389 44.2942C219.504 45.5127 220.718 46.7984 222.176 47.8443C223.458 48.7654 224.73 49.3507 226.06 49.6194C226.912 49.8017 227.695 49.1588 227.861 48.4776C227.988 47.9402 227.89 47.4413 227.763 46.9328C227.646 46.4722 227.538 46.0117 227.43 45.5415C227.254 44.8123 227.078 44.0543 226.882 43.3155C226.471 41.7995 225.933 40.0436 224.964 38.4221L225.053 38.4509C225.19 38.5084 225.327 38.5564 225.473 38.614L225.816 38.7387C226.52 39.0074 227.244 39.276 227.988 39.4679C229.378 39.8133 230.748 39.7845 232.274 39.7078C233.204 39.6694 234.016 39.3432 234.691 38.7387C234.926 38.5372 234.985 38.3069 234.867 38.0191C234.779 37.7984 234.632 37.6353 234.476 37.4818L234.397 37.3858C234.153 37.1268 233.918 36.8677 233.673 36.6086C233.184 36.0905 232.675 35.5628 232.235 34.9967C232.108 34.824 231.971 34.6609 231.844 34.4881C231.305 33.7877 230.748 33.0681 230.102 32.4252C229.926 32.2525 229.779 32.051 229.622 31.8399L229.505 31.6864C229.505 31.6864 229.495 31.6672 229.485 31.6672H229.505C230.415 31.7632 231.325 31.7248 232.274 31.5425C233.742 31.2738 235.2 31.0532 236.619 30.8517C236.981 30.7941 237.333 30.7461 237.695 30.6981C238.449 30.5926 239.231 30.4871 239.995 30.3335C240.347 30.2664 240.67 30.132 240.993 29.9881C241.639 29.6907 242.187 29.47 242.735 29.3069C243.38 29.0958 244.202 28.7696 244.789 28.0595C245.504 27.2056 245.739 26.3612 245.494 25.4689ZM227.655 18.4166L227.861 18.3495C228.203 18.2247 228.536 18.1096 228.869 17.9945C229.691 17.7162 230.552 17.4188 231.374 17.0733C231.54 16.9966 231.697 16.9966 231.814 17.0733C231.961 17.1693 232.049 17.39 232.049 17.6586C232.049 17.8889 231.873 18.1768 231.755 18.3687C231.227 19.261 230.601 20.2972 229.886 21.2471C229.564 21.6981 229.113 21.9955 228.546 22.1395C228.35 22.197 228.154 22.245 227.959 22.293C227.352 22.4369 226.736 22.5808 226.158 22.8687C225.199 23.358 224.505 23.857 223.966 24.4518L223.917 24.5094L223.829 24.5958C223.565 24.8644 223.565 24.874 223.301 24.6437C222.577 24.0489 221.951 23.7034 221.295 23.5211C221.305 23.5115 221.315 23.5115 221.324 23.5019C221.53 23.3484 221.726 23.1949 221.931 23.0414L222.322 22.7535C222.685 22.4753 222.998 22.1395 223.291 21.8132C223.477 21.6117 223.673 21.4103 223.869 21.2184C223.986 21.1128 224.113 21.0169 224.24 20.9209C224.505 20.7194 224.769 20.5179 224.935 20.2301C225.532 19.165 226.569 18.8004 227.655 18.4166ZM213.682 26.1022C214.054 26.1406 214.338 26.342 214.455 26.6395C214.563 26.9273 214.484 27.2344 214.25 27.4838C213.565 28.2131 212.762 28.6928 211.862 28.9135C211.696 28.9615 211.52 28.9615 211.324 28.9711C211.236 28.9711 211.138 28.9711 211.06 28.9807C210.639 28.9807 210.081 28.9423 209.562 28.6544C208.672 28.1459 208.506 26.8122 208.966 25.9966C209.21 25.5553 209.523 25.2674 209.934 25.1139C210.384 24.9508 210.874 24.8452 211.392 24.8069H211.471C211.784 24.8069 212.048 24.9412 212.205 25.2003C212.527 25.728 212.997 26.0158 213.682 26.1022ZM213.379 22.0243C213.653 21.7941 213.907 21.6501 214.162 21.5446L214.328 21.4678C214.328 21.4678 214.69 21.2663 215.287 21.2663C215.326 21.2663 215.365 21.2759 215.404 21.2759C215.678 21.3143 215.952 21.3239 216.216 21.3335C216.422 21.3335 216.637 21.3335 216.843 21.3623C216.97 21.3815 217.068 21.3911 217.117 21.4007C217.117 21.4007 217.146 21.4198 217.166 21.4198C217.244 21.439 217.508 21.5254 217.831 21.8132C218.203 22.1491 218.252 22.2738 218.301 22.4081C218.301 22.4273 218.311 22.4465 218.32 22.4561C218.604 22.8015 218.575 23.1182 218.213 23.5595C217.704 24.164 217.038 24.5382 216.334 24.9316L216.275 24.97C215.688 25.1043 215.218 25.0659 215.199 25.0659C214.553 25.0851 214.034 24.9604 213.574 24.7013C213.183 24.4902 212.88 23.9433 212.831 23.3676C212.801 23.051 212.841 22.4561 213.379 22.0243ZM215.081 27.7717C215.336 27.2632 215.414 26.8122 215.336 26.3516C215.326 26.3037 215.326 26.2845 215.316 26.2749H215.404C215.463 26.2749 215.531 26.2845 215.59 26.2653C215.972 26.2653 216.031 26.3037 216.138 26.6299C216.216 26.8506 216.275 27.0809 216.324 27.3111L216.373 27.5222C216.393 27.5798 216.383 27.6278 216.295 27.6661L216.207 27.7045C216.05 27.7813 215.894 27.858 215.737 27.8964C215.238 28.0212 214.817 28.2802 214.436 28.6736L214.387 28.7216C214.269 28.8463 214.162 28.9615 214.015 29.019C214.494 28.6736 214.856 28.2514 215.081 27.7717ZM214.788 30.2952C215.052 29.47 215.551 28.9615 216.314 28.76C216.402 28.7312 216.481 28.6832 216.539 28.6448C216.569 28.616 216.627 28.5777 216.647 28.5777C216.716 28.616 216.774 28.7024 216.833 28.7792C216.872 28.8271 216.901 28.8655 216.931 28.9039C217.312 29.3645 217.811 29.5947 218.408 29.5947H218.438C218.976 29.5947 219.504 29.5564 219.906 29.518C220.385 29.4892 220.62 29.6139 220.786 30.0073C220.913 30.3144 220.816 30.6214 220.502 30.89C220.238 31.1011 219.945 31.3698 219.69 31.7056C219.495 31.9743 219.201 32.0702 218.907 32.1374C218.888 32.1374 218.878 32.147 218.868 32.147L217.929 32.4156C217.87 32.4444 217.772 32.4636 217.635 32.502H217.596C216.804 32.7227 216.148 32.6363 215.512 32.2333C214.788 31.7824 214.543 31.1107 214.788 30.2952ZM217.939 28.2131C217.479 27.9828 217.352 27.1288 217.303 26.8026V26.6971C217.244 26.4284 217.078 25.8623 217.068 25.8527C217.068 25.8335 217.068 25.8239 217.068 25.8143C217.087 25.7664 217.195 25.6896 217.244 25.6512L217.303 25.5936C217.763 25.1811 218.33 24.7589 219.093 24.6533C219.358 24.615 219.612 24.519 219.847 24.4327C219.964 24.3847 220.082 24.3463 220.199 24.3079C220.395 24.2408 220.561 24.2408 220.698 24.2887C221.422 24.5574 222.234 24.922 222.851 25.6032C223.076 25.8527 223.184 26.1118 223.164 26.3612C223.144 26.6203 222.998 26.8602 222.724 27.0905C222.616 27.1768 222.499 27.2632 222.391 27.3399C222.293 27.4167 222.205 27.4934 222.107 27.5702C221.735 27.858 221.344 28.0404 220.933 28.1075C219.358 28.3762 218.35 28.4146 217.948 28.2131H217.939ZM221.373 30.7941C221.403 30.6694 221.452 30.535 221.52 30.4103C221.638 30.2088 221.765 29.9497 221.765 29.6331C221.765 29.4796 221.735 29.3165 221.657 29.1438C221.921 28.9519 222.176 28.7696 222.43 28.5681C222.538 28.4913 222.655 28.4625 222.773 28.5009C222.949 28.5393 223.076 28.6544 223.135 28.8367C223.135 28.8367 223.232 29.019 223.242 29.3453C223.242 29.6715 223.154 29.921 222.978 30.0745C222.959 30.0841 222.949 30.0937 222.929 30.1033C222.929 30.1033 222.9 30.132 222.88 30.1416C222.773 30.2184 222.665 30.3048 222.557 30.3815C222.283 30.6022 222.009 30.8037 221.677 30.8709L221.471 30.8996C221.393 30.9188 221.373 30.89 221.373 30.89C221.373 30.89 221.354 30.8709 221.373 30.7941ZM219.074 12.9475C219.074 12.9475 219.123 12.9091 219.132 12.89L220.14 11.6618L220.316 11.4891L221.647 10.2322C221.921 9.93471 222.215 9.65646 222.508 9.3878C222.831 9.09995 223.154 8.79292 223.448 8.46669C223.82 8.05411 224.201 7.65112 224.583 7.25773C224.739 7.09461 224.896 6.92191 225.053 6.75879C225.424 6.3654 225.718 5.94322 225.943 5.51145C226.178 5.05089 226.931 4.61912 227.47 4.64791C227.548 4.6575 227.597 4.68629 227.655 4.78224C227.978 5.27158 228.135 5.74173 228.135 6.23107C228.135 6.56689 228.066 6.88353 227.929 7.18097C227.333 8.55304 226.892 10.0019 226.471 11.4027C226.383 11.681 226.295 11.9592 226.217 12.2375C225.561 14.358 224.739 16.8527 223.643 19.2034C223.213 20.1437 222.792 20.9785 222.088 21.6501C221.833 21.8996 221.54 22.1778 221.207 22.3793C220.747 22.648 220.287 22.9742 219.847 23.358C219.632 23.5403 219.377 23.5787 219.093 23.6171C219.123 23.5115 219.162 23.4156 219.211 23.3196C219.573 22.4561 219.416 21.8612 218.673 21.2759C218.203 20.9113 217.694 20.5371 217.019 20.4604C216.823 20.4316 216.676 20.2876 216.549 19.9902C216.236 19.2706 216.158 18.5318 216.314 17.8122C216.647 16.3057 217.361 14.9337 218.418 13.7343C218.575 13.5712 218.712 13.3889 218.819 13.2066C218.888 13.0914 218.976 12.9955 219.074 12.9475ZM213.574 13.3409C213.574 13.1106 213.594 12.8804 213.594 12.6501C213.614 12.5253 213.702 11.9209 213.8 11.374L213.848 11.0765C214.034 10.069 214.22 9.11915 214.876 8.32277C215.287 7.82383 215.786 7.43044 216.363 7.16178C216.549 7.06583 216.843 6.99867 217.195 7.40165C217.44 7.6895 217.645 8.02532 217.792 8.41872C218.046 9.09036 218.291 9.76201 218.536 10.4432L218.741 11.0285C218.868 11.3548 218.819 11.585 218.594 11.8249C217.919 12.5637 217.078 13.4848 216.461 14.5115C215.668 15.8452 215.228 17.0062 215.081 18.1576C214.974 18.9827 215.091 19.7503 215.443 20.4124C215.453 20.4412 215.473 20.4699 215.473 20.4891H215.414C215.277 20.4795 215.15 20.4987 215.003 20.5083C214.944 20.5179 214.886 20.5179 214.788 20.5371C214.719 20.5467 214.7 20.5467 214.7 20.5467C214.7 20.5467 214.68 20.5083 214.68 20.4028C214.68 19.616 214.543 18.8484 214.259 18.052C213.848 16.9102 213.692 15.7013 213.584 14.665C213.545 14.2332 213.565 13.7727 213.584 13.3409H213.574ZM196.264 20.2301C195.961 19.971 195.677 19.664 195.433 19.3186C195.296 19.1459 195.247 19.0019 195.286 18.8868C195.315 18.7716 195.442 18.6661 195.658 18.5702C196.548 18.2151 197.507 18.0136 198.525 17.9945C198.593 17.9945 198.652 17.9849 198.711 17.9849C199.777 17.9849 200.903 18.2151 202.204 18.6757C202.419 18.7525 202.625 18.8292 202.83 18.8964C203.388 19.0883 203.965 19.2802 204.504 19.5584C205.228 19.9134 205.883 20.4028 206.509 20.8729C206.646 20.9785 206.774 21.0744 206.911 21.1704C207.038 21.2663 207.175 21.3719 207.302 21.4678C207.576 21.6789 207.86 21.89 208.153 22.0819C208.721 22.4657 209.328 22.6672 209.973 22.6864H210.345C210.619 22.7056 210.903 22.7056 211.187 22.7056C211.353 22.7056 211.5 22.6288 211.568 22.5041C211.637 22.3889 211.627 22.2258 211.529 22.0723C211.383 21.8324 211.157 21.6885 210.893 21.6789C209.386 21.5926 208.388 20.6906 207.527 19.7311C206.891 19.0307 206.421 18.2055 205.962 17.3996L205.883 17.2652C205.296 16.2386 204.631 15.2215 203.995 14.2428C203.799 13.9454 203.603 13.648 203.408 13.3409C203.143 12.9283 202.938 12.5158 202.801 12.1128C202.507 11.2108 202.106 10.3377 201.715 9.50294C201.568 9.1959 201.421 8.87927 201.284 8.57223C201.04 8.02532 200.834 7.45922 200.638 6.90272L200.462 6.38459C200.247 5.7993 200.11 5.21401 199.963 4.55196C199.797 3.83234 199.728 3.06474 199.748 2.2012C199.748 2.02849 199.777 1.88457 199.836 1.75024C199.895 1.60631 199.944 1.57753 199.973 1.56793C199.992 1.56793 200.041 1.56793 200.169 1.64469C200.521 1.86538 200.863 2.14363 201.186 2.40269C201.304 2.49864 201.421 2.59459 201.529 2.69054C203.603 4.35046 205.12 5.70335 206.431 7.10421C207.547 8.27479 208.652 9.5893 209.944 11.23C211.363 13.0531 212.165 15.1064 212.772 16.8814C212.85 17.1117 212.929 17.342 213.017 17.5627C213.232 18.1384 213.457 18.7333 213.545 19.3473C213.584 19.6544 213.623 19.9806 213.604 20.3164C213.574 20.8442 213.33 21.2279 212.889 21.4486C211.882 21.9668 211.823 22.8783 211.872 23.5115V23.5691C211.882 23.6651 211.891 23.761 211.882 23.7802C211.862 23.7994 211.735 23.8282 211.637 23.8378C210.541 24.0297 209.68 24.3271 208.936 24.7877C208.76 24.8836 208.643 24.9988 208.545 25.1331C208.339 25.4401 208.026 25.6032 207.596 25.6224C206.803 25.6608 206.089 25.5936 205.423 25.4017C205.14 25.3154 204.866 25.2386 204.582 25.1619C203.995 24.9988 203.388 24.826 202.801 24.6341C201.783 24.2887 200.775 23.7226 199.699 22.9071L199.092 22.4561C198.153 21.7461 197.174 21.0073 196.264 20.2301ZM200.129 29.0286C199.278 29.0094 198.642 28.5105 198.114 28.0499C198.114 28.0499 198.094 28.0308 198.084 28.0308C197.801 27.7429 197.018 27.4071 196.392 27.1576C196.382 27.1576 196.362 27.148 196.352 27.148C196.098 27.0905 195.853 27.0137 195.609 26.8986C195.256 26.7258 194.865 26.5627 194.415 26.3996C194.278 26.3516 194.19 26.2941 194.17 26.2365C194.141 26.1789 194.17 26.0734 194.239 25.9391C194.503 25.4209 194.943 25.0179 195.667 24.6341C196.098 24.4135 196.587 24.2887 197.018 24.2887H197.135C197.644 24.2887 197.987 24.3559 198.28 24.5286C198.857 24.8548 199.493 24.9892 200.11 25.1043L200.296 25.1427C200.756 25.2386 201.196 25.4305 201.617 25.6128C201.744 25.6704 201.881 25.728 202.008 25.7759C203.603 26.4476 205.325 26.8218 207.126 26.8986H207.214C207.214 26.8986 207.283 26.8986 207.302 26.9081C207.38 26.9273 207.459 26.9177 207.537 26.9081C207.674 26.8986 207.684 26.9081 207.703 26.9657C207.801 27.2152 207.703 27.551 207.527 27.6949C207.331 27.8485 207.087 27.8772 206.823 27.906H206.744C206.206 27.9828 205.756 28.0979 205.355 28.2514C204.807 28.4721 204.259 28.6832 203.711 28.8943C203.28 29.0574 202.86 29.2301 202.429 29.3932C202.331 29.4316 202.282 29.4412 202.233 29.422C201.548 29.115 200.814 29.0478 200.129 29.0286ZM203.936 36.2152C202.458 37.4338 201.206 38.873 200.169 40.1108C199.513 40.9167 198.779 41.6556 198.084 42.3272C197.546 42.8453 197.125 43.3635 196.812 43.9008C196.626 44.2078 196.392 44.3421 196.059 44.3038C195.149 44.2174 194.943 44.1215 194.748 43.2771C194.63 42.7398 194.601 42.1929 194.591 41.5404C194.552 40.6769 194.865 39.7174 195.149 38.9786C195.892 36.9828 197.194 35.1406 199.102 33.3272C200.707 31.8112 202.312 30.7173 204.014 29.9593C205.149 29.4604 206.128 29.2013 207.087 29.1438C207.185 29.1438 207.302 29.1438 207.41 29.0862C207.508 29.0382 207.596 29.019 207.693 29.019C207.879 29.019 208.065 29.115 208.31 29.3357C208.437 29.4508 208.584 29.5755 208.584 29.6235C208.584 29.6715 208.427 29.825 208.31 29.9306C207.879 30.3431 207.517 30.8037 207.243 31.293C206.676 32.3101 206.774 33.0585 207.576 33.8741C207.625 33.922 207.635 33.9412 207.645 33.9508C207.635 33.9508 207.625 33.97 207.576 34.0084C207.449 34.0948 207.302 34.1715 207.116 34.2387C205.864 34.6896 204.817 35.4956 203.936 36.2152ZM209.171 46.0308C209.015 46.2132 208.868 46.4146 208.731 46.6065C208.662 46.7025 208.594 46.7984 208.515 46.8944C207.821 47.8059 207.097 48.6311 206.353 49.3699C206.255 49.4658 206.138 49.5618 205.991 49.6673C205.717 49.8496 205.629 49.84 205.433 49.581C205.179 49.2547 205.022 48.8614 204.954 48.3816C204.866 47.8251 204.846 47.2494 204.817 46.6929C204.797 46.2899 204.777 45.8869 204.738 45.4839C204.67 44.534 204.699 43.5554 204.826 42.5671C204.866 42.2313 204.905 41.8954 204.944 41.55C205.051 40.5234 205.169 39.4583 205.462 38.4413C205.756 37.4434 206.118 36.695 206.627 36.0905C206.862 35.7931 207.116 35.6108 207.41 35.5148C207.967 35.3421 208.388 34.9967 208.78 34.6609C208.946 34.5073 209.093 34.4402 209.249 34.4402C209.298 34.4402 209.347 34.4498 209.406 34.469C209.562 34.5073 209.582 34.5745 209.562 34.68C209.553 34.7376 209.543 34.7952 209.533 34.8528C209.523 34.9487 209.504 35.0447 209.474 35.1406C209.24 35.9466 209.152 36.7621 209.093 37.7408C209.034 38.8155 209.005 39.6982 209.005 40.5234C209.015 41.7899 209.191 42.9893 209.523 44.0927C209.768 44.8795 209.66 45.4743 209.171 46.0308ZM209.895 33.1832C209.318 32.9434 208.75 32.6939 208.183 32.454C207.938 32.3581 207.87 32.2525 207.87 32.2237C207.919 31.3698 208.78 30.276 209.68 30.2568L210.277 30.2376C210.639 30.2184 210.991 30.2088 211.343 30.1992C211.559 30.1896 211.794 30.2088 211.989 30.3048C212.136 30.3719 212.263 30.3911 212.381 30.3431C212.518 30.2952 212.615 30.1896 212.694 30.0073L212.723 29.9306C212.752 29.8538 212.782 29.7674 212.821 29.6907C212.831 29.6619 212.841 29.6619 212.85 29.6715C212.85 29.873 212.889 30.0265 212.997 30.132C213.095 30.2472 213.252 30.2952 213.457 30.2856C213.31 30.9092 213.516 31.4753 213.702 31.9839C213.741 32.0894 213.77 32.2141 213.79 32.3293L213.809 32.4348L213.819 32.4732C213.809 32.4828 213.8 32.4924 213.79 32.502C213.565 32.8186 212.86 33.0681 212.332 33.1832C212.322 33.1832 212.302 33.1928 212.283 33.1928C212.097 33.2696 211.872 33.308 211.549 33.308C210.502 33.4615 210.247 33.3272 210.238 33.3272C210.218 33.2984 210.189 33.2792 210.15 33.2696C210.101 33.26 210.022 33.2312 209.895 33.1832ZM214.142 41.2046C213.526 42.7494 212.645 44.1215 211.51 45.2824C211.5 45.2824 211.48 45.3112 211.48 45.3112C211.441 45.34 211.412 45.3784 211.373 45.4072C211.334 45.4552 211.246 45.5319 211.226 45.5415C211.177 45.5127 211.148 45.4743 211.128 45.4264C211.128 45.3976 211.128 45.4072 211.109 45.388C210.923 45.0042 210.688 44.0063 210.61 43.6993C210.296 42.4136 210.15 41.1086 210.189 39.8229C210.199 39.5063 210.199 39.1897 210.199 38.873C210.199 38.3549 210.199 37.8272 210.238 37.3091C210.306 36.4359 210.541 35.582 210.747 34.9391C210.844 34.6417 210.962 34.5745 211.392 34.5745H211.529C211.735 34.5937 211.96 34.6033 211.989 34.6321C212.009 34.6609 211.999 34.8048 211.999 34.9295C211.989 34.9967 211.989 35.0734 211.989 35.1502C211.95 36.5415 212.488 37.76 213.056 38.9018C213.066 38.9306 213.085 38.969 213.105 38.9978C213.154 39.0649 213.193 39.1321 213.212 39.2089C213.31 39.5351 213.545 39.7366 213.731 39.8709C214.25 40.2451 214.367 40.6289 214.142 41.2046ZM215.776 37.5681L215.688 37.76C215.483 38.2206 215.267 38.6907 214.944 39.0937C214.856 39.2089 214.749 39.2664 214.651 39.2664H214.631C214.533 39.2568 214.445 39.1897 214.387 39.0745C213.848 38.0287 213.291 36.9444 213.056 35.7451C212.889 34.8528 213.075 34.2387 213.672 33.7685C213.78 33.6822 213.878 33.5958 213.976 33.5095C214.064 33.4231 214.142 33.3464 214.24 33.2696C214.318 33.212 214.387 33.1832 214.465 33.1832C214.533 33.1832 214.612 33.212 214.68 33.2792C214.944 33.5191 215.238 33.663 215.62 33.7301C215.991 33.7973 216.207 34.0468 216.265 34.4785C216.285 34.6513 216.305 34.8432 216.314 35.0255C216.324 35.1214 216.334 35.227 216.334 35.3133C216.373 36.1577 216.079 36.9253 215.776 37.5681ZM226.501 46.2899L226.54 46.4626C226.667 46.9999 226.785 47.4989 226.843 47.9882C226.843 48.2185 226.775 48.3912 226.648 48.4871C226.53 48.5639 226.374 48.5735 226.188 48.5159C225.63 48.3336 225.043 48.1321 224.319 47.8731C223.966 47.7483 223.643 47.5468 223.252 47.2206C222.9 46.9136 222.528 46.6257 222.166 46.3379C221.442 45.7718 220.698 45.1769 220.072 44.4765C218.927 43.1716 217.919 41.9722 217.136 40.5713C216.941 40.2067 216.823 39.8133 216.696 39.4008C216.627 39.1417 216.549 38.873 216.442 38.6236C216.412 38.518 216.471 38.3933 216.51 38.3357C217.185 37.2419 217.44 35.985 217.332 34.2771C217.303 33.8165 217.361 33.7397 217.841 33.6342C218.017 33.5862 218.203 33.5574 218.389 33.5191C218.526 33.4999 218.673 33.4711 218.81 33.4423C219.142 33.3751 219.426 33.212 219.71 33.0489L219.827 32.9913C219.827 32.9913 219.866 32.9626 219.876 32.9626C219.876 32.9626 219.876 32.9689 219.876 32.9817C220.091 33.8645 220.62 34.5745 221.138 35.2557L221.217 35.3709C221.501 35.7355 221.765 36.0809 221.98 36.4647C222.058 36.599 222.146 36.7334 222.293 36.8197C223.144 37.3186 223.555 38.1342 223.986 38.9882C224.994 40.9935 225.767 43.2483 226.491 46.2899H226.501ZM229.661 33.4423C229.661 33.4423 229.661 33.4519 229.681 33.4615C230.19 34.0372 230.66 34.6609 231.1 35.2749L231.384 35.6491C232.069 36.5894 232.685 37.3186 233.302 37.9423C233.429 38.0671 233.468 38.1246 233.468 38.1246C233.448 38.163 233.272 38.2398 233.213 38.2686C232.636 38.5564 232 38.6236 231.237 38.6332H231.178C228.781 38.6332 226.696 38.1342 224.798 37.1268C224.084 36.743 223.272 36.3112 222.616 35.6875C222.391 35.4668 222.244 35.1982 222.078 34.9199C221.98 34.7664 221.892 34.6033 221.774 34.4498C221.589 34.1907 221.422 33.922 221.246 33.6534C221.148 33.4999 221.05 33.3559 220.953 33.2024C220.825 33.0201 220.737 32.7994 220.688 32.55C220.63 32.2141 220.737 32.0318 221.05 31.9263C221.217 31.8687 221.383 31.8399 221.53 31.8399C222.107 31.8112 222.655 31.6097 223.242 31.2163C223.272 31.1971 223.301 31.1779 223.321 31.1587L223.428 31.0532C223.477 31.0148 223.663 30.9188 224.27 30.9188C224.436 30.9188 224.642 30.9284 224.886 30.9476H224.925C225.972 30.9572 226.833 31.0532 227.636 31.4561C227.851 31.5617 228.047 31.7056 228.243 31.8495C228.34 31.9263 228.448 32.0031 228.565 32.0894L228.614 32.147C229.221 32.8954 229.573 33.3368 229.661 33.4423ZM244.193 26.9177C243.86 27.4263 243.4 27.8197 242.823 28.0787C240.963 28.8943 239.3 29.4508 237.724 29.777C236.932 29.9401 236.11 30.0361 235.288 30.0553C234.172 30.0937 233.106 30.3335 232.118 30.5926C231.256 30.8133 230.395 30.7269 229.661 30.6214C228.849 30.5158 228.047 30.3048 227.264 30.1129C226.814 29.9977 226.374 29.8826 225.923 29.7866C225.738 29.7482 225.542 29.7099 225.356 29.6715C225.141 29.6235 224.916 29.5755 224.7 29.5276C224.417 29.4604 224.28 29.3069 224.27 29.0478C224.26 28.6065 224.182 27.9828 223.575 27.551C223.565 27.5414 223.536 27.5222 223.536 27.503C223.526 27.4838 223.546 27.4455 223.575 27.4167C223.947 26.9849 224.015 26.4476 224.035 25.987C224.035 25.68 224.162 25.4689 224.426 25.2866C224.612 25.1619 224.788 25.0275 224.974 24.8932C225.229 24.6917 225.493 24.4902 225.757 24.3271C226.824 23.6843 228.027 23.3868 229.074 23.1757C229.671 23.051 230.268 22.9934 230.855 22.9838C231.472 23.051 232.098 23.0798 232.705 23.099C233.879 23.1469 235.092 23.1949 236.237 23.5595C236.844 23.7418 237.46 23.7802 238.057 23.809C238.331 23.8282 238.615 23.8378 238.889 23.8666C239.466 23.9337 240.053 24.0585 240.611 24.1736C240.836 24.2216 241.061 24.2695 241.277 24.3079C241.355 24.3271 241.433 24.3559 241.492 24.4039C242.167 24.8836 242.901 25.1331 243.674 25.3826C244.056 25.5073 244.31 25.6992 244.408 25.9583C244.506 26.2269 244.427 26.5531 244.193 26.9177Z" fill="#282828"/>
<path d="M232.004 17.6302C231.994 17.8604 231.838 18.1483 231.72 18.3402C231.182 19.2325 230.556 20.2688 229.841 21.2187C229.519 21.6696 229.068 21.9671 228.501 22.111C228.305 22.1686 228.109 22.2165 227.914 22.2645C227.317 22.4084 226.691 22.5524 226.113 22.8402C225.164 23.3296 224.46 23.8285 223.921 24.4234L223.872 24.4809C223.872 24.4809 223.824 24.5385 223.784 24.5673C223.52 24.836 223.52 24.8456 223.256 24.6153C222.532 24.0204 221.906 23.675 221.25 23.4927C221.25 23.4831 221.27 23.4831 221.279 23.4735C221.485 23.32 221.69 23.1664 221.886 23.0129L222.277 22.7251C222.649 22.4468 222.953 22.111 223.256 21.7848C223.432 21.5833 223.628 21.3818 223.824 21.1899C223.941 21.0843 224.068 20.9884 224.195 20.8924C224.46 20.6909 224.734 20.4895 224.89 20.2016C225.487 19.1366 226.524 18.772 227.62 18.3882L227.826 18.321C228.158 18.1963 228.491 18.0811 228.824 17.966C229.656 17.6877 230.507 17.3903 231.329 17.0449C231.495 16.9681 231.652 16.9681 231.769 17.0449C231.916 17.1408 232.004 17.3615 232.004 17.6302Z" fill="#EFEDE4"/>
<path d="M244.159 26.889C243.816 27.3975 243.356 27.7909 242.779 28.05C240.93 28.8656 239.256 29.4221 237.681 29.7483C236.888 29.9114 236.066 30.0074 235.244 30.0265C234.129 30.0649 233.062 30.3048 232.074 30.5639C231.213 30.7845 230.352 30.6982 229.618 30.5926C228.806 30.4871 228.003 30.276 227.22 30.0841C226.77 29.969 226.33 29.8538 225.88 29.7579C225.694 29.7195 225.508 29.6811 225.312 29.6427C225.097 29.5948 224.872 29.5468 224.657 29.4988C224.373 29.4317 224.236 29.2781 224.226 29.0191C224.216 28.5777 224.138 27.954 223.531 27.5223C223.531 27.5127 223.492 27.4935 223.492 27.4743C223.492 27.4551 223.502 27.4167 223.531 27.3879C223.913 26.9562 223.972 26.4188 223.991 25.9583C224.001 25.6513 224.128 25.4402 224.383 25.2579C224.569 25.1331 224.754 24.9988 224.931 24.8645C225.185 24.663 225.449 24.4615 225.723 24.2984C226.78 23.6555 227.993 23.3581 229.031 23.147C229.628 23.0222 230.234 22.9647 230.812 22.9551C231.428 23.0222 232.054 23.051 232.661 23.0702C233.835 23.1182 235.049 23.1662 236.193 23.5308C236.81 23.7131 237.417 23.7515 238.014 23.7802C238.288 23.7994 238.571 23.809 238.845 23.8378C239.423 23.905 240.01 24.0297 240.567 24.1448C240.793 24.1928 241.018 24.2408 241.233 24.2792C241.311 24.2984 241.389 24.3272 241.448 24.3751C242.123 24.8549 242.867 25.1043 243.63 25.3538C244.012 25.4785 244.266 25.6704 244.364 25.9295C244.462 26.1982 244.394 26.5244 244.159 26.889Z" fill="white"/>
<path d="M233.436 38.0954C233.436 38.0954 233.23 38.2106 233.171 38.2394C232.594 38.5272 231.958 38.5944 231.195 38.604H231.136C228.739 38.604 226.654 38.105 224.756 37.0976C224.042 36.7138 223.23 36.282 222.574 35.6583C222.349 35.4376 222.202 35.169 222.036 34.8907C221.948 34.7372 221.85 34.5741 221.742 34.4206C221.556 34.1615 221.38 33.8929 221.204 33.6242C221.106 33.4707 221.008 33.3268 220.91 33.1732C220.783 32.9909 220.695 32.7703 220.656 32.5208C220.597 32.185 220.705 32.0027 221.008 31.8971C221.175 31.8395 221.341 31.8108 221.488 31.8108C222.065 31.782 222.613 31.5805 223.2 31.1871C223.239 31.1679 223.259 31.1487 223.278 31.1295L223.308 31.1007L223.386 31.024C223.386 31.024 223.621 30.8896 224.228 30.8896C224.394 30.8896 224.599 30.8992 224.844 30.9184H224.883C225.93 30.928 226.791 31.024 227.604 31.427C227.819 31.5325 228.005 31.6764 228.2 31.8204C228.308 31.8971 228.406 31.9739 228.523 32.0602L228.572 32.1178C229.179 32.8662 229.531 33.3076 229.619 33.4131C229.629 33.4131 229.629 33.4227 229.639 33.4323C230.148 34.008 230.617 34.6317 231.058 35.2457L231.342 35.6199C232.026 36.5603 232.643 37.2895 233.259 37.9131C233.387 38.0379 233.426 38.0954 233.436 38.0954Z" fill="#F4F4F4"/>
<path d="M226.797 47.9588C226.797 48.189 226.729 48.3618 226.602 48.4577C226.484 48.5345 226.328 48.5441 226.142 48.4865C225.584 48.3042 224.997 48.1027 224.273 47.8436C223.921 47.7189 223.598 47.5174 223.206 47.1912C222.854 46.8841 222.482 46.5963 222.13 46.3084C221.396 45.7423 220.652 45.1475 220.026 44.447C218.881 43.1421 217.873 41.9427 217.09 40.5419C216.895 40.1773 216.777 39.7839 216.66 39.3713C216.582 39.1122 216.503 38.8436 216.405 38.5941C216.366 38.4886 216.425 38.3638 216.464 38.3063C217.149 37.2124 217.404 35.9555 217.286 34.2476C217.257 33.7871 217.316 33.7103 217.795 33.6048C217.971 33.5568 218.157 33.528 218.343 33.4896C218.48 33.4704 218.627 33.4416 218.764 33.4129C219.096 33.3457 219.39 33.1826 219.664 33.0195L219.781 32.9619C219.781 32.9619 219.821 32.9331 219.83 32.9331C219.83 32.9427 219.84 32.9427 219.84 32.9523C220.055 33.835 220.584 34.5451 221.102 35.2263L221.181 35.3414C221.464 35.706 221.729 36.0515 221.944 36.4353C222.022 36.5696 222.11 36.7039 222.257 36.7903C223.108 37.2892 223.519 38.1048 223.95 38.9587C224.968 40.9641 225.731 43.2189 226.455 46.2605L226.494 46.4332C226.621 46.9705 226.739 47.4694 226.797 47.9588Z" fill="#F4F4F4"/>
<path d="M216.299 35.2844C216.328 36.1287 216.034 36.8963 215.731 37.5392L215.643 37.7311C215.438 38.1916 215.222 38.6618 214.899 39.0648C214.821 39.1799 214.713 39.2375 214.606 39.2375H214.586C214.488 39.2279 214.4 39.1607 214.342 39.0456C213.803 37.9997 213.246 36.9155 213.021 35.7161C212.844 34.8238 213.03 34.2097 213.627 33.7396C213.735 33.6532 213.833 33.5669 213.931 33.4805C214.019 33.3942 214.107 33.3174 214.195 33.2407C214.273 33.1831 214.351 33.1543 214.42 33.1543C214.498 33.1543 214.567 33.1831 214.635 33.2502C214.899 33.4901 215.203 33.634 215.575 33.7012C215.956 33.7684 216.162 34.0178 216.22 34.4496C216.25 34.6223 216.26 34.8142 216.269 34.9965C216.279 35.0925 216.289 35.198 216.299 35.2844Z" fill="#EFEDE4"/>
<path d="M214.098 41.1755C213.491 42.7203 212.601 44.0924 211.466 45.2534C211.456 45.2534 211.437 45.2821 211.437 45.2821C211.397 45.3109 211.368 45.3493 211.339 45.3781C211.29 45.4261 211.211 45.5028 211.192 45.5124C211.133 45.4836 211.104 45.4453 211.094 45.3973C211.084 45.3685 211.094 45.3781 211.074 45.3589C210.879 44.9751 210.644 43.9772 210.575 43.6702C210.253 42.3845 210.106 41.0796 210.145 39.7938C210.155 39.4772 210.155 39.1606 210.155 38.8439C210.155 38.3258 210.155 37.7981 210.194 37.28C210.262 36.4068 210.507 35.5529 210.703 34.91C210.8 34.6126 210.918 34.5454 211.348 34.5454H211.485C211.701 34.5646 211.916 34.5742 211.945 34.603C211.965 34.6318 211.955 34.7757 211.955 34.9004C211.945 34.9676 211.945 35.0443 211.945 35.1211C211.906 36.5124 212.444 37.7309 213.012 38.8727C213.032 38.9015 213.051 38.9399 213.071 38.9687C213.11 39.0358 213.149 39.103 213.169 39.1798C213.266 39.506 213.501 39.7075 213.697 39.8418C214.216 40.216 214.333 40.5998 214.098 41.1755Z" fill="white"/>
<path d="M209.128 46.0013C208.972 46.1836 208.825 46.3851 208.688 46.577C208.62 46.673 208.551 46.7689 208.483 46.8649C207.788 47.7764 207.054 48.6015 206.31 49.3404C206.212 49.4363 206.095 49.5323 205.948 49.6378C205.684 49.8201 205.586 49.8105 205.39 49.5514C205.136 49.2252 204.979 48.8318 204.911 48.3521C204.833 47.7956 204.803 47.2199 204.774 46.6634C204.754 46.2604 204.735 45.8574 204.696 45.4544C204.637 44.5045 204.657 43.5258 204.784 42.5376C204.823 42.2017 204.862 41.8659 204.901 41.5205C205.009 40.4938 205.126 39.4288 205.42 38.4117C205.713 37.4139 206.075 36.6655 206.584 36.061C206.819 35.7635 207.073 35.5812 207.367 35.4853C207.925 35.3126 208.346 34.9672 208.737 34.6313C208.903 34.4778 209.05 34.4106 209.207 34.4106C209.256 34.4106 209.314 34.4202 209.363 34.4394C209.53 34.4778 209.539 34.545 209.53 34.6505C209.51 34.7081 209.5 34.7657 209.49 34.8232C209.481 34.9192 209.461 35.0151 209.432 35.1111C209.197 35.917 209.109 36.7326 209.05 37.7113C208.991 38.7859 208.962 39.6687 208.962 40.4938C208.962 41.7604 209.148 42.9597 209.481 44.0631C209.725 44.8499 209.618 45.4448 209.128 46.0013Z" fill="#F4F4F4"/>
<path d="M207.199 31.2647C206.631 32.2818 206.729 33.0302 207.541 33.8458C207.58 33.8937 207.59 33.9129 207.6 33.9225C207.59 33.9225 207.58 33.9417 207.531 33.9801C207.404 34.0664 207.257 34.1432 207.071 34.2104C205.819 34.6613 204.772 35.4673 203.891 36.1869C202.414 37.4055 201.161 38.8447 200.134 40.0825C199.468 40.8884 198.734 41.6272 198.04 42.2989C197.501 42.817 197.09 43.3351 196.768 43.8725C196.582 44.1795 196.347 44.3138 196.014 44.2754C195.104 44.1891 194.908 44.0931 194.703 43.2488C194.585 42.7115 194.556 42.1646 194.546 41.5121C194.507 40.6486 194.82 39.6891 195.104 38.9503C195.858 36.9545 197.149 35.1123 199.057 33.2988C200.662 31.7828 202.267 30.689 203.97 29.931C205.105 29.4321 206.083 29.173 207.042 29.1155C207.15 29.1155 207.257 29.1155 207.365 29.0579C207.463 29.0099 207.551 28.9907 207.649 28.9907C207.835 28.9907 208.021 29.0867 208.265 29.3074C208.392 29.4225 208.539 29.5472 208.549 29.5952C208.549 29.6336 208.383 29.7967 208.275 29.9022C207.835 30.3148 207.473 30.7754 207.199 31.2647Z" fill="white"/>
<path d="M207.483 27.666C207.288 27.8195 207.043 27.8483 206.779 27.8771H206.701C206.162 27.9538 205.712 28.069 205.311 28.2225C204.763 28.4432 204.215 28.6542 203.667 28.8653C203.246 29.0284 202.816 29.2012 202.385 29.3643C202.297 29.4026 202.239 29.4122 202.19 29.3931C201.514 29.086 200.781 29.0189 200.086 28.9997C199.234 28.9805 198.598 28.4815 198.08 28.021C198.07 28.021 198.05 28.0018 198.041 28.0018C197.757 27.7139 196.974 27.3781 196.348 27.1287C196.338 27.1287 196.318 27.1191 196.309 27.1191C196.064 27.0615 195.81 26.9847 195.575 26.8696C195.213 26.6969 194.821 26.5338 194.371 26.3706C194.234 26.3227 194.146 26.2651 194.127 26.2075C194.097 26.15 194.127 26.0444 194.195 25.9101C194.459 25.392 194.9 24.989 195.624 24.6052C196.054 24.3845 196.544 24.2598 196.974 24.2598H197.092C197.61 24.2598 197.943 24.3269 198.236 24.4996C198.814 24.8259 199.45 24.9602 200.066 25.0753L200.252 25.1137C200.712 25.2097 201.152 25.4016 201.573 25.5839C201.7 25.6414 201.837 25.699 201.965 25.747C203.56 26.4186 205.282 26.7928 207.082 26.8696H207.17C207.17 26.8696 207.239 26.8696 207.258 26.8792C207.337 26.8984 207.425 26.8888 207.493 26.8792C207.63 26.8696 207.64 26.8792 207.669 26.9368C207.757 27.1862 207.669 27.522 207.483 27.666Z" fill="#EFEDE4"/>
<path d="M228.09 6.20123C228.09 6.53705 228.022 6.85368 227.895 7.15112C227.288 8.5232 226.848 9.97203 226.427 11.3729C226.339 11.6511 226.26 11.9294 226.172 12.2077C225.517 14.3281 224.695 16.8228 223.609 19.1736C223.168 20.1139 222.748 20.9486 222.043 21.6203C221.789 21.8698 221.495 22.148 221.162 22.3495C220.702 22.6182 220.243 22.9444 219.802 23.3282C219.587 23.5105 219.332 23.5489 219.049 23.5872C219.078 23.4817 219.127 23.3857 219.166 23.2898C219.528 22.4263 219.381 21.8314 218.628 21.2461C218.168 20.8815 217.649 20.5073 216.974 20.4305C216.779 20.4017 216.632 20.2578 216.505 19.9604C216.191 19.2407 216.113 18.5019 216.27 17.7823C216.602 16.2759 217.317 14.9038 218.383 13.7045C218.54 13.5413 218.667 13.359 218.775 13.1767C218.853 13.0616 218.941 12.9657 219.039 12.9177C219.058 12.8985 219.078 12.8793 219.088 12.8601L220.106 11.632C220.154 11.5744 220.213 11.5168 220.272 11.4592L221.603 10.2023C221.877 9.90487 222.17 9.62662 222.464 9.35796C222.787 9.07011 223.11 8.76307 223.403 8.43685C223.775 8.02426 224.157 7.62128 224.538 7.22788C224.695 7.06477 224.851 6.89206 225.008 6.72895C225.38 6.33556 225.673 5.91338 225.898 5.48161C226.133 5.02105 226.887 4.58928 227.435 4.61806C227.513 4.62766 227.552 4.65644 227.611 4.75239C227.934 5.24173 228.09 5.71188 228.09 6.20123Z" fill="white"/>
<path d="M218.549 11.7953C217.873 12.5341 217.032 13.4552 216.415 14.4819C215.623 15.8156 215.183 16.9766 215.036 18.128C214.928 18.9531 215.046 19.7207 215.398 20.3828C215.417 20.4116 215.427 20.4403 215.427 20.4595H215.368C215.231 20.4499 215.104 20.4691 214.967 20.4787C214.899 20.4883 214.84 20.4883 214.742 20.5075C214.683 20.5171 214.654 20.5171 214.654 20.5171C214.654 20.5171 214.635 20.4787 214.635 20.3732C214.635 19.5864 214.498 18.8188 214.214 18.0224C213.803 16.8806 213.646 15.6717 213.548 14.6354C213.509 14.2036 213.519 13.7431 213.539 13.3113C213.539 13.081 213.548 12.8508 213.548 12.6205C213.568 12.4957 213.656 11.8913 213.754 11.3444L213.803 11.0469C213.999 10.0394 214.175 9.08954 214.83 8.29316C215.241 7.79423 215.74 7.40083 216.318 7.13218C216.504 7.03623 216.797 6.96906 217.149 7.37205C217.394 7.6599 217.599 7.99572 217.746 8.38911C218.001 9.06076 218.245 9.7324 218.49 10.4136L218.695 10.9989C218.823 11.3252 218.784 11.5554 218.549 11.7953Z" fill="#F4F4F4"/>
<path d="M213.56 20.2871C213.53 20.8148 213.286 21.1986 212.845 21.4193C211.837 21.9374 211.779 22.8489 211.828 23.4822V23.5398C211.837 23.6357 211.847 23.7316 211.847 23.7508C211.818 23.77 211.691 23.7988 211.593 23.8084C210.497 24.0003 209.645 24.2977 208.892 24.7583C208.726 24.8543 208.598 24.9694 208.501 25.1037C208.295 25.4108 207.982 25.5739 207.551 25.5931C206.759 25.6314 206.044 25.5643 205.379 25.3724C205.095 25.286 204.821 25.2093 204.538 25.1325C203.95 24.9694 203.344 24.7967 202.757 24.6048C201.749 24.2594 200.731 23.6933 199.655 22.8777L199.048 22.4267C198.109 21.7167 197.13 20.9779 196.22 20.2007C195.917 19.9417 195.643 19.6346 195.388 19.2892C195.251 19.1165 195.202 18.9726 195.242 18.8574C195.271 18.7423 195.398 18.6367 195.613 18.5408C196.504 18.1858 197.463 17.9843 198.48 17.9651C198.549 17.9651 198.608 17.9555 198.676 17.9555C199.743 17.9555 200.858 18.1858 202.17 18.6463C202.375 18.7231 202.581 18.7999 202.786 18.867C203.344 19.0589 203.921 19.2508 204.459 19.5291C205.183 19.8841 205.839 20.3734 206.465 20.8436C206.602 20.9491 206.729 21.0451 206.866 21.141C206.994 21.237 207.131 21.3425 207.268 21.4385C207.532 21.6495 207.816 21.8606 208.109 22.0525C208.677 22.4363 209.293 22.6378 209.939 22.657H210.301C210.575 22.6762 210.859 22.6762 211.143 22.6762C211.319 22.6762 211.456 22.5994 211.524 22.4747C211.593 22.3596 211.583 22.1965 211.485 22.0429C211.348 21.8031 211.113 21.6591 210.849 21.6495C209.342 21.5632 208.344 20.6613 207.483 19.7018C206.857 19.0013 206.377 18.1762 205.927 17.3702L205.839 17.2359C205.252 16.2092 204.586 15.1922 203.95 14.2135C203.755 13.916 203.559 13.6186 203.363 13.3116C203.099 12.899 202.894 12.4864 202.757 12.0834C202.463 11.1815 202.062 10.3083 201.67 9.47358C201.524 9.16654 201.377 8.84991 201.24 8.54287C200.995 7.99596 200.79 7.42986 200.594 6.87336L200.418 6.35523C200.203 5.76994 200.066 5.18465 199.919 4.5226C199.762 3.80298 199.684 3.03538 199.704 2.17184C199.713 1.99913 199.743 1.85521 199.792 1.72088C199.86 1.57695 199.899 1.54817 199.929 1.53857C199.948 1.53857 199.997 1.53857 200.124 1.61533C200.486 1.83602 200.819 2.11427 201.142 2.37333C201.259 2.46928 201.377 2.56523 201.494 2.66118C203.559 4.3211 205.076 5.67399 206.387 7.07485C207.502 8.24543 208.618 9.55994 209.9 11.2007C211.319 13.0237 212.121 15.077 212.728 16.8521C212.806 17.0824 212.884 17.3126 212.972 17.5333C213.188 18.109 213.413 18.7039 213.501 19.318C213.54 19.625 213.579 19.9512 213.56 20.2871Z" fill="white"/>
</svg>
