<svg width="105" height="101" viewBox="0 0 105 101" fill="none" xmlns="http://www.w3.org/2000/svg">
    <path d="M64.0933 49.1258C64.0547 49.6943 63.7262 50.206 63.1271 50.7176C62.8951 50.9071 62.6439 51.0966 62.412 51.2672C62.1994 51.4377 62.0062 51.6083 61.7936 51.7599C60.9819 52.3852 60.1316 52.7832 59.2426 52.9347C55.822 53.5222 53.6188 53.598 52.7492 53.1621C51.7443 52.6695 51.4737 50.7934 51.3577 50.0923V49.8649C51.2225 49.2774 50.8746 48.0457 50.8553 48.0268C50.8553 47.9889 50.8359 47.9699 50.8359 47.951C50.8746 47.8373 51.1065 47.6857 51.2225 47.5909L51.3577 47.4583C52.3627 46.5676 53.5995 45.6391 55.2615 45.4117C55.8413 45.3359 56.3824 45.1274 56.9042 44.938C57.1554 44.8243 57.4067 44.7485 57.6772 44.6727C58.1024 44.5211 58.4696 44.5211 58.7595 44.6348C60.3442 45.2222 62.1028 46.0181 63.4556 47.4962C63.9387 48.0457 64.1706 48.5953 64.132 49.1448L64.0933 49.1258Z" fill="#FFE888"/>
    <path d="M58.3132 58.9792C57.7334 59.434 57.0957 60.0214 56.5545 60.7605C56.1294 61.3479 55.4916 61.5564 54.8539 61.708C54.8152 61.708 54.7959 61.7269 54.7766 61.7269L52.7281 62.3144C52.5928 62.3712 52.3802 62.4281 52.0903 62.5039H52.013C50.293 62.9776 48.8629 62.7881 47.4715 61.9164C45.8868 60.931 45.365 59.4719 45.8868 57.6906C46.4665 55.8904 47.5488 54.7913 49.2108 54.3555C49.404 54.2986 49.578 54.1849 49.6939 54.1091C49.7519 54.0523 49.8872 53.9575 49.9258 53.9575C50.0804 54.0333 50.1964 54.2228 50.3317 54.3934C50.409 54.5071 50.4863 54.5829 50.5443 54.6587C51.3753 55.663 52.4575 56.1557 53.7523 56.1557H53.8103C54.9892 56.1557 56.1294 56.0799 56.999 55.9851C58.0426 55.9283 58.5451 56.1936 58.9123 57.0463C59.1828 57.7096 58.9702 58.3918 58.2938 58.9603L58.3132 58.9792Z" fill="#F4D13D"/>
    <path d="M43.782 62.4284C43.782 62.4284 43.7433 62.4663 43.724 62.4853C43.2409 63.1674 41.6948 63.717 40.5546 63.9633C40.5353 63.9633 40.4966 63.9823 40.4387 63.9823C40.0328 64.1528 39.5497 64.2286 38.8346 64.2286C36.5542 64.5697 35.9937 64.2665 35.9744 64.2665C35.9357 64.2097 35.8585 64.1528 35.7812 64.1339C35.6652 64.1149 35.5106 64.0581 35.2207 63.9444C33.9645 63.4138 32.7277 62.8832 31.4909 62.3526C30.9497 62.1442 30.8145 61.9168 30.8145 61.8599C30.9304 60.0028 32.805 57.6152 34.7569 57.5773L36.0517 57.5394C36.8441 57.5015 37.5978 57.4825 38.3708 57.4636C38.8346 57.4446 39.3564 57.4825 39.7816 57.691C40.1101 57.8426 40.3807 57.8805 40.6319 57.7668C40.9218 57.6531 41.1344 57.4257 41.3083 57.0277L41.3663 56.8572C41.4242 56.6866 41.5016 56.4971 41.5789 56.3266C41.5982 56.2697 41.6175 56.2697 41.6368 56.2887C41.6175 56.7245 41.7141 57.0656 41.9654 57.293C42.1779 57.5394 42.5258 57.6531 42.9703 57.6341C42.6418 58.9985 43.1056 60.2302 43.5114 61.3293C43.5887 61.5567 43.666 61.822 43.7047 62.0873L43.7433 62.3147L43.7627 62.3905L43.782 62.4284Z" fill="#FFE888"/>
    <path d="M44.7094 51.5701C43.2213 53.1619 41.4627 54.2041 39.5108 54.6779C39.1436 54.7916 38.7571 54.7916 38.3319 54.8105C38.1386 54.8105 37.9261 54.8105 37.7522 54.8295C36.8439 54.8295 35.6263 54.7537 34.4861 54.1283C32.5536 53.0292 32.1864 50.111 33.1913 48.3487C33.7324 47.3822 34.4088 46.7569 35.2978 46.4347C36.2834 46.0747 37.3463 45.8473 38.4672 45.7715H38.6411C39.3175 45.7715 39.8973 46.0557 40.2452 46.6242C40.9409 47.7802 41.9651 48.4055 43.4532 48.595C44.2649 48.6708 44.8833 49.1256 45.1345 49.7699C45.3665 50.3952 45.1925 51.0585 44.6901 51.608L44.7094 51.5701Z" fill="#F4D13D"/>
    <path d="M53.3284 43.0243C52.2269 44.3318 50.7774 45.1467 49.2314 46.0184L49.0961 46.0942C47.8206 46.3784 46.7963 46.3026 46.7577 46.3026C45.3469 46.3405 44.226 46.0752 43.2211 45.5067C42.3708 45.0519 41.7137 43.8581 41.5977 42.6074C41.5398 41.9252 41.6171 40.6177 42.7959 39.6892C43.395 39.1965 43.9555 38.8743 44.4966 38.6469L44.8638 38.4764C44.8638 38.4764 45.6561 38.0405 46.9509 38.0405C47.0282 38.0405 47.1249 38.0595 47.2022 38.0595C47.8013 38.1353 48.4004 38.1732 48.9608 38.1921C49.4053 38.2111 49.8691 38.2111 50.3329 38.249C50.6035 38.2869 50.8161 38.3058 50.932 38.3248C50.9514 38.3437 50.99 38.3627 51.048 38.3627C51.2219 38.4006 51.8017 38.5901 52.4974 39.2154C53.3091 39.9545 53.4057 40.2197 53.5217 40.504C53.5217 40.5419 53.541 40.5798 53.5603 40.6177C54.1787 41.3757 54.1208 42.0579 53.3284 43.0243Z" fill="#F4D13D"/>
    <path d="M104.715 49.7887C104.503 49.0496 104.058 48.5759 103.343 48.3296C102.667 48.1022 102.01 47.8937 101.372 47.5905C99.1303 46.5483 96.6759 45.525 94.0476 45.0513C92.3083 44.7291 90.511 44.4449 88.7911 44.1796C87.1097 43.9143 85.3511 43.649 83.6505 43.3458C81.0415 42.872 78.2586 42.6825 75.4177 42.7773C76.9638 41.7919 77.9107 40.3328 78.6258 39.0442C78.8577 38.6462 79.0703 38.2293 79.2828 37.8314C79.5148 37.3955 79.7467 36.9597 79.9979 36.5428C81.0222 34.7426 80.8869 33.1698 79.5341 31.6348C78.993 31.0095 78.3552 30.801 77.5629 30.9716C75.6883 31.3506 73.7944 31.957 71.3787 32.8855C70.6056 33.1887 69.8133 33.454 69.0402 33.6814C67.5328 34.1741 65.9675 34.6668 64.518 35.5764C64.5374 35.5385 64.5374 35.5006 64.5567 35.4816L64.6147 35.349C65.0398 34.2499 65.465 33.1698 65.8902 32.0707C66.7212 29.9862 67.5715 27.8259 68.3445 25.6656C68.9436 23.9981 69.5041 22.2926 70.0452 20.644C70.7216 18.6163 71.398 16.5129 72.1517 14.4853C73.0407 12.0976 72.8281 9.93735 71.514 7.90973C71.1854 7.41704 70.7022 6.65905 69.736 6.5643C67.6874 6.39375 66.0641 7.00014 64.9625 8.40242L64.6533 8.78142C63.5711 10.1458 62.4502 11.5481 61.252 12.8556C60.0538 14.1631 58.7397 15.4328 57.4835 16.6645C56.2467 17.8394 54.9905 19.0711 53.8116 20.3408C53.773 20.3787 53.7343 20.4166 53.6957 20.4545C53.6764 20.4545 53.6764 20.4734 53.657 20.4734C53.3865 19.6396 53.0966 18.8248 52.8067 18.0099C52.5555 17.3088 52.3042 16.6077 52.0723 15.9065C51.5892 14.5232 50.8548 13.2536 49.8885 12.1545C48.729 10.8469 47.3955 10.6574 45.9075 11.567C43.7237 12.9125 42.1196 14.978 41.018 17.8962C39.9745 20.625 39.9745 23.4675 40.0324 26.1583C40.0518 26.5184 40.0518 26.8595 40.0518 27.2195C39.9551 27.0111 39.8778 26.8026 39.7812 26.5942C39.2787 25.3814 38.7376 24.1118 37.9066 23.0127C37.3848 22.3494 36.863 21.7051 36.3219 21.0419C35.5875 20.1323 34.8338 19.2038 34.1188 18.2563C31.935 15.2433 29.3067 12.344 25.6155 8.83827C23.8376 7.17069 21.905 5.46521 19.3347 3.30494C19.0448 3.07754 18.7742 2.83119 18.5037 2.6038C17.7113 1.92161 16.8996 1.22047 16.03 0.614073C15.7014 0.405626 14.7545 -0.238666 13.8655 0.443526C12.5321 1.48576 11.8556 2.6417 11.7783 3.96818C11.701 5.35151 11.875 6.75379 12.0489 7.94763C12.3001 9.59626 12.7446 11.1691 13.3244 13.0451C13.8075 14.599 14.3487 16.2476 15.1603 17.8015C15.8174 18.9953 16.5131 20.3029 16.977 21.7051C17.4214 23.0695 18.0592 24.4908 18.9675 26.1962C20.0691 28.2618 21.3445 30.2515 22.5814 32.1844C23.1225 33.0371 23.6636 33.8709 24.2047 34.7426C24.6106 35.3679 25.0164 36.0691 25.4029 36.846C25.2677 36.7702 25.1324 36.6944 24.9778 36.6376C21.5958 35.1405 18.465 34.193 15.4115 33.7382C15.2183 33.7003 15.0057 33.6814 14.7931 33.6624L14.3873 33.6056C11.1406 33.1129 8.18377 33.2266 5.3429 33.9088C4.87908 34.0225 4.47325 34.2499 4.10606 34.572C3.0818 35.4816 2.90785 37.5661 3.75818 38.9305C4.66649 40.4086 5.99997 41.5076 7.27547 42.5499L7.48805 42.7204C7.71996 42.9289 7.97118 43.1373 8.20309 43.3458C9.09207 44.1038 10.0197 44.8617 11.0246 45.5439C10.2323 45.3923 9.45927 45.3165 8.66691 45.3165C5.72942 45.3165 3.31371 46.6241 1.47777 49.2202C0.994627 49.9024 0.801373 50.6414 0.936653 51.3236C1.07193 52.0437 1.55508 52.688 2.3281 53.1996C2.75327 53.4839 3.23641 53.7113 3.71955 53.9387C4.85977 54.4693 6.01928 54.962 7.14017 55.3599C8.22241 55.7579 9.15006 56.4021 10.1163 57.0843C10.4062 57.2928 10.7154 57.5012 11.0053 57.6907C12.2615 58.5245 13.5563 58.9793 14.9478 59.0741C15.141 59.0741 15.3343 59.093 15.5275 59.112C15.8754 59.1309 16.2232 59.1688 16.5518 59.1688C16.4745 59.2257 16.4165 59.2825 16.3392 59.3394C16.0686 59.5099 15.7981 59.6994 15.5468 59.8889C13.3051 61.6133 11.1213 63.6789 8.47365 66.6161C6.03861 69.3259 4.18336 72.3389 2.98517 75.5603C1.6517 79.1608 1.41979 82.4012 2.28944 85.4332C2.98517 87.8587 3.4683 89.0336 6.96625 89.2421C9.03409 89.3558 10.2903 88.6736 11.0633 87.0249C11.5078 86.0585 12.2422 85.2058 13.2857 84.4099C14.31 83.6519 15.2763 82.6855 16.1652 81.5485C18.0012 79.1608 20.5135 76.0909 23.5477 73.4948C23.6829 73.3811 23.8375 73.2674 23.9921 73.1727C24.0501 73.1348 24.1274 73.0779 24.1854 73.04L24.0695 73.4569C23.8569 74.1581 23.6443 74.8782 23.4704 75.5983C22.7553 78.4976 22.2915 81.5674 22.1176 84.751C21.905 88.6167 21.963 91.8192 22.2915 94.8512C22.4461 96.1587 22.7746 97.8453 23.9149 99.2854L23.9921 99.3802C24.2627 99.7213 24.6106 100.138 25.1904 100.138H25.2676C26.4272 100.043 27.9153 99.7971 29.0361 98.5654C29.326 98.2432 29.6159 97.9211 29.8865 97.5989C30.1764 97.2768 30.4469 96.9546 30.7368 96.6514L31.3552 95.9692C32.6887 94.4912 34.0608 92.9562 35.1431 91.2318C35.201 91.137 35.2397 91.0992 35.2397 91.0802C35.259 91.0992 35.2977 91.1371 35.3363 91.2129C35.4716 91.4402 35.6455 91.6297 35.8195 91.8192L35.9161 91.9329C36.1866 92.2172 36.4379 92.3498 36.7278 92.3688C36.979 92.3877 37.2496 92.2551 37.5008 92.0277C37.7907 91.7624 38.0806 91.516 38.3704 91.2697C39.5107 90.2654 40.6895 89.2421 41.4239 87.7829C41.5398 87.5745 41.6945 87.366 41.907 87.1576C41.965 87.0818 43.2405 85.3953 43.743 84.4478L43.7816 84.3909C43.7816 84.3909 43.8203 84.2962 43.8396 84.2772C44.574 82.7044 44.9991 81.2642 45.1537 79.8998C45.1731 79.7104 45.2311 79.5588 45.3857 79.3693C45.5209 79.2177 45.7142 78.9903 45.8688 78.9524C46.1007 79.4451 47.7047 82.7044 48.7483 83.993C48.8063 84.0688 48.8643 84.1446 48.9223 84.2204L49.0575 84.372C49.7339 85.2437 50.4297 86.1343 51.1834 86.9681C53.3865 89.3747 55.7828 91.914 58.6624 93.9795C61.194 95.7987 63.7064 96.9546 66.3347 97.4852C68.016 97.8453 69.562 96.5756 69.8906 95.2302C70.1418 94.169 69.9486 93.1836 69.6973 92.1793C69.4654 91.2697 69.2528 90.3601 69.0402 89.4316C68.6924 87.9914 68.3445 86.4944 67.958 85.0352C67.1463 82.0412 66.0834 78.5734 64.1702 75.3709L64.3441 75.4277C64.6147 75.5414 64.8852 75.6362 65.1751 75.7499L65.8515 75.9962C67.243 76.5268 68.6731 77.0574 70.1418 77.4364C72.8861 78.1186 75.5917 78.0617 78.6065 77.9101C80.4424 77.8343 82.0464 77.19 83.3799 75.9962C83.8437 75.5983 83.9597 75.1435 83.7278 74.575C83.5538 74.1391 83.2639 73.817 82.9547 73.5138L82.8001 73.3243C82.317 72.8126 81.8532 72.301 81.37 71.7894C80.4037 70.7661 79.3988 69.7238 78.5291 68.6058C78.2779 68.2647 78.0074 67.9426 77.7561 67.6015C76.6932 66.2181 75.5917 64.7969 74.3162 63.5273C73.9683 63.1862 73.6784 62.7882 73.3692 62.3713L73.1373 62.0681C73.1373 62.0681 73.118 62.0302 73.0986 62.0302H73.1373C74.9346 62.2197 76.7319 62.1439 78.6065 61.7839C81.5053 61.2533 84.3848 60.8174 87.187 60.4195C87.9021 60.3058 88.5978 60.2111 89.3129 60.1163C90.8009 59.9079 92.347 59.6994 93.8544 59.3962C94.5501 59.2636 95.1879 58.9983 95.8256 58.714C97.1011 58.1266 98.1833 57.6907 99.2656 57.3686C100.541 56.9517 102.164 56.3074 103.324 54.9051C104.735 53.2186 105.199 51.551 104.715 49.7887ZM69.4848 35.8606L69.8906 35.728C70.567 35.4816 71.224 35.2542 71.8811 35.0268C73.5045 34.4773 75.2052 33.8898 76.8285 33.2077C77.157 33.0561 77.4662 33.0561 77.6982 33.2077C77.988 33.3972 78.162 33.833 78.162 34.3636C78.162 34.8184 77.8141 35.3869 77.5822 35.7659C76.5386 37.5282 75.3018 39.5748 73.891 41.4508C73.2533 42.3414 72.3643 42.9289 71.2434 43.2131C70.8569 43.3268 70.4704 43.4216 70.0838 43.5163C68.8857 43.8006 67.6681 44.0848 66.5279 44.6533C64.634 45.6197 63.2619 46.6051 62.199 47.78L62.1023 47.8937L61.9284 48.0643C61.4066 48.5949 61.4066 48.6138 60.8848 48.159C59.4547 46.9841 58.2179 46.3019 56.9231 45.9419C56.9424 45.9229 56.9617 45.9229 56.981 45.904C57.3869 45.6008 57.7734 45.2976 58.1792 44.9944L58.9523 44.4259C59.6673 43.8764 60.2857 43.2131 60.8655 42.5688C61.2327 42.1709 61.6192 41.7729 62.0057 41.3939C62.2376 41.1855 62.4889 40.996 62.7401 40.8065C63.2619 40.4086 63.7837 40.0106 64.1122 39.4421C65.2911 37.3387 67.3396 36.6186 69.4848 35.8606ZM41.8877 51.0394C42.6221 51.1152 43.1825 51.5131 43.4144 52.1006C43.627 52.669 43.4724 53.2754 43.0086 53.7681C41.6558 55.2083 40.0711 56.1558 38.2931 56.5917C37.9646 56.6864 37.6167 56.6864 37.2302 56.7053C37.0563 56.7053 36.863 56.7053 36.7084 56.7243C35.8774 56.7243 34.7759 56.6485 33.7516 56.08C31.993 55.0757 31.6644 52.4417 32.5727 50.8309C33.0559 49.9592 33.6743 49.3907 34.486 49.0875C35.375 48.7654 36.3412 48.557 37.3655 48.4812H37.5201C38.1385 48.4812 38.6603 48.7464 38.9695 49.2581C39.6073 50.3003 40.5349 50.8688 41.8877 51.0394ZM41.2886 42.9857C41.8297 42.5309 42.3322 42.2467 42.8347 42.0382L43.1632 41.8866C43.1632 41.8866 43.8783 41.4887 45.0571 41.4887C45.1344 41.4887 45.2117 41.5076 45.289 41.5076C45.8301 41.5834 46.3713 41.6024 46.8931 41.6213C47.2989 41.6213 47.7241 41.6213 48.1299 41.6782C48.3811 41.7161 48.5744 41.735 48.671 41.754C48.671 41.754 48.729 41.7919 48.7676 41.7919C48.9223 41.8298 49.444 42.0003 50.0818 42.5688C50.8162 43.2321 50.9128 43.4784 51.0094 43.7437C51.0094 43.7816 51.0287 43.8195 51.0481 43.8385C51.6085 44.5207 51.5505 45.146 50.8355 46.0177C49.8305 47.2115 48.5164 47.9506 47.125 48.7275L47.009 48.8033C45.8495 49.0686 44.9218 48.9928 44.8832 48.9928C43.6077 49.0307 42.5834 48.7843 41.6751 48.2727C40.9021 47.8558 40.303 46.7757 40.2064 45.6387C40.1484 45.0133 40.2257 43.8385 41.2886 42.9857ZM44.6513 54.3366C45.1537 53.3323 45.3083 52.4417 45.1537 51.5321C45.1344 51.4373 45.1344 51.3994 45.1151 51.3805H45.289C45.405 51.3805 45.5403 51.3994 45.6562 51.3615C46.4099 51.3615 46.5259 51.4373 46.7384 52.0816C46.8931 52.5175 47.009 52.9722 47.1056 53.427L47.2023 53.8439C47.2409 53.9576 47.2216 54.0524 47.0477 54.1282L46.8737 54.204C46.5645 54.3556 46.2553 54.5072 45.9461 54.583C44.9605 54.8293 44.1295 55.341 43.3758 56.1179L43.2792 56.2127C43.0473 56.459 42.8347 56.6864 42.5448 56.8001C43.4917 56.1179 44.2068 55.2841 44.6513 54.3366ZM44.0715 59.3204C44.5933 57.6907 45.5789 56.6864 47.0863 56.2885C47.2602 56.2316 47.4149 56.1369 47.5308 56.0611C47.5888 56.0042 47.7047 55.9284 47.7434 55.9284C47.8787 56.0042 47.9946 56.1748 48.1106 56.3264C48.1879 56.4211 48.2458 56.4969 48.3038 56.5727C49.0575 57.4823 50.0431 57.9371 51.222 57.9371H51.28C52.3429 57.9371 53.3865 57.8613 54.1788 57.7855C55.1258 57.7286 55.5896 57.975 55.9181 58.7519C56.1694 59.3583 55.9761 59.9647 55.3577 60.4953C54.8359 60.9122 54.2561 61.4428 53.7537 62.106C53.3672 62.6366 52.7874 62.8261 52.2076 62.9588C52.169 62.9588 52.1496 62.9777 52.1303 62.9777L50.275 63.5083C50.1591 63.5652 49.9658 63.6031 49.6953 63.6789H49.618C48.0526 64.1147 46.7578 63.9442 45.5016 63.1483C44.0715 62.2576 43.5884 60.9311 44.0715 59.3204ZM50.2944 55.2083C49.3861 54.7535 49.1348 53.067 49.0382 52.4227V52.2143C48.9223 51.6837 48.5937 50.5656 48.5744 50.5467C48.5744 50.5088 48.5744 50.4898 48.5744 50.4709C48.613 50.3761 48.8256 50.2245 48.9223 50.1487L49.0382 50.035C49.9465 49.2202 51.0674 48.3864 52.5748 48.178C53.0966 48.1022 53.599 47.9127 54.0629 47.7421C54.2948 47.6474 54.5267 47.5716 54.7586 47.4958C55.1451 47.3631 55.4737 47.3631 55.7442 47.4579C57.1743 47.9885 58.7783 48.7085 59.9958 50.054C60.4403 50.5467 60.6529 51.0583 60.6143 51.551C60.5756 52.0627 60.2857 52.5364 59.7446 52.9912C59.532 53.1617 59.3001 53.3323 59.0875 53.4839C58.8943 53.6355 58.7204 53.7871 58.5271 53.9387C57.7927 54.5072 57.0197 54.8672 56.208 54.9999C53.0966 55.5305 51.1061 55.6063 50.3137 55.2083H50.2944ZM57.0777 60.3058C57.1357 60.0595 57.2323 59.7942 57.3676 59.5478C57.5995 59.1499 57.8507 58.6382 57.8507 58.0129C57.8507 57.7097 57.7927 57.3875 57.6381 57.0464C58.1599 56.6674 58.6624 56.3074 59.1648 55.9095C59.3774 55.7579 59.6093 55.701 59.8412 55.7768C60.1891 55.8526 60.4403 56.08 60.5563 56.44C60.5563 56.44 60.7495 56.8001 60.7689 57.4444C60.7689 58.0887 60.595 58.5814 60.2471 58.8846C60.2084 58.9035 60.1891 58.9225 60.1505 58.9414C60.1505 58.9414 60.0925 58.9983 60.0538 59.0172C59.8412 59.1688 59.6287 59.3394 59.4161 59.491C58.875 59.9268 58.3338 60.3247 57.6768 60.4574L57.2709 60.5142C57.1163 60.5521 57.0777 60.4953 57.0777 60.4953C57.0777 60.4953 57.039 60.4574 57.0777 60.3058ZM52.5361 25.0593C52.5361 25.0593 52.6328 24.9835 52.6521 24.9456L54.6426 22.52L54.9905 22.1789L57.6188 19.6965C58.1599 19.109 58.7397 18.5595 59.3194 18.0289C59.9572 17.4604 60.5949 16.854 61.1747 16.2097C61.9091 15.3949 62.6628 14.599 63.4165 13.8221C63.7257 13.4999 64.0349 13.1588 64.3441 12.8367C65.0785 12.0597 65.6583 11.2259 66.1028 10.3732C66.5666 9.46361 68.0546 8.61087 69.1176 8.66772C69.2722 8.68667 69.3688 8.74352 69.4848 8.93301C70.1225 9.89945 70.4317 10.828 70.4317 11.7944C70.4317 12.4577 70.2964 13.083 70.0259 13.6705C68.847 16.3803 67.9773 19.2417 67.1463 22.0083C66.9724 22.5579 66.7985 23.1074 66.6439 23.657C65.3491 27.8449 63.7257 32.7718 61.5612 37.4145C60.7109 39.2716 59.8799 40.9202 58.4884 42.2467C57.986 42.7394 57.4062 43.2889 56.7491 43.6869C55.8408 44.2175 54.9325 44.8618 54.0629 45.6197C53.6377 45.9798 53.1352 46.0556 52.5748 46.1314C52.6328 45.9229 52.7101 45.7334 52.8067 45.5439C53.5218 43.8385 53.2125 42.6636 51.7438 41.5076C50.8162 40.7876 49.8112 40.0485 48.4777 39.8969C48.0912 39.8401 47.8014 39.5558 47.5501 38.9684C46.9317 37.5471 46.7771 36.088 47.0863 34.6668C47.7434 31.6917 49.1542 28.9819 51.2413 26.6131C51.5505 26.291 51.8211 25.9309 52.0337 25.5709C52.169 25.3435 52.3429 25.154 52.5361 25.0593ZM41.6751 25.8362C41.6751 25.3814 41.7138 24.9266 41.7138 24.4718C41.7524 24.2255 41.9264 23.0316 42.1196 21.9515L42.2163 21.3641C42.5834 19.3743 42.9506 17.4983 44.2454 15.9255C45.0571 14.9401 46.0427 14.1631 47.1829 13.6326C47.5501 13.4431 48.1299 13.3104 48.8256 14.1063C49.3088 14.6748 49.7146 15.338 50.0045 16.115C50.507 17.4415 50.9901 18.7679 51.4732 20.1134L51.8791 21.2693C52.1303 21.9136 52.0337 22.3684 51.5892 22.8421C50.2557 24.3013 48.5937 26.1204 47.3762 28.1481C45.8108 30.7821 44.9412 33.075 44.6513 35.349C44.4387 36.9787 44.6706 38.4946 45.3663 39.8022C45.3856 39.859 45.4243 39.9159 45.4243 39.9538H45.3083C45.0378 39.9348 44.7865 39.9727 44.4967 39.9917C44.3807 40.0106 44.2648 40.0106 44.0715 40.0485C43.9362 40.0675 43.8976 40.0675 43.8976 40.0675C43.8976 40.0675 43.8589 39.9917 43.8589 39.7832C43.8589 38.2293 43.5884 36.7134 43.0279 35.1405C42.2162 32.8855 41.907 30.4978 41.6945 28.4513C41.6171 27.5985 41.6558 26.6889 41.6945 25.8362H41.6751ZM7.48805 39.4421C6.88895 38.9305 6.3285 38.3241 5.84536 37.6419C5.5748 37.3008 5.47818 37.0166 5.55548 36.7892C5.61346 36.5618 5.8647 36.3533 6.28987 36.1638C8.0485 35.4627 9.9424 35.0647 11.9523 35.0268C12.0876 35.0268 12.2035 35.0079 12.3195 35.0079C14.426 35.0079 16.6484 35.4627 19.2187 36.3723C19.6439 36.5239 20.0497 36.6755 20.4555 36.8081C21.5571 37.1871 22.6973 37.5661 23.7602 38.1156C25.1903 38.8168 26.4852 39.7832 27.722 40.7118C27.9926 40.9202 28.2438 41.1097 28.5144 41.2992C28.7656 41.4887 29.0361 41.6971 29.2874 41.8866C29.8285 42.3035 30.3889 42.7204 30.9687 43.0994C32.0896 43.8574 33.2878 44.2554 34.5633 44.2933H35.2977C35.8388 44.3312 36.3992 44.3312 36.9597 44.3312C37.2882 44.3312 37.5781 44.1796 37.7134 43.9332C37.8486 43.7058 37.8293 43.3837 37.6361 43.0805C37.3462 42.6067 36.9017 42.3225 36.3799 42.3035C33.4037 42.133 31.4325 40.3517 29.7319 38.4567C28.4757 37.0734 27.5481 35.4437 26.6398 33.8519L26.4852 33.5866C25.3256 31.559 24.0115 29.5503 22.7553 27.6175C22.3688 27.03 21.9823 26.4426 21.5958 25.8362C21.074 25.0214 20.6681 24.2065 20.3976 23.4106C19.8178 21.6293 19.0254 19.9049 18.2524 18.2563C17.9625 17.6499 17.6727 17.0246 17.4021 16.4182C16.919 15.338 16.5131 14.22 16.1266 13.1209L15.7787 12.0976C15.3536 10.9417 15.083 9.78576 14.7931 8.47822C14.4646 7.05699 14.3293 5.54101 14.368 3.83553C14.368 3.49444 14.4259 3.21019 14.5419 2.94489C14.6579 2.66065 14.7545 2.6038 14.8125 2.58485C14.8511 2.58485 14.9477 2.58485 15.199 2.73645C15.8947 3.17229 16.5711 3.72183 17.2088 4.23348C17.4408 4.42297 17.6727 4.61247 17.8853 4.80197C21.9823 8.08028 24.9778 10.7522 27.5674 13.5189C29.7705 15.8307 31.9543 18.4268 34.5053 21.6672C37.3075 25.2677 38.8922 29.323 40.0904 32.8287C40.245 33.2835 40.3996 33.7382 40.5736 34.1741C40.9987 35.3111 41.4432 36.486 41.6172 37.6987C41.6945 38.3051 41.7718 38.9494 41.7331 39.6127C41.6751 40.6549 41.192 41.4129 40.3223 41.8487C38.3318 42.872 38.2158 44.6723 38.3125 45.9229V46.0366C38.3318 46.2261 38.3511 46.4156 38.3318 46.4535C38.2931 46.4914 38.0419 46.5483 37.8486 46.5672C35.6842 46.9462 33.9835 47.5337 32.5148 48.4433C32.1669 48.6328 31.935 48.8601 31.7418 49.1254C31.3359 49.7318 30.7175 50.054 29.8672 50.0919C28.3018 50.1677 26.891 50.035 25.5769 49.656C25.0164 49.4855 24.4753 49.3339 23.9149 49.1823C22.7553 48.8601 21.5571 48.5191 20.3976 48.1401C18.3877 47.4579 16.3972 46.3398 14.2713 44.7291L13.0732 43.8385C11.2179 42.4362 9.28533 40.9771 7.48805 39.4421ZM15.1217 56.819C13.4403 56.7811 12.1842 55.7958 11.1406 54.8862C11.1406 54.8862 11.1019 54.8483 11.0826 54.8483C10.5222 54.2798 8.97613 53.6165 7.73929 53.1238C7.71997 53.1238 7.6813 53.1049 7.66197 53.1049C7.1595 52.9912 6.67637 52.8396 6.19323 52.6122C5.49751 52.2711 4.72448 51.949 3.8355 51.6268C3.56494 51.5321 3.39101 51.4184 3.35236 51.3047C3.29438 51.191 3.35234 50.9825 3.48762 50.7172C4.00942 49.6939 4.87908 48.898 6.30918 48.1401C7.15951 47.7042 8.1258 47.4579 8.97613 47.4579H9.20803C10.213 47.4579 10.8894 47.5905 11.4691 47.9316C12.6093 48.5759 13.8655 48.8412 15.083 49.0686L15.4502 49.1444C16.3585 49.3339 17.2282 49.7129 18.0592 50.0729C18.3104 50.1866 18.581 50.3003 18.8322 50.3951C21.9823 51.7216 25.3836 52.4606 28.9395 52.6122H29.1135C29.1135 52.6122 29.2487 52.6122 29.2874 52.6312C29.442 52.6691 29.5966 52.6501 29.7512 52.6312C30.0218 52.6122 30.0411 52.6311 30.0797 52.7449C30.273 53.2375 30.0797 53.9008 29.7319 54.185C29.3454 54.4882 28.8622 54.5451 28.3404 54.6019H28.1858C27.1229 54.7535 26.2339 54.9809 25.4416 55.2841C24.3593 55.72 23.2771 56.1369 22.1949 56.5537C21.3445 56.8759 20.5135 57.217 19.6632 57.5391C19.47 57.6149 19.3733 57.6339 19.2767 57.596C17.9239 56.9896 16.4745 56.8569 15.1217 56.819ZM22.6394 71.0124C19.7212 73.419 17.2475 76.2615 15.199 78.706C13.9041 80.2978 12.4547 81.7569 11.0826 83.0834C10.0197 84.1067 9.1887 85.13 8.57028 86.1912C8.20309 86.7976 7.73927 87.0629 7.0822 86.9871C5.28491 86.8165 4.87908 86.627 4.49257 84.9594C4.26066 83.8982 4.20267 82.8181 4.18335 81.5295C4.10605 79.8241 4.72448 77.9291 5.28492 76.4699C6.75367 72.5284 9.32397 68.89 13.0925 65.3085C16.2619 62.3145 19.4313 60.1542 22.794 58.6572C25.0357 57.6718 26.9683 57.1601 28.8622 57.0464C29.0555 57.0464 29.2874 57.0464 29.5 56.9327C29.6932 56.838 29.8671 56.8001 30.0604 56.8001C30.4276 56.8001 30.7948 56.9896 31.2779 57.4254C31.5292 57.6528 31.819 57.8992 31.819 57.9939C31.819 58.0887 31.5098 58.3919 31.2779 58.6003C30.4276 59.4152 29.7126 60.3247 29.1714 61.2912C28.0505 63.2999 28.2438 64.7779 29.8285 66.3887C29.9251 66.4834 29.9445 66.5213 29.9638 66.5403C29.9445 66.5403 29.9251 66.5782 29.8285 66.654C29.5773 66.8245 29.2874 66.9761 28.9202 67.1088C26.4465 67.9994 24.3787 69.5912 22.6394 71.0124ZM32.9786 90.398C32.6694 90.7581 32.3795 91.156 32.1089 91.535C31.9736 91.7245 31.8384 91.914 31.6838 92.1035C30.3117 93.9037 28.8815 95.5334 27.4128 96.9925C27.2195 97.182 26.9876 97.3715 26.6978 97.58C26.1566 97.94 25.9827 97.9211 25.5962 97.4094C25.0937 96.7651 24.7845 95.9882 24.6492 95.0407C24.4753 93.9416 24.4366 92.8046 24.3787 91.7055C24.34 90.9097 24.3014 90.1138 24.2241 89.3179C24.0888 87.4418 24.1468 85.509 24.398 83.5572C24.4753 82.8939 24.5526 82.2307 24.6299 81.5485C24.8425 79.5209 25.0744 77.4174 25.6542 75.4088C26.2339 73.438 26.949 71.9599 27.9539 70.7661C28.4177 70.1786 28.9202 69.8186 29.5 69.6291C30.6015 69.288 31.4325 68.6058 32.2055 67.9426C32.5341 67.6394 32.824 67.5067 33.1332 67.5067C33.2298 67.5067 33.3264 67.5257 33.4424 67.5636C33.7516 67.6394 33.7903 67.772 33.7516 67.9804C33.7323 68.0941 33.713 68.2078 33.6936 68.3215C33.6743 68.511 33.6357 68.7005 33.5777 68.89C33.1139 70.4818 32.9399 72.0926 32.824 74.0254C32.708 76.1478 32.6501 77.8912 32.6501 79.5209C32.6694 82.0222 33.0172 84.3909 33.6743 86.5702C34.1575 88.124 33.9449 89.2989 32.9786 90.398ZM34.4087 65.0243C33.2685 64.5505 32.1476 64.0578 31.0267 63.5841C30.5435 63.3946 30.4083 63.1862 30.4083 63.1293C30.5049 61.4428 32.2055 59.2825 33.9835 59.2446L35.1624 59.2067C35.8774 59.1688 36.5732 59.1499 37.2689 59.1309C37.6941 59.112 38.1578 59.1499 38.5444 59.3394C38.8342 59.472 39.0855 59.5099 39.3174 59.4152C39.588 59.3204 39.7812 59.112 39.9358 58.7519L39.9938 58.6003C40.0518 58.4487 40.1097 58.2782 40.187 58.1266C40.2064 58.0697 40.2257 58.0697 40.245 58.0887C40.245 58.4866 40.3223 58.7898 40.5349 58.9983C40.7282 59.2257 41.0374 59.3204 41.4432 59.3015C41.1533 60.5332 41.5592 61.6512 41.9263 62.6556C42.0037 62.864 42.0616 63.1104 42.1003 63.3378L42.1389 63.5462L42.1583 63.622C42.139 63.641 42.1196 63.6599 42.1003 63.6789C41.6558 64.3042 40.2644 64.7969 39.2208 65.0243C39.2014 65.0243 39.1628 65.0432 39.1241 65.0432C38.7569 65.1948 38.3125 65.2706 37.6747 65.2706C35.6069 65.5738 35.1044 65.3085 35.0851 65.3085C35.0464 65.2517 34.9885 65.2138 34.9112 65.1948C34.8145 65.1759 34.6599 65.119 34.4087 65.0243ZM42.796 80.8663C41.5785 83.9172 39.8392 86.627 37.5974 88.9199C37.5781 88.9199 37.5394 88.9768 37.5394 88.9768C37.4621 89.0336 37.4042 89.1094 37.3269 89.1663C37.2496 89.261 37.0756 89.4126 37.037 89.4316C36.9403 89.3747 36.8824 89.2989 36.8437 89.2042C36.8437 89.1473 36.8437 89.1663 36.8051 89.1284C36.4379 88.3704 35.9741 86.3996 35.8195 85.7932C35.201 83.254 34.9111 80.6768 34.9884 78.1375C35.0078 77.5122 35.0078 76.8868 35.0078 76.2615C35.0078 75.2382 35.0078 74.196 35.0851 73.1727C35.2204 71.4483 35.6842 69.7617 36.09 68.4921C36.2833 67.9046 36.5152 67.772 37.3655 67.772H37.6361C38.0419 67.8099 38.4864 67.8288 38.5444 67.8857C38.583 67.9426 38.5637 68.2268 38.5637 68.4731C38.5444 68.6058 38.5444 68.7574 38.5444 68.909C38.4671 71.6567 39.53 74.0633 40.6509 76.3183C40.6702 76.3752 40.7088 76.451 40.7475 76.5078C40.8441 76.6405 40.9214 76.7731 40.9601 76.9247C41.1533 77.569 41.6171 77.967 41.9843 78.2323C43.0086 78.9713 43.2405 79.7293 42.796 80.8663ZM46.0234 73.6843L45.8495 74.0633C45.4436 74.9729 45.0185 75.9015 44.3807 76.6973C44.2068 76.9247 43.9942 77.0384 43.8009 77.0384H43.7623C43.5691 77.0195 43.3951 76.8868 43.2792 76.6594C42.2163 74.5939 41.1147 72.4526 40.6509 70.0839C40.3223 68.3215 40.6895 67.1088 41.8684 66.1802C42.081 66.0097 42.2742 65.8391 42.4675 65.6686C42.6414 65.498 42.796 65.3464 42.9893 65.1948C43.1439 65.0811 43.2791 65.0243 43.4337 65.0243C43.569 65.0243 43.7236 65.0811 43.8589 65.2138C44.3807 65.6875 44.9605 65.9718 45.7142 66.1044C46.4486 66.2371 46.8737 66.7298 46.9897 67.5825C47.0283 67.9236 47.067 68.3026 47.0863 68.6626C47.1056 68.8521 47.125 69.0606 47.125 69.2311C47.2023 70.8987 46.6225 72.4147 46.0234 73.6843ZM67.2043 90.9097L67.2816 91.2508C67.5329 92.3119 67.7648 93.2973 67.8807 94.2638C67.8807 94.7186 67.7454 95.0596 67.4942 95.2491C67.2623 95.4007 66.9531 95.4197 66.5859 95.306C65.4843 94.946 64.3248 94.548 62.8947 94.0364C62.199 93.79 61.5612 93.3921 60.7882 92.7478C60.0925 92.1414 59.3581 91.5729 58.6431 91.0044C57.213 89.8864 55.7442 88.7115 54.5074 87.3281C52.2463 84.751 50.2557 82.3823 48.7097 79.6156C48.3232 78.8955 48.0913 78.1186 47.84 77.3037C47.7047 76.7921 47.5501 76.2615 47.3375 75.7688C47.2796 75.5603 47.3955 75.314 47.4728 75.2003C48.8063 73.04 49.3088 70.5576 49.0962 67.1846C49.0382 66.275 49.1542 66.1234 50.1011 65.9149C50.449 65.8202 50.8162 65.7633 51.1834 65.6875C51.4539 65.6496 51.7438 65.5928 52.0143 65.5359C52.6714 65.4033 53.2319 65.0811 53.7923 64.759L54.0242 64.6453C54.0242 64.6453 54.1015 64.5884 54.1209 64.5884C54.1209 64.5884 54.1209 64.6011 54.1209 64.6263C54.546 66.3697 55.5896 67.772 56.6139 69.1174L56.7685 69.3448C57.3289 70.0649 57.8507 70.7471 58.2759 71.5051C58.4305 71.7704 58.6044 72.0357 58.8943 72.2062C60.5756 73.1916 61.3873 74.8024 62.2376 76.4889C64.2282 80.4494 65.7549 84.9026 67.185 90.9097H67.2043ZM73.4465 65.5359C73.4465 65.5359 73.4465 65.5549 73.4852 65.5738C74.4901 66.7108 75.4177 67.9426 76.2874 69.1553L76.8478 69.8944C78.2006 71.7515 79.4181 73.1916 80.6356 74.4234C80.8869 74.6697 80.9642 74.7834 80.9642 74.7834C80.9255 74.8592 80.5777 75.0108 80.4617 75.0677C79.3215 75.6362 78.0653 75.7688 76.5579 75.7877H76.442C71.7072 75.7877 67.5908 74.8024 63.8417 72.8126C62.4309 72.0546 60.8268 71.2019 59.532 69.9702C59.0875 69.5343 58.7977 69.0037 58.4691 68.4542C58.2759 68.151 58.1019 67.8289 57.87 67.5257C57.5028 67.014 57.1743 66.4834 56.8264 65.9528C56.6332 65.6496 56.4399 65.3654 56.2467 65.0622C55.9954 64.7021 55.8215 64.2663 55.7249 63.7736C55.6089 63.1104 55.8215 62.7503 56.4399 62.5419C56.7685 62.4282 57.097 62.3713 57.3869 62.3713C58.5271 62.3145 59.6093 61.9165 60.7689 61.1396C60.8268 61.1017 60.8848 61.0638 60.9235 61.0259L61.1361 60.8174C61.2327 60.7416 61.5999 60.5521 62.7981 60.5521C63.1266 60.5521 63.5324 60.5711 64.0156 60.609H64.0929C66.1607 60.6279 67.8614 60.8174 69.4461 61.6133C69.8713 61.8218 70.2578 62.106 70.6443 62.3903C70.8375 62.5419 71.0501 62.6935 71.282 62.864L71.3787 62.9777C72.5769 64.4558 73.2726 65.3275 73.4465 65.5359ZM102.145 52.6501C101.488 53.6544 100.58 54.4314 99.4395 54.943C95.7676 56.5537 92.4823 57.6528 89.3708 58.2971C87.8055 58.6193 86.1821 58.8088 84.5588 58.8467C82.3556 58.9225 80.2491 59.3962 78.2972 59.9079C76.5966 60.3437 74.8959 60.1732 73.4465 59.9647C71.8425 59.7563 70.2578 59.3394 68.7117 58.9604C67.8227 58.733 66.9531 58.5056 66.0641 58.3161C65.6969 58.2403 65.3104 58.1645 64.9432 58.0887C64.5181 57.9939 64.0736 57.8992 63.6484 57.8044C63.088 57.6718 62.8174 57.3686 62.7981 56.8569C62.7787 55.9853 62.6241 54.7535 61.426 53.9008C61.4066 53.8818 61.3486 53.8439 61.3486 53.806C61.3293 53.7681 61.368 53.6923 61.426 53.6355C62.1603 52.7827 62.2956 51.7216 62.3343 50.812C62.3343 50.2056 62.5855 49.7887 63.1073 49.4286C63.4745 49.1823 63.8223 48.917 64.1895 48.6517C64.692 48.2538 65.2138 47.8558 65.7356 47.5337C67.8421 46.264 70.2191 45.6766 72.287 45.2597C73.4658 45.0133 74.6447 44.8997 75.8042 44.8807C77.0217 45.0134 78.2586 45.0702 79.4568 45.1081C81.7758 45.2028 84.1722 45.2976 86.4333 46.0177C87.6315 46.3777 88.849 46.4535 90.0279 46.5104C90.569 46.5483 91.1295 46.5672 91.6706 46.6241C92.8108 46.7567 93.9703 47.0031 95.0719 47.2305C95.5164 47.3252 95.9609 47.42 96.3861 47.4958C96.5407 47.5337 96.6953 47.5905 96.8112 47.6853C98.1447 48.6328 99.5941 49.1254 101.121 49.6181C101.875 49.8645 102.377 50.2435 102.57 50.7551C102.764 51.2857 102.609 51.93 102.145 52.6501Z" fill="#282828"/>
    <path d="M78.069 34.3072C78.0497 34.762 77.7404 35.3305 77.5085 35.7095C76.4456 37.4718 75.2088 39.5184 73.798 41.3944C73.1603 42.2851 72.2713 42.8725 71.1504 43.1568C70.7639 43.2705 70.3774 43.3652 69.9908 43.46C68.812 43.7442 67.5751 44.0285 66.4349 44.5969C64.5603 45.5634 63.1689 46.5488 62.106 47.7237L62.0093 47.8374C62.0093 47.8374 61.9127 47.9511 61.8354 48.0079C61.3136 48.5385 61.3136 48.5574 60.7918 48.1027C59.3617 46.9278 58.1249 46.2456 56.8301 45.8855C56.8301 45.8666 56.8687 45.8666 56.8881 45.8476C57.2939 45.5444 57.6997 45.2412 58.0862 44.938L58.8593 44.3696C59.5937 43.82 60.1927 43.1568 60.7918 42.5125C61.1397 42.1145 61.5262 41.7166 61.9127 41.3376C62.1446 41.1291 62.3959 40.9396 62.6471 40.7501C63.1689 40.3522 63.71 39.9543 64.0192 39.3858C65.1981 37.2823 67.2466 36.5623 69.4111 35.8043L69.8169 35.6716C70.474 35.4253 71.1311 35.1979 71.7881 34.9705C73.4308 34.4209 75.1122 33.8335 76.7355 33.1513C77.064 32.9997 77.3732 32.9997 77.6052 33.1513C77.895 33.3408 78.069 33.7766 78.069 34.3072Z" fill="#EFEDE4"/>
    <path d="M102.07 52.5936C101.393 53.598 100.485 54.3749 99.3448 54.8865C95.6922 56.4973 92.3875 57.5964 89.2761 58.2406C87.7107 58.5628 86.0874 58.7523 84.464 58.7902C82.2609 58.866 80.1544 59.3397 78.2025 59.8514C76.5019 60.2872 74.8012 60.1167 73.3518 59.9082C71.7478 59.6998 70.1631 59.2829 68.617 58.9039C67.728 58.6765 66.8584 58.4491 65.9694 58.2596C65.6022 58.1838 65.235 58.108 64.8485 58.0322C64.4233 57.9374 63.9788 57.8427 63.5537 57.748C62.9932 57.6153 62.7227 57.3121 62.7033 56.8005C62.684 55.9288 62.5294 54.697 61.3312 53.8443C61.3312 53.8254 61.2539 53.7875 61.2539 53.7496C61.2539 53.7117 61.2732 53.6359 61.3312 53.579C62.0849 52.7263 62.2009 51.6651 62.2395 50.7555C62.2589 50.1491 62.5101 49.7322 63.0125 49.3722C63.3797 49.1258 63.7469 48.8605 64.0948 48.5952C64.5972 48.1973 65.119 47.7993 65.6602 47.4772C67.7473 46.2076 70.1437 45.6201 72.1922 45.2032C73.3711 44.9569 74.5693 44.8432 75.7095 44.8242C76.927 44.9569 78.1639 45.0137 79.3621 45.0516C81.6811 45.1464 84.0775 45.2411 86.3386 45.9612C87.5561 46.3213 88.7543 46.397 89.9332 46.4539C90.4743 46.4918 91.0347 46.5107 91.5759 46.5676C92.7161 46.7002 93.8756 46.9466 94.9772 47.174C95.4217 47.2687 95.8662 47.3635 96.2913 47.4393C96.4459 47.4772 96.6005 47.534 96.7165 47.6288C98.05 48.5763 99.5187 49.069 101.026 49.5617C101.78 49.808 102.282 50.187 102.476 50.6986C102.669 51.2292 102.534 51.8735 102.07 52.5936Z" fill="white"/>
    <path d="M80.8908 74.7269C80.8908 74.7269 80.4849 74.9543 80.369 75.0111C79.2288 75.5796 77.9726 75.7123 76.4652 75.7312H76.3493C71.6145 75.7312 67.4981 74.7458 63.7489 72.7561C62.3382 71.9981 60.7341 71.1454 59.4393 69.9136C58.9948 69.4778 58.7049 68.9472 58.3764 68.3977C58.2025 68.0945 58.0092 67.7723 57.7966 67.4691C57.4294 66.9575 57.0816 66.4269 56.7337 65.8963C56.5405 65.5931 56.3472 65.3088 56.1539 65.0056C55.9027 64.6456 55.7288 64.2098 55.6515 63.7171C55.5355 63.0538 55.7481 62.6938 56.3472 62.4853C56.6757 62.3716 57.0043 62.3148 57.2942 62.3148C58.4344 62.2579 59.5166 61.86 60.6762 61.083C60.7535 61.0451 60.7921 61.0072 60.8307 60.9693L60.8887 60.9125L61.0433 60.7609C61.0433 60.7609 61.5071 60.4956 62.7053 60.4956C63.0339 60.4956 63.4397 60.5146 63.9229 60.5525H64.0001C66.068 60.5714 67.7687 60.7609 69.3727 61.5568C69.7979 61.7652 70.1651 62.0495 70.5516 62.3337C70.7642 62.4853 70.9574 62.6369 71.1893 62.8075L71.2859 62.9212C72.4841 64.3993 73.1799 65.2709 73.3538 65.4794C73.3731 65.4794 73.3731 65.4983 73.3924 65.5173C74.3973 66.6543 75.325 67.886 76.1947 69.0988L76.7551 69.8378C78.1079 71.6949 79.3254 73.1351 80.5429 74.3668C80.7942 74.6132 80.8715 74.7269 80.8908 74.7269Z" fill="#F4F4F4"/>
    <path d="M67.7857 94.2071C67.7857 94.6618 67.6504 95.0029 67.3991 95.1924C67.1672 95.344 66.858 95.363 66.4908 95.2493C65.3893 94.8892 64.2297 94.4913 62.7996 93.9797C62.1039 93.7333 61.4662 93.3354 60.6931 92.6911C59.9974 92.0847 59.263 91.5162 58.5673 90.9477C57.1179 89.8297 55.6491 88.6548 54.4123 87.2714C52.1512 84.6943 50.1607 82.3256 48.6146 79.5589C48.2281 78.8388 47.9962 78.0619 47.7643 77.247C47.6097 76.7354 47.4551 76.2048 47.2618 75.7121C47.1845 75.5036 47.3005 75.2573 47.3778 75.1436C48.7306 72.9833 49.233 70.5009 49.0011 67.1279C48.9431 66.2183 49.0591 66.0667 50.0061 65.8582C50.3539 65.7635 50.7211 65.7066 51.0883 65.6308C51.3589 65.5929 51.6487 65.5361 51.9193 65.4792C52.5764 65.3466 53.1561 65.0244 53.6973 64.7023L53.9292 64.5886C53.9292 64.5886 54.0065 64.5317 54.0258 64.5317C54.0258 64.5507 54.0451 64.5507 54.0451 64.5696C54.4703 66.313 55.5139 67.7153 56.5381 69.0607L56.6927 69.2881C57.2532 70.0082 57.775 70.6904 58.2001 71.4484C58.3547 71.7137 58.5287 71.979 58.8186 72.1495C60.4999 73.1349 61.3116 74.7457 62.1619 76.4322C64.1718 80.3927 65.6791 84.8459 67.1092 90.8529L67.1866 91.194C67.4378 92.2552 67.6697 93.2406 67.7857 94.2071Z" fill="#F4F4F4"/>
    <path d="M47.0489 69.1751C47.1069 70.8427 46.5271 72.3587 45.928 73.6283L45.7541 74.0073C45.3482 74.9169 44.9231 75.8454 44.2853 76.6413C44.1307 76.8687 43.9181 76.9824 43.7055 76.9824H43.6669C43.4736 76.9635 43.2997 76.8308 43.1838 76.6034C42.1208 74.5379 41.0193 72.3966 40.5748 70.0279C40.2269 68.2655 40.5941 67.0527 41.773 66.1242C41.9855 65.9537 42.1788 65.7831 42.3721 65.6126C42.546 65.442 42.7199 65.2904 42.8939 65.1388C43.0485 65.0251 43.2031 64.9683 43.3384 64.9683C43.493 64.9683 43.6283 65.0251 43.7635 65.1578C44.2853 65.6315 44.8844 65.9157 45.6188 66.0484C46.3725 66.181 46.7783 66.6737 46.8943 67.5265C46.9523 67.8676 46.9716 68.2466 46.9909 68.6066C47.0102 68.7961 47.0296 69.0046 47.0489 69.1751Z" fill="#EFEDE4"/>
    <path d="M42.7007 80.8096C41.5025 83.8605 39.7438 86.5703 37.5021 88.8633C37.4827 88.8633 37.4441 88.9201 37.4441 88.9201C37.3668 88.977 37.3088 89.0528 37.2508 89.1096C37.1542 89.2044 36.9996 89.356 36.9609 89.3749C36.845 89.3181 36.787 89.2423 36.7677 89.1475C36.7484 89.0907 36.7677 89.1096 36.729 89.0717C36.3425 88.3137 35.8787 86.3429 35.7434 85.7365C35.1057 83.1973 34.8158 80.6201 34.8931 78.0808C34.9124 77.4555 34.9124 76.8302 34.9124 76.2048C34.9124 75.1815 34.9124 74.1393 34.9897 73.116C35.125 71.3916 35.6082 69.7051 35.9947 68.4354C36.1879 67.848 36.4198 67.7153 37.2702 67.7153H37.5407C37.9659 67.7532 38.3911 67.7722 38.449 67.829C38.4877 67.8859 38.4683 68.1701 38.4683 68.4165C38.449 68.5491 38.449 68.7007 38.449 68.8523C38.3717 71.6 39.4346 74.0066 40.5555 76.2617C40.5942 76.3185 40.6328 76.3943 40.6715 76.4512C40.7488 76.5838 40.8261 76.7165 40.8647 76.8681C41.058 77.5124 41.5218 77.9103 41.9083 78.1756C42.9326 78.9146 43.1645 79.6726 42.7007 80.8096Z" fill="white"/>
    <path d="M32.8853 90.3415C32.5761 90.7015 32.2862 91.0995 32.0157 91.4785C31.8804 91.668 31.7451 91.8575 31.6098 92.047C30.2377 93.8472 28.7883 95.4769 27.3195 96.936C27.1263 97.1255 26.8944 97.315 26.6045 97.5234C26.0827 97.8835 25.8894 97.8645 25.5029 97.3529C25.0004 96.7086 24.6913 95.9317 24.556 94.9842C24.4014 93.8851 24.3434 92.7481 24.2854 91.649C24.2468 90.8531 24.2081 90.0572 24.1308 89.2614C24.0149 87.3853 24.0535 85.4525 24.3047 83.5006C24.382 82.8374 24.4593 82.1742 24.5366 81.492C24.7492 79.4643 24.9811 77.3609 25.5609 75.3522C26.1407 73.3815 26.8557 71.9034 27.8606 70.7096C28.3245 70.1221 28.8269 69.7621 29.4067 69.5726C30.5083 69.2315 31.3393 68.5493 32.1123 67.886C32.4408 67.5828 32.7307 67.4502 33.0399 67.4502C33.1366 67.4502 33.2525 67.4691 33.3492 67.507C33.6777 67.5828 33.697 67.7155 33.6777 67.9239C33.639 68.0376 33.6197 68.1513 33.6004 68.265C33.581 68.4545 33.5424 68.644 33.4844 68.8335C33.0206 70.4253 32.8467 72.036 32.7307 73.9689C32.6148 76.0913 32.5568 77.8347 32.5568 79.4643C32.5568 81.9657 32.924 84.3344 33.5811 86.5136C34.0642 88.0675 33.8516 89.2424 32.8853 90.3415Z" fill="#F4F4F4"/>
    <path d="M29.0787 61.2352C27.9578 63.2439 28.151 64.722 29.7551 66.3327C29.8324 66.4275 29.8517 66.4654 29.871 66.4843C29.8517 66.4843 29.8323 66.5222 29.7357 66.598C29.4845 66.7686 29.1946 66.9202 28.8274 67.0528C26.3537 67.9434 24.2859 69.5352 22.5466 70.9565C19.6284 73.3631 17.1547 76.2055 15.1255 78.6501C13.8114 80.2418 12.362 81.701 10.9898 83.0275C9.92692 84.0507 9.11524 85.074 8.47749 86.1352C8.11031 86.7416 7.64648 87.0069 6.98941 86.9311C5.19212 86.7605 4.80562 86.5711 4.39978 84.9035C4.16787 83.8423 4.10989 82.7621 4.09056 81.4736C4.01326 79.7681 4.63169 77.8731 5.19214 76.414C6.68021 72.4724 9.23119 68.8341 12.9997 65.2526C16.1691 62.2585 19.3385 60.0982 22.7012 58.6012C24.943 57.6158 26.8755 57.1042 28.7694 56.9905C28.982 56.9905 29.1946 56.9905 29.4072 56.8768C29.6004 56.782 29.7744 56.7441 29.9676 56.7441C30.3348 56.7441 30.702 56.9336 31.1851 57.3695C31.4364 57.5969 31.7263 57.8432 31.7456 57.938C31.7456 58.0138 31.4171 58.3359 31.2045 58.5444C30.3348 59.3592 29.6198 60.2688 29.0787 61.2352Z" fill="white"/>
    <path d="M29.6382 54.1285C29.2517 54.4317 28.7686 54.4886 28.2468 54.5454H28.0922C27.0293 54.697 26.1403 54.9244 25.3479 55.2276C24.2657 55.6635 23.1835 56.0804 22.1012 56.4972C21.2702 56.8194 20.4199 57.1605 19.5696 57.4826C19.3956 57.5584 19.2797 57.5774 19.1831 57.5395C17.8496 56.9331 16.4001 56.8004 15.028 56.7625C13.3467 56.7246 12.0905 55.7393 11.0663 54.8297C11.0469 54.8297 11.0083 54.7918 10.989 54.7918C10.4285 54.2233 8.88249 53.56 7.64564 53.0673C7.62632 53.0673 7.58765 53.0484 7.56833 53.0484C7.08518 52.9347 6.58272 52.7831 6.1189 52.5557C5.40385 52.2146 4.63083 51.8925 3.74185 51.5703C3.47129 51.4756 3.29736 51.3619 3.25871 51.2482C3.20074 51.1345 3.25873 50.926 3.39401 50.6607C3.9158 49.6374 4.78544 48.8415 6.21554 48.0836C7.06586 47.6477 8.03216 47.4014 8.88248 47.4014H9.11438C10.1386 47.4014 10.7957 47.534 11.3755 47.8751C12.5157 48.5194 13.7719 48.7847 14.9894 49.0121L15.3566 49.0879C16.2649 49.2774 17.1345 49.6564 17.9655 50.0164C18.2168 50.1301 18.4873 50.2438 18.7386 50.3386C21.8886 51.6651 25.29 52.4041 28.8459 52.5557H29.0198C29.0198 52.5557 29.1551 52.5557 29.1937 52.5746C29.3483 52.6125 29.5223 52.5936 29.6576 52.5746C29.9281 52.5557 29.9474 52.5746 30.0054 52.6883C30.1793 53.181 30.0054 53.8443 29.6382 54.1285Z" fill="#EFEDE4"/>
    <path d="M70.3379 11.7383C70.3379 12.4015 70.2026 13.0269 69.9514 13.6143C68.7532 16.3241 67.8835 19.1855 67.0525 21.9522C66.8786 22.5017 66.724 23.0513 66.5501 23.6008C65.2552 27.7887 63.6319 32.7157 61.4867 37.3584C60.6171 39.2154 59.7861 40.8641 58.3946 42.1905C57.8922 42.6832 57.3124 43.2328 56.6553 43.6307C55.747 44.1613 54.8387 44.8056 53.9691 45.5636C53.5439 45.9236 53.0414 45.9994 52.481 46.0752C52.539 45.8668 52.6356 45.6773 52.7129 45.4878C53.4279 43.7823 53.138 42.6074 51.65 41.4515C50.7417 40.7314 49.7174 39.9924 48.384 39.8408C47.9974 39.7839 47.7075 39.4997 47.4563 38.9122C46.8379 37.491 46.6833 36.0319 46.9925 34.6106C47.6496 31.6355 49.0603 28.9257 51.1668 26.557C51.476 26.2348 51.7273 25.8748 51.9399 25.5148C52.0945 25.2874 52.2684 25.0979 52.4617 25.0031C52.5003 24.9652 52.5389 24.9273 52.5583 24.8894L54.5682 22.4638C54.6648 22.3501 54.7807 22.2365 54.8967 22.1228L57.525 19.6403C58.0661 19.0529 58.6459 18.5033 59.2256 17.9728C59.8634 17.4043 60.5011 16.7979 61.0809 16.1536C61.8153 15.3387 62.569 14.5429 63.3227 13.7659C63.6319 13.4438 63.9411 13.1027 64.2503 12.7805C64.9847 12.0036 65.5644 11.1698 66.0089 10.3171C66.4728 9.40747 67.9608 8.55473 69.0431 8.61158C69.1977 8.63053 69.275 8.68738 69.3909 8.87688C70.0287 9.84331 70.3379 10.7718 70.3379 11.7383Z" fill="white"/>
    <path d="M51.495 22.7851C50.1615 24.2442 48.4995 26.0634 47.282 28.091C45.7166 30.725 44.8469 33.018 44.557 35.2919C44.3445 36.9216 44.5764 38.4376 45.2721 39.7451C45.3108 39.802 45.3301 39.8588 45.3301 39.8967H45.2141C44.9436 39.8778 44.6923 39.9157 44.4218 39.9346C44.2865 39.9536 44.1706 39.9536 43.9773 39.9915C43.8613 40.0104 43.8033 40.0104 43.8033 40.0104C43.8033 40.0104 43.7647 39.9346 43.7647 39.7262C43.7647 38.1723 43.4941 36.6563 42.9337 35.0835C42.122 32.8285 41.8128 30.4408 41.6196 28.3942C41.5423 27.5415 41.5616 26.6319 41.6002 25.7792C41.6002 25.3244 41.6196 24.8696 41.6196 24.4148C41.6582 24.1684 41.8321 22.9746 42.0254 21.8945L42.122 21.307C42.5085 19.3173 42.8564 17.4413 44.1512 15.8684C44.9629 14.883 45.9485 14.1061 47.0887 13.5755C47.4559 13.386 48.0357 13.2534 48.7314 14.0493C49.2145 14.6177 49.6204 15.281 49.9103 16.0579C50.4127 17.3844 50.8959 18.7109 51.379 20.0563L51.7848 21.2123C52.0361 21.8566 51.9588 22.3113 51.495 22.7851Z" fill="#F4F4F4"/>
    <path d="M41.6389 39.5561C41.581 40.5984 41.0978 41.3564 40.2282 41.7922C38.2376 42.8155 38.1217 44.6157 38.2183 45.8664V45.9801C38.2376 46.1696 38.257 46.3591 38.257 46.397C38.199 46.4349 37.9478 46.4917 37.7545 46.5107C35.59 46.8897 33.9087 47.4771 32.4206 48.3867C32.0921 48.5762 31.8408 48.8036 31.6476 49.0689C31.2417 49.6753 30.6233 49.9974 29.773 50.0353C28.2076 50.1111 26.7968 49.9785 25.4827 49.5995C24.9223 49.429 24.3811 49.2774 23.8207 49.1258C22.6611 48.8036 21.463 48.4625 20.3034 48.0835C18.3129 47.4013 16.303 46.2833 14.1772 44.6726L12.979 43.7819C11.1237 42.3797 9.19117 40.9205 7.39388 39.3856C6.79479 38.8739 6.25366 38.2676 5.75119 37.5854C5.48063 37.2443 5.38401 36.96 5.46132 36.7326C5.51929 36.5052 5.77054 36.2968 6.1957 36.1073C7.95433 35.4061 9.84823 35.0082 11.8581 34.9703C11.9934 34.9703 12.1093 34.9513 12.2446 34.9513C14.3511 34.9513 16.5542 35.4061 19.1439 36.3157C19.5497 36.4673 19.9556 36.6189 20.3614 36.7516C21.463 37.1306 22.6032 37.5096 23.6661 38.0591C25.0962 38.7602 26.391 39.7267 27.6278 40.6552C27.8984 40.8637 28.1496 41.0532 28.4202 41.2427C28.6714 41.4322 28.942 41.6406 29.2125 41.8301C29.7343 42.247 30.2948 42.6639 30.8745 43.0429C31.9954 43.8009 33.213 44.1988 34.4885 44.2367H35.2035C35.7446 44.2746 36.3051 44.2746 36.8655 44.2746C37.2134 44.2746 37.4839 44.123 37.6192 43.8767C37.7545 43.6493 37.7352 43.3271 37.5419 43.0239C37.2714 42.5502 36.8075 42.2659 36.2857 42.247C33.3096 42.0765 31.3384 40.2952 29.6377 38.4002C28.4009 37.0169 27.4539 35.3872 26.5649 33.7954L26.391 33.5301C25.2315 31.5025 23.9173 29.4938 22.6611 27.5609C22.2746 26.9735 21.8881 26.3861 21.5016 25.7797C20.9798 24.9648 20.574 24.15 20.3034 23.3541C19.7237 21.5728 18.9313 19.8484 18.1583 18.1998C17.8684 17.5934 17.5785 16.968 17.308 16.3616C16.8248 15.2815 16.419 14.1635 16.0325 13.0644L15.6846 12.0411C15.2594 10.8852 14.9889 9.72923 14.699 8.42169C14.3898 7.00046 14.2352 5.48448 14.2738 3.779C14.2931 3.43791 14.3511 3.15366 14.4477 2.88837C14.583 2.60412 14.6603 2.54727 14.7183 2.52832C14.7569 2.52832 14.8536 2.52832 15.1048 2.67992C15.8199 3.11576 16.4769 3.66531 17.1147 4.17695C17.3466 4.36645 17.5785 4.55594 17.8104 4.74544C21.8881 8.02375 24.8836 10.6957 27.4732 13.4623C29.6764 15.7742 31.8795 18.3703 34.4111 21.6107C37.2134 25.2112 38.7981 29.2664 39.9963 32.7721C40.1509 33.2269 40.3055 33.6817 40.4794 34.1176C40.9046 35.2545 41.3491 36.4294 41.523 37.6422C41.6003 38.2486 41.6776 38.8929 41.6389 39.5561Z" fill="white"/>
</svg>
