<svg width="200" height="200" viewBox="0 0 200 200" fill="none" xmlns="http://www.w3.org/2000/svg">
<g id="Group 1000007949">
<rect id="Rectangle 6022" width="200" height="200" fill="#F4DFFB"/>
<g id="Group">
<g id="Group_2">
<g id="Group_3">
<path id="Vector" d="M119.837 99.2578C119.796 99.8178 119.449 100.322 118.815 100.826C118.57 101.013 118.304 101.199 118.059 101.367C117.834 101.535 117.629 101.703 117.405 101.853C116.546 102.469 115.647 102.861 114.707 103.01C111.089 103.589 108.759 103.663 107.839 103.234C106.776 102.749 106.49 100.901 106.367 100.21V99.9858C106.224 99.4071 105.856 98.1938 105.836 98.1751C105.836 98.1378 105.815 98.1191 105.815 98.1005C105.856 97.9885 106.102 97.8391 106.224 97.7458L106.367 97.6151C107.43 96.7378 108.738 95.8231 110.496 95.5991C111.109 95.5244 111.682 95.3191 112.233 95.1324C112.499 95.0204 112.765 94.9457 113.051 94.8711C113.501 94.7217 113.889 94.7217 114.196 94.8337C115.872 95.4124 117.732 96.1964 119.162 97.6525C119.673 98.1938 119.919 98.7351 119.878 99.2765L119.837 99.2578Z" fill="#FFE888"/>
<path id="Vector_2" d="M113.728 108.964C113.115 109.412 112.44 109.991 111.868 110.719C111.418 111.298 110.744 111.503 110.069 111.652C110.029 111.652 110.008 111.671 109.988 111.671L107.821 112.25C107.678 112.306 107.453 112.362 107.147 112.436H107.065C105.246 112.903 103.733 112.716 102.262 111.858C100.586 110.887 100.034 109.45 100.586 107.695C101.199 105.922 102.343 104.839 104.101 104.41C104.306 104.354 104.489 104.242 104.612 104.167C104.673 104.111 104.816 104.018 104.857 104.018C105.021 104.092 105.144 104.279 105.287 104.447C105.368 104.559 105.45 104.634 105.511 104.708C106.39 105.698 107.535 106.183 108.904 106.183H108.966C110.213 106.183 111.418 106.108 112.338 106.015C113.442 105.959 113.973 106.22 114.362 107.06C114.648 107.714 114.423 108.386 113.708 108.946L113.728 108.964Z" fill="#F4D13D"/>
<path id="Vector_3" d="M98.3545 112.362C98.3545 112.362 98.3137 112.399 98.2932 112.418C97.7822 113.09 96.1471 113.631 94.9412 113.874C94.9207 113.874 94.8798 113.893 94.8185 113.893C94.3893 114.061 93.8783 114.135 93.122 114.135C90.7102 114.471 90.1174 114.173 90.097 114.173C90.0561 114.117 89.9744 114.061 89.8926 114.042C89.77 114.023 89.6064 113.967 89.2998 113.855C87.9713 113.333 86.6632 112.81 85.355 112.287C84.7827 112.082 84.6396 111.858 84.6396 111.802C84.7623 109.973 86.7449 107.621 88.8093 107.583L90.1788 107.546C91.0168 107.509 91.8139 107.49 92.6315 107.471C93.122 107.453 93.6739 107.49 94.1236 107.695C94.471 107.845 94.7572 107.882 95.0229 107.77C95.3295 107.658 95.5543 107.434 95.7383 107.042L95.7996 106.874C95.8609 106.706 95.9427 106.519 96.0244 106.351C96.0449 106.295 96.0653 106.295 96.0858 106.314C96.0653 106.743 96.1675 107.079 96.4332 107.303C96.6581 107.546 97.026 107.658 97.4961 107.639C97.1486 108.983 97.6392 110.197 98.0684 111.279C98.1501 111.503 98.2319 111.765 98.2728 112.026L98.3137 112.25L98.3341 112.325L98.3545 112.362Z" fill="#FFE888"/>
<path id="Vector_4" d="M99.3352 101.664C97.7613 103.232 95.9013 104.259 93.8369 104.726C93.4486 104.838 93.0398 104.838 92.5901 104.856C92.3857 104.856 92.1609 104.856 91.977 104.875C91.0163 104.875 89.7286 104.8 88.5227 104.184C86.4787 103.102 86.0904 100.227 87.1533 98.4909C87.7256 97.5388 88.4409 96.9228 89.3811 96.6055C90.4236 96.2508 91.5477 96.0268 92.7332 95.9521H92.9172C93.6325 95.9521 94.2457 96.2322 94.6136 96.7922C95.3495 97.9308 96.4328 98.5469 98.0066 98.7335C98.8651 98.8082 99.5191 99.2562 99.7848 99.8909C100.03 100.507 99.8462 101.16 99.3147 101.702L99.3352 101.664Z" fill="#F4D13D"/>
<path id="Vector_5" d="M108.455 93.2463C107.29 94.5343 105.757 95.337 104.122 96.1957L103.979 96.2704C102.63 96.5504 101.547 96.4757 101.506 96.4757C100.014 96.513 98.8285 96.2517 97.7656 95.6917C96.8663 95.2437 96.1714 94.0677 96.0487 92.8356C95.9874 92.1636 96.0692 90.8756 97.316 89.9609C97.9496 89.4756 98.5423 89.1583 99.1146 88.9343L99.503 88.7663C99.503 88.7663 100.341 88.3369 101.71 88.3369C101.792 88.3369 101.894 88.3556 101.976 88.3556C102.61 88.4302 103.243 88.4676 103.836 88.4862C104.306 88.5049 104.797 88.5049 105.287 88.5423C105.574 88.5796 105.798 88.5983 105.921 88.6169C105.941 88.6356 105.982 88.6543 106.044 88.6543C106.228 88.6916 106.841 88.8783 107.577 89.4943C108.435 90.2223 108.537 90.4836 108.66 90.7636C108.66 90.801 108.68 90.8383 108.701 90.8756C109.355 91.6223 109.294 92.2943 108.455 93.2463Z" fill="#F4D13D"/>
</g>
<path id="Vector_6" d="M162.804 99.9095C162.58 99.1815 162.11 98.7148 161.353 98.4722C160.638 98.2482 159.943 98.0428 159.268 97.7442C156.897 96.7175 154.302 95.7095 151.522 95.2428C149.682 94.9255 147.781 94.6455 145.962 94.3841C144.184 94.1228 142.324 93.8614 140.525 93.5628C137.766 93.0961 134.823 92.9094 131.818 93.0028C133.453 92.0321 134.455 90.5947 135.211 89.3254C135.456 88.9334 135.681 88.5227 135.906 88.1307C136.151 87.7013 136.397 87.272 136.662 86.8613C137.746 85.088 137.603 83.5386 136.172 82.0266C135.6 81.4106 134.925 81.2052 134.087 81.3732C132.104 81.7466 130.101 82.3439 127.546 83.2586C126.729 83.5573 125.891 83.8186 125.073 84.0426C123.479 84.528 121.823 85.0133 120.29 85.9093C120.311 85.872 120.311 85.8347 120.331 85.816L120.393 85.6853C120.842 84.6026 121.292 83.5386 121.742 82.4559C122.62 80.4026 123.52 78.2745 124.337 76.1465C124.971 74.5038 125.564 72.8238 126.136 71.1998C126.851 69.2024 127.567 67.1304 128.364 65.133C129.304 62.781 129.079 60.6529 127.689 58.6556C127.342 58.1702 126.831 57.4235 125.809 57.3302C123.642 57.1622 121.926 57.7596 120.76 59.1409L120.433 59.5142C119.289 60.8583 118.103 62.2396 116.836 63.5276C115.569 64.8157 114.179 66.0663 112.85 67.2797C111.542 68.437 110.214 69.6504 108.967 70.9011C108.926 70.9384 108.885 70.9758 108.844 71.0131C108.824 71.0131 108.824 71.0318 108.803 71.0318C108.517 70.2104 108.211 69.4077 107.904 68.6051C107.638 67.9144 107.373 67.2237 107.127 66.533C106.616 65.1703 105.84 63.9196 104.818 62.837C103.591 61.5489 102.181 61.3623 100.607 62.2583C98.2975 63.5836 96.601 65.6183 95.436 68.493C94.3322 71.1811 94.3323 73.9811 94.3936 76.6318C94.414 76.9865 94.414 77.3225 94.414 77.6772C94.3118 77.4719 94.2301 77.2665 94.1279 77.0612C93.5964 75.8665 93.0241 74.6158 92.1452 73.5331C91.5934 72.8798 91.0415 72.2451 90.4692 71.5918C89.6925 70.6957 88.8954 69.7811 88.1391 68.8477C85.8294 65.8797 83.0497 63.0236 79.1458 59.5702C77.2653 57.9276 75.2214 56.2475 72.5029 54.1195C72.1963 53.8955 71.9102 53.6528 71.624 53.4288C70.786 52.7568 69.9275 52.0661 69.0078 51.4688C68.6603 51.2635 67.6588 50.6288 66.7186 51.3008C65.3082 52.3275 64.5928 53.4662 64.5111 54.7728C64.4293 56.1355 64.6133 57.5169 64.7972 58.6929C65.063 60.3169 65.5331 61.8663 66.1463 63.7143C66.6572 65.245 67.2295 66.869 68.088 68.3997C68.7829 69.5757 69.5188 70.8638 70.0093 72.2451C70.4794 73.5891 71.1539 74.9891 72.1146 76.6692C73.2796 78.7039 74.6286 80.6639 75.9367 82.5679C76.509 83.4079 77.0813 84.2293 77.6537 85.088C78.0829 85.704 78.5121 86.3947 78.9209 87.16C78.7778 87.0853 78.6348 87.0107 78.4712 86.9547C74.8943 85.48 71.5831 84.5466 68.3537 84.0986C68.1493 84.0613 67.9245 84.0426 67.6996 84.024L67.2704 83.968C63.8366 83.4826 60.7093 83.5946 57.7047 84.2666C57.2142 84.3786 56.785 84.6026 56.3966 84.92C55.3133 85.816 55.1294 87.8693 56.0287 89.2134C56.9893 90.6694 58.3997 91.7521 59.7487 92.7788L59.9735 92.9468C60.2188 93.1521 60.4845 93.3574 60.7298 93.5628C61.67 94.3094 62.6511 95.0561 63.714 95.7281C62.8759 95.5788 62.0584 95.5041 61.2203 95.5041C58.1135 95.5041 55.5586 96.7922 53.6169 99.3495C53.1059 100.022 52.9015 100.75 53.0445 101.422C53.1876 102.131 53.6986 102.766 54.5162 103.27C54.9659 103.55 55.4769 103.774 55.9878 103.998C57.1938 104.52 58.4201 105.006 59.6056 105.398C60.7502 105.79 61.7313 106.424 62.7533 107.096C63.0599 107.302 63.3869 107.507 63.6935 107.694C65.0221 108.515 66.3915 108.963 67.8632 109.056C68.0676 109.056 68.272 109.075 68.4764 109.094C68.8443 109.112 69.2122 109.15 69.5596 109.15C69.4779 109.206 69.4166 109.262 69.3348 109.318C69.0487 109.486 68.7625 109.672 68.4968 109.859C66.1258 111.558 63.8161 113.592 61.0159 116.486C58.4406 119.155 56.4784 122.123 55.2111 125.297C53.8008 128.843 53.5555 132.035 54.4753 135.022C55.2111 137.411 55.7221 138.569 59.4217 138.774C61.6087 138.886 62.9372 138.214 63.7548 136.59C64.2249 135.638 65.0016 134.798 66.1054 134.014C67.1887 133.267 68.2106 132.315 69.1508 131.195C71.0926 128.843 73.7497 125.819 76.9587 123.262C77.1018 123.15 77.2653 123.038 77.4288 122.945C77.4901 122.907 77.5719 122.851 77.6332 122.814L77.5106 123.225C77.2858 123.915 77.0609 124.625 76.877 125.334C76.1207 128.19 75.6301 131.214 75.4462 134.35C75.2214 138.158 75.2827 141.313 75.6302 144.3C75.7937 145.588 76.1411 147.249 77.3471 148.668L77.4288 148.761C77.715 149.097 78.0829 149.508 78.6961 149.508H78.7778C80.0042 149.414 81.578 149.172 82.7635 147.958C83.0701 147.641 83.3767 147.324 83.6629 147.006C83.9695 146.689 84.2556 146.372 84.5622 146.073L85.2162 145.401C86.6266 143.945 88.0778 142.433 89.2224 140.734C89.2837 140.641 89.3246 140.603 89.3246 140.585C89.345 140.603 89.3859 140.641 89.4268 140.715C89.5699 140.94 89.7538 141.126 89.9378 141.313L90.04 141.425C90.3261 141.705 90.5919 141.836 90.8984 141.854C91.1642 141.873 91.4503 141.742 91.716 141.518C92.0226 141.257 92.3292 141.014 92.6358 140.771C93.8417 139.782 95.0885 138.774 95.8652 137.337C95.9879 137.131 96.1514 136.926 96.3762 136.721C96.4375 136.646 97.7865 134.985 98.318 134.051L98.3588 133.995C98.3588 133.995 98.3997 133.902 98.4202 133.883C99.1969 132.334 99.6465 130.915 99.81 129.571C99.8305 129.385 99.8918 129.235 100.055 129.049C100.198 128.899 100.403 128.675 100.566 128.638C100.812 129.123 102.508 132.334 103.612 133.603C103.673 133.678 103.734 133.753 103.796 133.827L103.939 133.977C104.654 134.835 105.39 135.713 106.187 136.534C108.517 138.905 111.052 141.406 114.097 143.441C116.775 145.233 119.432 146.372 122.212 146.894C123.99 147.249 125.625 145.998 125.973 144.673C126.238 143.628 126.034 142.657 125.768 141.668C125.523 140.771 125.298 139.875 125.073 138.961C124.705 137.542 124.337 136.067 123.929 134.63C123.07 131.681 121.946 128.265 119.922 125.11L120.106 125.166C120.393 125.278 120.679 125.371 120.985 125.483L121.701 125.726C123.172 126.249 124.685 126.771 126.238 127.145C129.141 127.817 132.002 127.761 135.191 127.611C137.133 127.537 138.829 126.902 140.239 125.726C140.73 125.334 140.852 124.886 140.607 124.326C140.423 123.897 140.117 123.579 139.79 123.281L139.626 123.094C139.115 122.59 138.625 122.086 138.114 121.582C137.092 120.574 136.029 119.547 135.109 118.446C134.843 118.11 134.557 117.792 134.291 117.456C133.167 116.094 132.002 114.694 130.653 113.443C130.285 113.107 129.979 112.715 129.652 112.304L129.406 112.006C129.406 112.006 129.386 111.968 129.366 111.968H129.406C131.307 112.155 133.208 112.08 135.191 111.726C138.257 111.203 141.302 110.774 144.266 110.382C145.022 110.27 145.758 110.176 146.514 110.083C148.088 109.878 149.723 109.672 151.318 109.374C152.053 109.243 152.728 108.982 153.402 108.702C154.751 108.123 155.896 107.694 157.041 107.376C158.39 106.966 160.106 106.331 161.333 104.95C162.825 103.288 163.315 101.646 162.804 99.9095ZM125.543 86.1893L125.973 86.0587C126.688 85.816 127.383 85.592 128.078 85.368C129.795 84.8266 131.593 84.248 133.31 83.576C133.658 83.4266 133.985 83.4266 134.23 83.576C134.537 83.7626 134.721 84.192 134.721 84.7146C134.721 85.1626 134.353 85.7226 134.107 86.096C133.004 87.832 131.696 89.848 130.204 91.6961C129.529 92.5734 128.589 93.1521 127.403 93.4321C126.995 93.5441 126.586 93.6374 126.177 93.7308C124.91 94.0108 123.622 94.2908 122.416 94.8508C120.413 95.8028 118.962 96.7735 117.838 97.9308L117.735 98.0428L117.551 98.2108C117 98.7335 117 98.7522 116.448 98.3042C114.935 97.1468 113.627 96.4748 112.258 96.1201C112.278 96.1015 112.299 96.1015 112.319 96.0828C112.748 95.7841 113.157 95.4855 113.586 95.1868L114.404 94.6268C115.16 94.0854 115.814 93.4321 116.427 92.7974C116.816 92.4054 117.224 92.0134 117.633 91.6401C117.879 91.4347 118.144 91.2481 118.41 91.0614C118.962 90.6694 119.514 90.2774 119.861 89.7174C121.108 87.6453 123.275 86.936 125.543 86.1893ZM96.3558 101.142C97.1325 101.216 97.7252 101.608 97.9705 102.187C98.1953 102.747 98.0318 103.344 97.5413 103.83C96.1105 105.248 94.4345 106.182 92.554 106.611C92.2066 106.704 91.8387 106.704 91.4299 106.723C91.2459 106.723 91.0415 106.723 90.878 106.742C89.9991 106.742 88.834 106.667 87.7508 106.107C85.8908 105.118 85.5433 102.523 86.5039 100.936C87.0149 100.078 87.669 99.5175 88.5275 99.2189C89.4677 98.9015 90.4896 98.6962 91.5729 98.6215H91.7364C92.3905 98.6215 92.9424 98.8829 93.2694 99.3869C93.9439 100.414 94.925 100.974 96.3558 101.142ZM95.7221 93.2081C96.2944 92.7601 96.8259 92.4801 97.3573 92.2748L97.7048 92.1254C97.7048 92.1254 98.461 91.7334 99.7079 91.7334C99.7896 91.7334 99.8714 91.7521 99.9531 91.7521C100.525 91.8267 101.098 91.8454 101.65 91.8641C102.079 91.8641 102.528 91.8641 102.958 91.9201C103.223 91.9574 103.428 91.9761 103.53 91.9947C103.53 91.9947 103.591 92.0321 103.632 92.0321C103.796 92.0694 104.348 92.2374 105.022 92.7974C105.799 93.4508 105.901 93.6934 106.003 93.9548C106.003 93.9921 106.024 94.0294 106.044 94.0481C106.637 94.7201 106.575 95.3361 105.819 96.1948C104.756 97.3708 103.366 98.0988 101.895 98.8642L101.772 98.9389C100.546 99.2002 99.5648 99.1255 99.5239 99.1255C98.1749 99.1629 97.0916 98.9202 96.1309 98.4162C95.3134 98.0055 94.6797 96.9415 94.5775 95.8215C94.5162 95.2055 94.598 94.0481 95.7221 93.2081ZM99.2786 104.39C99.81 103.4 99.9735 102.523 99.81 101.627C99.7896 101.534 99.7896 101.496 99.7692 101.478H99.9531C100.076 101.478 100.219 101.496 100.341 101.459C101.139 101.459 101.261 101.534 101.486 102.168C101.65 102.598 101.772 103.046 101.874 103.494L101.977 103.904C102.018 104.016 101.997 104.11 101.813 104.184L101.629 104.259C101.302 104.408 100.975 104.558 100.648 104.632C99.6056 104.875 98.7267 105.379 97.9296 106.144L97.8274 106.238C97.5822 106.48 97.3573 106.704 97.0507 106.816C98.0522 106.144 98.8085 105.323 99.2786 104.39ZM98.6654 109.299C99.2173 107.694 100.26 106.704 101.854 106.312C102.038 106.256 102.201 106.163 102.324 106.088C102.385 106.032 102.508 105.958 102.549 105.958C102.692 106.032 102.815 106.2 102.937 106.35C103.019 106.443 103.08 106.518 103.142 106.592C103.939 107.488 104.981 107.936 106.228 107.936H106.289C107.414 107.936 108.517 107.862 109.355 107.787C110.357 107.731 110.847 107.974 111.195 108.739C111.461 109.336 111.256 109.934 110.602 110.456C110.05 110.867 109.437 111.39 108.906 112.043C108.497 112.566 107.884 112.752 107.27 112.883C107.23 112.883 107.209 112.902 107.189 112.902L105.227 113.424C105.104 113.48 104.899 113.518 104.613 113.592H104.532C102.876 114.022 101.507 113.854 100.178 113.07C98.6654 112.192 98.1544 110.886 98.6654 109.299ZM105.247 105.248C104.286 104.8 104.021 103.139 103.918 102.504V102.299C103.796 101.776 103.448 100.675 103.428 100.656C103.428 100.619 103.428 100.6 103.428 100.582C103.469 100.488 103.694 100.339 103.796 100.264L103.918 100.152C104.879 99.3495 106.065 98.5282 107.659 98.3228C108.211 98.2482 108.742 98.0615 109.233 97.8935C109.478 97.8002 109.723 97.7255 109.968 97.6508C110.377 97.5202 110.725 97.5202 111.011 97.6135C112.523 98.1362 114.22 98.8455 115.508 100.171C115.978 100.656 116.202 101.16 116.162 101.646C116.121 102.15 115.814 102.616 115.242 103.064C115.017 103.232 114.772 103.4 114.547 103.55C114.342 103.699 114.159 103.848 113.954 103.998C113.177 104.558 112.36 104.912 111.501 105.043C108.211 105.566 106.105 105.64 105.267 105.248H105.247ZM112.421 110.27C112.483 110.027 112.585 109.766 112.728 109.523C112.973 109.131 113.239 108.627 113.239 108.011C113.239 107.712 113.177 107.395 113.014 107.059C113.566 106.686 114.097 106.331 114.629 105.939C114.853 105.79 115.099 105.734 115.344 105.808C115.712 105.883 115.978 106.107 116.1 106.462C116.1 106.462 116.305 106.816 116.325 107.451C116.325 108.086 116.141 108.571 115.773 108.87C115.732 108.888 115.712 108.907 115.671 108.926C115.671 108.926 115.61 108.982 115.569 109C115.344 109.15 115.119 109.318 114.894 109.467C114.322 109.896 113.75 110.288 113.055 110.419L112.626 110.475C112.462 110.512 112.421 110.456 112.421 110.456C112.421 110.456 112.38 110.419 112.421 110.27ZM107.618 75.5492C107.618 75.5492 107.72 75.4745 107.741 75.4372L109.846 73.0478L110.214 72.7118L112.994 70.2664C113.566 69.6877 114.179 69.1464 114.792 68.6237C115.467 68.0637 116.141 67.4664 116.754 66.8317C117.531 66.029 118.328 65.245 119.125 64.4797C119.452 64.1623 119.779 63.8263 120.106 63.509C120.883 62.7436 121.496 61.9223 121.966 61.0823C122.457 60.1863 124.031 59.3462 125.155 59.4022C125.318 59.4209 125.421 59.4769 125.543 59.6636C126.218 60.6156 126.545 61.5303 126.545 62.4823C126.545 63.1356 126.402 63.7516 126.116 64.3303C124.869 66.9997 123.949 69.8184 123.07 72.5438C122.886 73.0851 122.702 73.6265 122.539 74.1678C121.169 78.2932 119.452 83.1466 117.163 87.72C116.264 89.5494 115.385 91.1734 113.913 92.4801C113.382 92.9654 112.769 93.5068 112.074 93.8988C111.113 94.4214 110.152 95.0561 109.233 95.8028C108.783 96.1575 108.252 96.2321 107.659 96.3068C107.72 96.1015 107.802 95.9148 107.904 95.7281C108.66 94.0481 108.333 92.8908 106.78 91.7521C105.799 91.0427 104.736 90.3147 103.326 90.1654C102.917 90.1094 102.61 89.8294 102.345 89.2507C101.69 87.8507 101.527 86.4133 101.854 85.0133C102.549 82.0826 104.041 79.4132 106.248 77.0798C106.576 76.7625 106.862 76.4078 107.086 76.0532C107.23 75.8292 107.414 75.6425 107.618 75.5492ZM96.1309 76.3145C96.1309 75.8665 96.1718 75.4185 96.1718 74.9705C96.2127 74.7278 96.3966 73.5518 96.601 72.4878L96.7032 71.9091C97.0916 69.9491 97.48 68.101 98.8494 66.5517C99.7079 65.581 100.75 64.8157 101.956 64.293C102.345 64.1063 102.958 63.9756 103.694 64.7597C104.205 65.3197 104.634 65.973 104.94 66.7384C105.472 68.045 105.983 69.3517 106.494 70.6771L106.923 71.8158C107.189 72.4504 107.086 72.8984 106.616 73.3651C105.206 74.8025 103.448 76.5945 102.161 78.5919C100.505 81.1866 99.5852 83.4453 99.2786 85.6853C99.0538 87.2907 99.299 88.784 100.035 90.0721C100.055 90.1281 100.096 90.1841 100.096 90.2214H99.9735C99.6874 90.2027 99.4217 90.2401 99.1151 90.2587C98.9925 90.2774 98.8698 90.2774 98.6654 90.3147C98.5223 90.3334 98.4815 90.3334 98.4815 90.3334C98.4815 90.3334 98.4406 90.2587 98.4406 90.0534C98.4406 88.5227 98.1544 87.0293 97.5617 85.48C96.7032 83.2586 96.3762 80.9066 96.1514 78.8905C96.0696 78.0505 96.1105 77.1545 96.1514 76.3145H96.1309ZM59.9735 89.7174C59.3399 89.2134 58.7471 88.616 58.2362 87.944C57.95 87.608 57.8478 87.328 57.9296 87.104C57.9909 86.88 58.2566 86.6747 58.7063 86.488C60.5663 85.7973 62.5693 85.4053 64.695 85.368C64.8381 85.368 64.9608 85.3493 65.0834 85.3493C67.3113 85.3493 69.6618 85.7973 72.3803 86.6933C72.8299 86.8427 73.2592 86.992 73.6884 87.1227C74.8534 87.496 76.0594 87.8694 77.1836 88.4107C78.6961 89.1014 80.0655 90.0534 81.3736 90.9681C81.6598 91.1734 81.9255 91.3601 82.2117 91.5467C82.4774 91.7334 82.7635 91.9387 83.0292 92.1254C83.6015 92.5361 84.1943 92.9468 84.8075 93.3201C85.993 94.0668 87.2602 94.4588 88.6092 94.4961H89.3859C89.9582 94.5335 90.551 94.5335 91.1437 94.5335C91.4912 94.5335 91.7978 94.3841 91.9408 94.1414C92.0839 93.9174 92.0635 93.6001 91.8591 93.3014C91.5525 92.8348 91.0824 92.5548 90.5305 92.5361C87.3828 92.3681 85.298 90.6134 83.4993 88.7467C82.1708 87.384 81.1897 85.7787 80.229 84.2106L80.0655 83.9493C78.8392 81.9519 77.4493 79.9732 76.1207 78.0692C75.7119 77.4905 75.3031 76.9118 74.8943 76.3145C74.3425 75.5118 73.9132 74.7091 73.6271 73.9251C73.0139 72.1704 72.1759 70.4717 71.3583 68.8477C71.0517 68.2504 70.7451 67.6344 70.459 67.037C69.948 65.973 69.5188 64.8717 69.11 63.789L68.742 62.781C68.2924 61.6423 68.0062 60.5036 67.6996 59.2156C67.3522 57.8156 67.2091 56.3222 67.25 54.6422C67.25 54.3062 67.3113 54.0262 67.4339 53.7648C67.5566 53.4848 67.6588 53.4288 67.7201 53.4102C67.7609 53.4102 67.8631 53.4102 68.1289 53.5595C68.8647 53.9888 69.5801 54.5302 70.2546 55.0342C70.4998 55.2208 70.7451 55.4075 70.97 55.5942C75.3031 58.8236 78.4712 61.4556 81.2101 64.181C83.5402 66.4584 85.8499 69.0157 88.5479 72.2078C91.5116 75.7545 93.1876 79.7492 94.4549 83.2026C94.6184 83.6506 94.7819 84.0986 94.9659 84.528C95.4155 85.648 95.8857 86.8053 96.0696 88C96.1514 88.5974 96.2331 89.232 96.1923 89.8854C96.1309 90.9121 95.6199 91.6587 94.7002 92.0881C92.5949 93.0961 92.4723 94.8695 92.5745 96.1015V96.2135C92.5949 96.4001 92.6153 96.5868 92.5949 96.6242C92.554 96.6615 92.2883 96.7175 92.0839 96.7362C89.7947 97.1095 87.996 97.6882 86.4426 98.5842C86.0747 98.7708 85.8295 98.9949 85.6251 99.2562C85.1958 99.8535 84.5418 100.171 83.6424 100.208C81.9868 100.283 80.4947 100.152 79.1049 99.7789C78.5121 99.6109 77.9398 99.4615 77.3471 99.3122C76.1207 98.9949 74.8534 98.6588 73.6271 98.2855C71.5014 97.6135 69.3961 96.5122 67.1478 94.9255L65.8805 94.0481C63.9183 92.6668 61.8744 91.2294 59.9735 89.7174ZM68.0471 106.835C66.2689 106.798 64.9403 105.827 63.8366 104.931C63.8366 104.931 63.7957 104.894 63.7753 104.894C63.1825 104.334 61.5474 103.68 60.2392 103.195C60.2188 103.195 60.1779 103.176 60.1575 103.176C59.626 103.064 59.1151 102.915 58.6041 102.691C57.8683 102.355 57.0507 102.038 56.1105 101.72C55.8243 101.627 55.6404 101.515 55.5995 101.403C55.5382 101.291 55.5995 101.086 55.7425 100.824C56.2944 99.8162 57.2142 99.0322 58.7267 98.2855C59.6261 97.8562 60.648 97.6135 61.5474 97.6135H61.7926C62.8555 97.6135 63.5709 97.7442 64.1841 98.0802C65.39 98.7148 66.7185 98.9762 68.0062 99.2002L68.3946 99.2749C69.3552 99.4615 70.275 99.8349 71.1539 100.19C71.4196 100.302 71.7058 100.414 71.9715 100.507C75.3031 101.814 78.9005 102.542 82.6613 102.691H82.8453C82.8453 102.691 82.9884 102.691 83.0292 102.71C83.1928 102.747 83.3563 102.728 83.5198 102.71C83.806 102.691 83.8264 102.71 83.8673 102.822C84.0717 103.307 83.8672 103.96 83.4993 104.24C83.0905 104.539 82.5796 104.595 82.0277 104.651H81.8642C80.74 104.8 79.7998 105.024 78.9618 105.323C77.8172 105.752 76.6726 106.163 75.528 106.574C74.6286 106.891 73.7497 107.227 72.8504 107.544C72.646 107.619 72.5438 107.638 72.4416 107.6C71.0108 107.003 69.4779 106.872 68.0471 106.835ZM75.9981 120.817C72.9117 123.187 70.2954 125.987 68.1289 128.395C66.7594 129.963 65.2265 131.401 63.7753 132.707C62.6511 133.715 61.7722 134.723 61.1181 135.769C60.7298 136.366 60.2392 136.627 59.5443 136.553C57.6434 136.385 57.2142 136.198 56.8054 134.555C56.5601 133.51 56.4988 132.446 56.4784 131.177C56.3966 129.497 57.0507 127.63 57.6434 126.193C59.1968 122.31 61.9153 118.726 65.901 115.198C69.253 112.248 72.6051 110.12 76.1616 108.646C78.5326 107.675 80.5765 107.171 82.5796 107.059C82.784 107.059 83.0292 107.059 83.2541 106.947C83.4585 106.854 83.6424 106.816 83.8468 106.816C84.2352 106.816 84.6235 107.003 85.1345 107.432C85.4002 107.656 85.7068 107.899 85.7068 107.992C85.7068 108.086 85.3798 108.384 85.1345 108.59C84.2352 109.392 83.4789 110.288 82.9066 111.24C81.7211 113.219 81.9255 114.675 83.6015 116.262C83.7037 116.355 83.7242 116.392 83.7446 116.411C83.7242 116.411 83.7037 116.448 83.6015 116.523C83.3358 116.691 83.0292 116.84 82.6409 116.971C80.0246 117.848 77.8376 119.417 75.9981 120.817ZM86.9332 139.913C86.6062 140.267 86.2995 140.659 86.0134 141.033C85.8703 141.22 85.7273 141.406 85.5637 141.593C84.1125 143.366 82.6 144.972 81.0466 146.409C80.8422 146.596 80.597 146.782 80.2904 146.988C79.7181 147.342 79.5341 147.324 79.1253 146.82C78.5939 146.185 78.2669 145.42 78.1238 144.486C77.9398 143.404 77.8989 142.284 77.8376 141.201C77.7967 140.417 77.7559 139.633 77.6741 138.849C77.531 137.001 77.5923 135.097 77.8581 133.174C77.9398 132.521 78.0216 131.867 78.1033 131.195C78.3282 129.198 78.5734 127.126 79.1866 125.147C79.7998 123.206 80.5561 121.75 81.6189 120.574C82.1095 119.995 82.6409 119.641 83.2541 119.454C84.4191 119.118 85.298 118.446 86.1156 117.792C86.4631 117.494 86.7697 117.363 87.0967 117.363C87.1989 117.363 87.3011 117.382 87.4237 117.419C87.7507 117.494 87.7916 117.624 87.7508 117.83C87.7303 117.942 87.7099 118.054 87.6894 118.166C87.669 118.352 87.6281 118.539 87.5668 118.726C87.0763 120.294 86.8923 121.881 86.7697 123.785C86.647 125.875 86.5857 127.593 86.5857 129.198C86.6062 131.662 86.9741 133.995 87.669 136.142C88.18 137.673 87.9552 138.83 86.9332 139.913ZM88.4457 114.918C87.2398 114.451 86.0543 113.966 84.8688 113.499C84.3578 113.312 84.2147 113.107 84.2147 113.051C84.3169 111.39 86.1156 109.262 87.996 109.224L89.2428 109.187C89.9991 109.15 90.7349 109.131 91.4707 109.112C91.9204 109.094 92.4109 109.131 92.8197 109.318C93.1263 109.448 93.3921 109.486 93.6373 109.392C93.9235 109.299 94.1279 109.094 94.2914 108.739L94.3527 108.59C94.414 108.44 94.4753 108.272 94.5571 108.123C94.5775 108.067 94.598 108.067 94.6184 108.086C94.6184 108.478 94.7002 108.776 94.925 108.982C95.1294 109.206 95.4564 109.299 95.8856 109.28C95.5791 110.494 96.0083 111.595 96.3966 112.584C96.4784 112.79 96.5397 113.032 96.5806 113.256L96.6215 113.462L96.6419 113.536C96.6215 113.555 96.6011 113.574 96.5806 113.592C96.1105 114.208 94.6389 114.694 93.5351 114.918C93.5147 114.918 93.4738 114.936 93.4329 114.936C93.0446 115.086 92.5745 115.16 91.9 115.16C89.7129 115.459 89.1815 115.198 89.1611 115.198C89.1202 115.142 89.0589 115.104 88.9771 115.086C88.8749 115.067 88.7114 115.011 88.4457 114.918ZM97.3164 130.523C96.0288 133.529 94.1892 136.198 91.8182 138.457C91.7978 138.457 91.7569 138.513 91.7569 138.513C91.6751 138.569 91.6138 138.643 91.5321 138.699C91.4503 138.793 91.2663 138.942 91.2255 138.961C91.1233 138.905 91.062 138.83 91.0211 138.737C91.0211 138.681 91.0211 138.699 90.9802 138.662C90.5918 137.915 90.1013 135.974 89.9378 135.377C89.2837 132.875 88.9771 130.337 89.0589 127.835C89.0793 127.219 89.0793 126.603 89.0793 125.987C89.0793 124.979 89.0793 123.953 89.1611 122.945C89.3042 121.246 89.7947 119.585 90.2239 118.334C90.4283 117.755 90.6736 117.624 91.5729 117.624H91.8591C92.2883 117.662 92.7584 117.68 92.8197 117.736C92.8606 117.792 92.8402 118.072 92.8402 118.315C92.8197 118.446 92.8197 118.595 92.8197 118.744C92.738 121.451 93.8622 123.822 95.0477 126.043C95.0681 126.099 95.1089 126.174 95.1498 126.23C95.252 126.361 95.3338 126.491 95.3747 126.641C95.5791 127.275 96.0696 127.667 96.458 127.929C97.5412 128.657 97.7865 129.403 97.3164 130.523ZM100.73 123.449L100.546 123.822C100.117 124.718 99.667 125.633 98.9925 126.417C98.8085 126.641 98.5837 126.753 98.3793 126.753H98.3384C98.134 126.734 97.9501 126.603 97.8274 126.379C96.7033 124.345 95.5382 122.235 95.0477 119.902C94.7002 118.166 95.0885 116.971 96.3353 116.056C96.5602 115.888 96.7645 115.72 96.9689 115.552C97.1529 115.384 97.3164 115.235 97.5208 115.086C97.6843 114.974 97.8274 114.918 97.9909 114.918C98.134 114.918 98.2975 114.974 98.4406 115.104C98.9924 115.571 99.6056 115.851 100.403 115.982C101.179 116.112 101.629 116.598 101.752 117.438C101.793 117.774 101.834 118.147 101.854 118.502C101.874 118.688 101.895 118.894 101.895 119.062C101.977 120.705 101.363 122.198 100.73 123.449ZM123.131 140.417L123.213 140.753C123.479 141.798 123.724 142.769 123.847 143.721C123.847 144.169 123.704 144.505 123.438 144.692C123.193 144.841 122.866 144.86 122.477 144.748C121.312 144.393 120.086 144.001 118.573 143.497C117.838 143.254 117.163 142.862 116.346 142.228C115.61 141.63 114.833 141.07 114.077 140.51C112.564 139.409 111.011 138.251 109.703 136.889C107.311 134.35 105.206 132.017 103.571 129.291C103.162 128.582 102.917 127.817 102.651 127.014C102.508 126.51 102.345 125.987 102.12 125.502C102.058 125.297 102.181 125.054 102.263 124.942C103.673 122.814 104.205 120.369 103.98 117.046C103.918 116.15 104.041 116 105.043 115.795C105.41 115.702 105.799 115.646 106.187 115.571C106.473 115.534 106.78 115.478 107.066 115.422C107.761 115.291 108.354 114.974 108.946 114.656L109.192 114.544C109.192 114.544 109.274 114.488 109.294 114.488C109.294 114.488 109.294 114.501 109.294 114.526C109.744 116.243 110.847 117.624 111.931 118.95L112.094 119.174C112.687 119.883 113.239 120.555 113.688 121.302C113.852 121.563 114.036 121.825 114.342 121.993C116.121 122.963 116.979 124.55 117.879 126.211C119.984 130.113 121.599 134.499 123.111 140.417H123.131ZM129.733 115.422C129.733 115.422 129.733 115.44 129.774 115.459C130.837 116.579 131.818 117.792 132.738 118.987L133.331 119.715C134.762 121.545 136.049 122.963 137.337 124.177C137.603 124.419 137.684 124.531 137.684 124.531C137.644 124.606 137.276 124.755 137.153 124.811C135.947 125.371 134.618 125.502 133.024 125.521H132.902C127.894 125.521 123.54 124.55 119.575 122.59C118.083 121.843 116.386 121.003 115.017 119.79C114.547 119.36 114.24 118.838 113.893 118.296C113.688 117.998 113.504 117.68 113.259 117.382C112.871 116.878 112.523 116.355 112.155 115.832C111.951 115.534 111.747 115.254 111.542 114.955C111.277 114.6 111.093 114.171 110.99 113.686C110.868 113.032 111.093 112.678 111.747 112.472C112.094 112.36 112.442 112.304 112.748 112.304C113.954 112.248 115.099 111.856 116.325 111.091C116.386 111.054 116.448 111.016 116.489 110.979L116.713 110.774C116.816 110.699 117.204 110.512 118.471 110.512C118.819 110.512 119.248 110.531 119.759 110.568H119.841C122.028 110.587 123.826 110.774 125.502 111.558C125.952 111.763 126.361 112.043 126.77 112.323C126.974 112.472 127.199 112.622 127.444 112.79L127.546 112.902C128.814 114.358 129.549 115.216 129.733 115.422ZM160.086 102.728C159.391 103.718 158.43 104.483 157.225 104.987C153.341 106.574 149.866 107.656 146.576 108.291C144.92 108.608 143.203 108.795 141.486 108.832C139.156 108.907 136.928 109.374 134.864 109.878C133.065 110.307 131.266 110.139 129.733 109.934C128.037 109.728 126.361 109.318 124.726 108.944C123.786 108.72 122.866 108.496 121.926 108.31C121.537 108.235 121.128 108.16 120.74 108.086C120.29 107.992 119.82 107.899 119.371 107.806C118.778 107.675 118.492 107.376 118.471 106.872C118.451 106.014 118.287 104.8 117.02 103.96C117 103.942 116.938 103.904 116.938 103.867C116.918 103.83 116.959 103.755 117.02 103.699C117.797 102.859 117.94 101.814 117.981 100.918C117.981 100.32 118.246 99.9095 118.798 99.5549C119.187 99.3122 119.555 99.0509 119.943 98.7895C120.474 98.3975 121.026 98.0055 121.578 97.6882C123.806 96.4375 126.32 95.8588 128.507 95.4481C129.754 95.2055 131.001 95.0935 132.227 95.0748C133.515 95.2055 134.823 95.2615 136.09 95.2988C138.543 95.3921 141.077 95.4855 143.469 96.1948C144.736 96.5495 146.024 96.6241 147.27 96.6802C147.843 96.7175 148.436 96.7362 149.008 96.7922C150.214 96.9228 151.44 97.1655 152.605 97.3895C153.075 97.4828 153.545 97.5762 153.995 97.6508C154.159 97.6882 154.322 97.7442 154.445 97.8375C155.855 98.7709 157.388 99.2562 159.003 99.7415C159.8 99.9842 160.331 100.358 160.536 100.862C160.74 101.384 160.577 102.019 160.086 102.728Z" fill="#282828"/>
</g>
<g id="Group_4">
<path id="Vector_7" d="M134.612 84.6589C134.592 85.1069 134.265 85.6669 134.02 86.0402C132.895 87.7763 131.587 89.7923 130.095 91.6403C129.421 92.5177 128.481 93.0964 127.295 93.3764C126.886 93.4884 126.477 93.5817 126.069 93.675C124.822 93.955 123.514 94.235 122.308 94.795C120.325 95.7471 118.854 96.7177 117.729 97.8751L117.627 97.9871C117.627 97.9871 117.525 98.0991 117.443 98.1551C116.891 98.6778 116.891 98.6964 116.34 98.2484C114.827 97.0911 113.519 96.4191 112.149 96.0644C112.149 96.0457 112.19 96.0457 112.211 96.0271C112.64 95.7284 113.069 95.4297 113.478 95.131L114.296 94.571C115.072 94.0297 115.706 93.3764 116.34 92.7417C116.707 92.3497 117.116 91.9577 117.525 91.5843C117.77 91.379 118.036 91.1923 118.302 91.0057C118.854 90.6136 119.426 90.2216 119.753 89.6616C121 87.5896 123.166 86.8803 125.455 86.1336L125.885 86.0029C126.58 85.7602 127.275 85.5362 127.97 85.3122C129.707 84.7709 131.485 84.1922 133.202 83.5202C133.55 83.3709 133.877 83.3709 134.122 83.5202C134.428 83.7069 134.612 84.1362 134.612 84.6589Z" fill="#EFEDE4"/>
<path id="Vector_8" d="M159.998 102.672C159.283 103.661 158.322 104.427 157.116 104.931C153.253 106.517 149.758 107.6 146.467 108.235C144.812 108.552 143.095 108.739 141.378 108.776C139.048 108.851 136.82 109.317 134.755 109.821C132.957 110.251 131.158 110.083 129.625 109.877C127.929 109.672 126.253 109.261 124.618 108.888C123.677 108.664 122.758 108.44 121.817 108.253C121.429 108.179 121.041 108.104 120.632 108.029C120.182 107.936 119.712 107.843 119.262 107.749C118.67 107.619 118.383 107.32 118.363 106.816C118.343 105.957 118.179 104.744 116.912 103.904C116.912 103.885 116.83 103.848 116.83 103.811C116.83 103.773 116.851 103.699 116.912 103.643C117.709 102.803 117.832 101.757 117.873 100.861C117.893 100.264 118.159 99.8533 118.69 99.4986C119.078 99.256 119.467 98.9946 119.835 98.7333C120.366 98.3413 120.918 97.9493 121.49 97.6319C123.698 96.3812 126.232 95.8026 128.399 95.3919C129.646 95.1492 130.913 95.0372 132.119 95.0186C133.407 95.1492 134.715 95.2052 135.982 95.2426C138.435 95.3359 140.969 95.4292 143.361 96.1386C144.648 96.4932 145.915 96.5679 147.162 96.6239C147.735 96.6612 148.327 96.6799 148.9 96.7359C150.106 96.8666 151.332 97.1093 152.497 97.3333C152.967 97.4266 153.437 97.5199 153.887 97.5946C154.05 97.6319 154.214 97.6879 154.337 97.7813C155.747 98.7146 157.3 99.2 158.895 99.6853C159.692 99.928 160.223 100.301 160.427 100.805C160.632 101.328 160.489 101.963 159.998 102.672Z" fill="white"/>
<path id="Vector_9" d="M137.6 124.475C137.6 124.475 137.171 124.699 137.048 124.755C135.842 125.315 134.514 125.446 132.919 125.464H132.797C127.789 125.464 123.436 124.494 119.47 122.534C117.978 121.787 116.282 120.947 114.912 119.734C114.442 119.304 114.136 118.782 113.788 118.24C113.604 117.942 113.4 117.624 113.175 117.325C112.787 116.821 112.419 116.299 112.051 115.776C111.846 115.477 111.642 115.197 111.438 114.899C111.172 114.544 110.988 114.115 110.906 113.629C110.784 112.976 111.008 112.621 111.642 112.416C111.989 112.304 112.337 112.248 112.644 112.248C113.849 112.192 114.994 111.8 116.22 111.035C116.302 110.997 116.343 110.96 116.384 110.923L116.445 110.867L116.609 110.717C116.609 110.717 117.099 110.456 118.367 110.456C118.714 110.456 119.143 110.475 119.654 110.512H119.736C121.923 110.531 123.722 110.717 125.418 111.501C125.868 111.707 126.256 111.987 126.665 112.267C126.89 112.416 127.094 112.565 127.339 112.733L127.442 112.845C128.709 114.301 129.445 115.16 129.629 115.365C129.649 115.365 129.649 115.384 129.67 115.403C130.732 116.523 131.714 117.736 132.633 118.931L133.226 119.659C134.657 121.488 135.945 122.907 137.232 124.12C137.498 124.363 137.58 124.475 137.6 124.475Z" fill="#F4F4F4"/>
<path id="Vector_10" d="M123.739 143.665C123.739 144.113 123.595 144.449 123.33 144.636C123.084 144.785 122.757 144.804 122.369 144.692C121.204 144.337 119.978 143.945 118.465 143.441C117.729 143.198 117.055 142.806 116.237 142.172C115.501 141.574 114.725 141.014 113.989 140.454C112.456 139.353 110.903 138.196 109.594 136.833C107.203 134.294 105.098 131.961 103.463 129.236C103.054 128.526 102.809 127.761 102.563 126.958C102.4 126.454 102.236 125.931 102.032 125.446C101.95 125.241 102.073 124.998 102.154 124.886C103.585 122.758 104.117 120.313 103.871 116.99C103.81 116.094 103.933 115.945 104.934 115.739C105.302 115.646 105.691 115.59 106.079 115.515C106.365 115.478 106.672 115.422 106.958 115.366C107.653 115.235 108.266 114.918 108.838 114.601L109.083 114.489C109.083 114.489 109.165 114.433 109.186 114.433C109.186 114.451 109.206 114.451 109.206 114.47C109.656 116.187 110.76 117.569 111.843 118.894L112.006 119.118C112.599 119.827 113.151 120.499 113.601 121.246C113.764 121.507 113.948 121.769 114.255 121.937C116.033 122.907 116.891 124.494 117.791 126.155C119.916 130.057 121.511 134.444 123.023 140.361L123.105 140.697C123.371 141.742 123.616 142.713 123.739 143.665Z" fill="#F4F4F4"/>
<path id="Vector_11" d="M101.811 119.006C101.872 120.649 101.259 122.142 100.626 123.393L100.442 123.766C100.012 124.662 99.5627 125.577 98.8882 126.361C98.7247 126.585 98.4999 126.697 98.275 126.697H98.2342C98.0298 126.678 97.8458 126.548 97.7232 126.324C96.599 124.289 95.434 122.18 94.9639 119.846C94.5959 118.11 94.9843 116.916 96.2311 116.001C96.4559 115.833 96.6603 115.665 96.8647 115.497C97.0487 115.329 97.2326 115.18 97.4166 115.03C97.5801 114.918 97.7436 114.862 97.8867 114.862C98.0502 114.862 98.1933 114.918 98.3364 115.049C98.8883 115.516 99.5219 115.796 100.299 115.926C101.096 116.057 101.525 116.542 101.648 117.382C101.709 117.718 101.729 118.092 101.75 118.446C101.77 118.633 101.791 118.838 101.811 119.006Z" fill="#EFEDE4"/>
<path id="Vector_12" d="M97.208 130.467C95.9407 133.473 94.0808 136.142 91.7098 138.401C91.6893 138.401 91.6485 138.457 91.6485 138.457C91.5667 138.513 91.5054 138.587 91.4441 138.643C91.3419 138.737 91.1783 138.886 91.1375 138.905C91.0148 138.849 90.9535 138.774 90.9331 138.681C90.9126 138.625 90.9331 138.643 90.8922 138.606C90.4834 137.859 89.9929 135.918 89.8498 135.321C89.1753 132.819 88.8687 130.281 88.9504 127.779C88.9709 127.163 88.9709 126.547 88.9709 125.931C88.9709 124.923 88.9709 123.896 89.0526 122.888C89.1957 121.19 89.7067 119.528 90.1155 118.278C90.3199 117.699 90.5652 117.568 91.4645 117.568H91.7507C92.2003 117.606 92.65 117.624 92.7113 117.68C92.7522 117.736 92.7317 118.016 92.7317 118.259C92.7113 118.39 92.7113 118.539 92.7113 118.688C92.6296 121.395 93.7537 123.766 94.9392 125.987C94.9801 126.043 95.021 126.118 95.0618 126.174C95.1436 126.304 95.2254 126.435 95.2663 126.585C95.4706 127.219 95.9612 127.611 96.37 127.873C97.4533 128.601 97.6985 129.347 97.208 130.467Z" fill="white"/>
<path id="Vector_13" d="M86.8232 139.856C86.4961 140.211 86.1896 140.603 85.9034 140.976C85.7603 141.163 85.6172 141.35 85.4742 141.536C84.023 143.31 82.49 144.915 80.9366 146.352C80.7322 146.539 80.4869 146.726 80.1803 146.931C79.6285 147.286 79.4241 147.267 79.0153 146.763C78.4839 146.128 78.1568 145.363 78.0138 144.43C77.8503 143.347 77.7889 142.227 77.7276 141.144C77.6867 140.36 77.6459 139.576 77.5641 138.792C77.4415 136.944 77.4823 135.04 77.748 133.118C77.8298 132.464 77.9116 131.811 77.9933 131.139C78.2181 129.141 78.4634 127.069 79.0766 125.091C79.6898 123.149 80.446 121.693 81.5089 120.517C81.9994 119.939 82.5309 119.584 83.1441 119.397C84.3091 119.061 85.188 118.389 86.0056 117.736C86.353 117.437 86.6597 117.307 86.9867 117.307C87.0889 117.307 87.2115 117.325 87.3137 117.363C87.6612 117.437 87.6816 117.568 87.6612 117.773C87.6203 117.885 87.5999 117.997 87.5794 118.109C87.559 118.296 87.5181 118.483 87.4568 118.669C86.9662 120.237 86.7823 121.824 86.6597 123.728C86.537 125.819 86.4757 127.536 86.4757 129.141C86.4757 131.606 86.8641 133.939 87.559 136.086C88.07 137.616 87.8451 138.774 86.8232 139.856Z" fill="#F4F4F4"/>
<path id="Vector_14" d="M82.8024 111.185C81.6169 113.164 81.8213 114.62 83.5178 116.206C83.5995 116.3 83.62 116.337 83.6404 116.356C83.62 116.356 83.5995 116.393 83.4973 116.468C83.2316 116.636 82.925 116.785 82.5367 116.916C79.9204 117.793 77.7334 119.361 75.8938 120.761C72.8075 123.132 70.1912 125.932 68.0451 128.34C66.6552 129.908 65.1222 131.345 63.671 132.652C62.5469 133.66 61.6884 134.668 61.0139 135.713C60.6256 136.311 60.135 136.572 59.4401 136.497C57.5392 136.329 57.1304 136.143 56.7012 134.5C56.4559 133.454 56.3946 132.39 56.3741 131.121C56.2924 129.441 56.9465 127.574 57.5392 126.137C59.113 122.254 61.811 118.67 65.7967 115.142C69.1488 112.193 72.5009 110.065 76.0574 108.59C78.4283 107.619 80.4723 107.115 82.4754 107.003C82.7002 107.003 82.925 107.003 83.1499 106.891C83.3543 106.798 83.5382 106.761 83.7426 106.761C84.131 106.761 84.5193 106.947 85.0303 107.377C85.296 107.601 85.6026 107.843 85.623 107.937C85.623 108.011 85.2756 108.329 85.0507 108.534C84.131 109.337 83.3747 110.233 82.8024 111.185Z" fill="white"/>
<path id="Vector_15" d="M83.3923 104.185C82.9835 104.484 82.4725 104.54 81.9206 104.596H81.7571C80.633 104.745 79.6927 104.969 78.8547 105.268C77.7101 105.697 76.5655 106.108 75.4209 106.519C74.542 106.836 73.6427 107.172 72.7433 107.489C72.5594 107.564 72.4368 107.583 72.3346 107.545C70.9242 106.948 69.3913 106.817 67.9401 106.78C66.1618 106.743 64.8332 105.772 63.75 104.876C63.7295 104.876 63.6886 104.839 63.6682 104.839C63.0755 104.279 61.4403 103.625 60.1322 103.14C60.1118 103.14 60.0709 103.121 60.0504 103.121C59.5394 103.009 59.008 102.86 58.5175 102.636C57.7612 102.3 56.9436 101.983 56.0034 101.665C55.7173 101.572 55.5333 101.46 55.4924 101.348C55.4311 101.236 55.4924 101.031 55.6355 100.769C56.1874 99.7613 57.1071 98.9773 58.6197 98.2306C59.519 97.8013 60.541 97.5586 61.4403 97.5586H61.6856C62.7689 97.5586 63.4638 97.6893 64.077 98.0253C65.2829 98.6599 66.6115 98.9213 67.8992 99.1453L68.2875 99.22C69.2482 99.4066 70.168 99.78 71.0469 100.135C71.3126 100.247 71.5987 100.359 71.8644 100.452C75.1961 101.759 78.7934 102.487 82.5543 102.636H82.7382C82.7382 102.636 82.8813 102.636 82.9222 102.655C83.0857 102.692 83.2697 102.673 83.4127 102.655C83.6989 102.636 83.7193 102.655 83.7806 102.767C83.9646 103.252 83.7806 103.905 83.3923 104.185Z" fill="#EFEDE4"/>
<path id="Vector_16" d="M126.437 62.4264C126.437 63.0798 126.294 63.6958 126.029 64.2745C124.761 66.9439 123.842 69.7626 122.963 72.4879C122.779 73.0293 122.615 73.5706 122.431 74.112C121.062 78.2374 119.345 83.0908 117.076 87.6642C116.156 89.4935 115.277 91.1176 113.806 92.4242C113.274 92.9096 112.661 93.4509 111.966 93.8429C111.006 94.3656 110.045 95.0003 109.125 95.747C108.676 96.1016 108.144 96.1763 107.551 96.251C107.613 96.0456 107.715 95.859 107.797 95.6723C108.553 93.9923 108.246 92.8349 106.672 91.6962C105.712 90.9869 104.628 90.2589 103.218 90.1095C102.809 90.0535 102.503 89.7735 102.237 89.1949C101.583 87.7948 101.419 86.3575 101.747 84.9575C102.441 82.0268 103.934 79.3574 106.161 77.024C106.488 76.7067 106.754 76.352 106.979 75.9973C107.143 75.7733 107.327 75.5867 107.531 75.4933C107.572 75.456 107.613 75.4187 107.633 75.3813L109.759 72.9919C109.861 72.8799 109.984 72.7679 110.106 72.6559L112.886 70.2106C113.458 69.6319 114.072 69.0906 114.685 68.5679C115.359 68.0079 116.034 67.4105 116.647 66.7758C117.424 65.9732 118.221 65.1892 119.018 64.4238C119.345 64.1065 119.672 63.7705 119.999 63.4531C120.776 62.6878 121.389 61.8664 121.859 61.0264C122.35 60.1304 123.923 59.2904 125.068 59.3464C125.231 59.3651 125.313 59.4211 125.436 59.6077C126.11 60.5598 126.437 61.4744 126.437 62.4264Z" fill="white"/>
<path id="Vector_17" d="M106.513 73.3091C105.103 74.7464 103.345 76.5385 102.058 78.5358C100.402 81.1305 99.4823 83.3892 99.1757 85.6293C98.9509 87.2346 99.1962 88.728 99.932 90.016C99.9729 90.072 99.9933 90.128 99.9933 90.1653H99.8707C99.5845 90.1467 99.3188 90.184 99.0326 90.2027C98.8896 90.2213 98.7669 90.2213 98.5625 90.2587C98.4399 90.2773 98.3786 90.2773 98.3786 90.2773C98.3786 90.2773 98.3377 90.2027 98.3377 89.9973C98.3377 88.4666 98.0515 86.9733 97.4588 85.4239C96.6003 83.2026 96.2733 80.8505 96.0689 78.8345C95.9872 77.9945 96.0076 77.0985 96.0485 76.2584C96.0485 75.8104 96.0689 75.3624 96.0689 74.9144C96.1098 74.6718 96.2937 73.4957 96.4981 72.4317L96.6003 71.853C97.0091 69.893 97.377 68.045 98.7465 66.4956C99.6049 65.525 100.647 64.7596 101.853 64.2369C102.242 64.0503 102.855 63.9196 103.591 64.7036C104.102 65.2636 104.531 65.917 104.837 66.6823C105.369 67.989 105.88 69.2957 106.391 70.621L106.82 71.7597C107.086 72.3944 107.004 72.8424 106.513 73.3091Z" fill="#F4F4F4"/>
<path id="Vector_18" d="M96.0839 89.8297C96.0226 90.8564 95.5116 91.6031 94.5918 92.0324C92.4865 93.0404 92.3639 94.8138 92.4661 96.0458V96.1578C92.4865 96.3445 92.507 96.5312 92.507 96.5685C92.4457 96.6058 92.18 96.6618 91.9756 96.6805C89.6863 97.0538 87.9081 97.6325 86.3343 98.5285C85.9868 98.7152 85.7211 98.9392 85.5167 99.2005C85.0875 99.7979 84.4334 100.115 83.5341 100.153C81.8785 100.227 80.3864 100.097 78.9965 99.7232C78.4037 99.5552 77.8314 99.4059 77.2387 99.2565C76.0123 98.9392 74.7451 98.6032 73.5187 98.2298C71.4135 97.5578 69.2877 96.4565 67.0394 94.8698L65.7722 93.9925C63.81 92.6111 61.766 91.1737 59.8651 89.6617C59.2315 89.1577 58.6592 88.5604 58.1278 87.8884C57.8416 87.5524 57.7394 87.2723 57.8212 87.0483C57.8825 86.8243 58.1482 86.619 58.5979 86.4323C60.4579 85.7417 62.461 85.3496 64.5867 85.3123C64.7297 85.3123 64.8524 85.2937 64.9954 85.2937C67.2233 85.2937 69.5535 85.7417 72.2923 86.6377C72.7216 86.787 73.1508 86.9363 73.58 87.067C74.7451 87.4403 75.951 87.8137 77.0752 88.355C78.5877 89.0457 79.9571 89.9977 81.2653 90.9124C81.5514 91.1177 81.8171 91.3044 82.1033 91.4911C82.369 91.6777 82.6551 91.8831 82.9413 92.0698C83.4932 92.4804 84.0859 92.8911 84.6991 93.2644C85.8846 94.0111 87.1723 94.4031 88.5213 94.4405H89.2775C89.8498 94.4778 90.4426 94.4778 91.0353 94.4778C91.4032 94.4778 91.6894 94.3285 91.8325 94.0858C91.9755 93.8618 91.9551 93.5444 91.7507 93.2458C91.4646 92.7791 90.974 92.4991 90.4221 92.4804C87.2745 92.3124 85.1896 90.5577 83.391 88.691C82.0828 87.3283 81.0813 85.723 80.1411 84.155L79.9571 83.8936C78.7308 81.8963 77.3409 79.9176 76.0123 78.0135C75.6035 77.4349 75.1948 76.8562 74.786 76.2588C74.2341 75.4562 73.8049 74.6535 73.5187 73.8695C72.9055 72.1148 72.0675 70.4161 71.2499 68.7921C70.9434 68.1947 70.6368 67.5787 70.3506 66.9814C69.8396 65.9174 69.4104 64.816 69.0016 63.7333L68.6337 62.7253C68.184 61.5866 67.8979 60.4479 67.5913 59.1599C67.2642 57.7599 67.1007 56.2665 67.1416 54.5865C67.162 54.2505 67.2233 53.9705 67.3255 53.7092C67.4686 53.4292 67.5504 53.3732 67.6117 53.3545C67.6526 53.3545 67.7548 53.3545 68.0205 53.5038C68.7768 53.9332 69.4717 54.4745 70.1462 54.9785C70.3915 55.1652 70.6367 55.3519 70.882 55.5385C75.1947 58.7679 78.3629 61.4 81.1018 64.1253C83.4319 66.4027 85.7619 68.9601 88.4395 72.1521C91.4032 75.6988 93.0793 79.6936 94.3465 83.1469C94.51 83.595 94.6735 84.043 94.8575 84.4723C95.3072 85.5923 95.7773 86.7497 95.9613 87.9444C96.043 88.5417 96.1248 89.1764 96.0839 89.8297Z" fill="white"/>
</g>
</g>
</g>
</svg>
