<svg width="22" height="21" viewBox="0 0 22 21" fill="none" xmlns="http://www.w3.org/2000/svg">
    <g clip-path="url(#clip0_18_3581)">
        <path d="M20.0424 5.04712L16.0296 1.68864L14.8956 3.04075L18.9083 6.39923L20.0424 5.04712ZM7.69885 2.99714L6.56482 1.64502L2.5957 5.04712L3.72974 6.39923L7.69885 2.99714ZM11.7552 7.00987H10.4467V12.2439L14.5903 14.73L15.2445 13.6396L11.7552 11.5896V7.00987ZM11.319 3.52054C6.95737 3.52054 3.46804 7.05348 3.46804 11.3715C3.46804 15.6896 6.95737 19.2225 11.319 19.2225C15.6371 19.2225 19.17 15.6896 19.17 11.3715C19.17 7.05348 15.6371 3.52054 11.319 3.52054ZM11.319 17.4779C7.96055 17.4779 5.2127 14.73 5.2127 11.3715C5.2127 8.01305 7.96055 5.2652 11.319 5.2652C14.6775 5.2652 17.4254 8.01305 17.4254 11.3715C17.4254 14.7736 14.6775 17.4779 11.319 17.4779Z" fill="#B76CD6"/>
    </g>
    <defs>
    <clipPath id="clip0_18_3581">
        <rect width="20.936" height="20.936" fill="white" transform="translate(0.851562 0.03125)"/>
    </clipPath>
    </defs>
</svg>
