<svg width="18" height="18" viewBox="0 0 18 18" fill="none" xmlns="http://www.w3.org/2000/svg">
<path fill-rule="evenodd" clip-rule="evenodd" d="M8.362 6.84344C8.49739 6.70809 8.68099 6.63206 8.87243 6.63206C9.06388 6.63206 9.24748 6.70809 9.38287 6.84344L13.4671 10.9277C13.536 10.9943 13.591 11.0739 13.6289 11.162C13.6667 11.2501 13.6866 11.3448 13.6875 11.4407C13.6883 11.5366 13.67 11.6316 13.6337 11.7204C13.5974 11.8091 13.5438 11.8897 13.476 11.9575C13.4082 12.0253 13.3276 12.0789 13.2389 12.1152C13.1502 12.1515 13.0551 12.1698 12.9593 12.1689C12.8634 12.1681 12.7686 12.1482 12.6806 12.1103C12.5925 12.0725 12.5128 12.0175 12.4462 11.9485L8.87243 8.37475L5.29865 11.9485C5.16248 12.08 4.98011 12.1528 4.79081 12.1512C4.60151 12.1495 4.42043 12.0736 4.28657 11.9397C4.15271 11.8059 4.07678 11.6248 4.07514 11.4355C4.07349 11.2462 4.14626 11.0638 4.27778 10.9277L8.362 6.84344Z" fill="#6D6D6D"/>
</svg>
