<svg width="19" height="18" viewBox="0 0 19 18" fill="none" xmlns="http://www.w3.org/2000/svg">
<path fill-rule="evenodd" clip-rule="evenodd" d="M10.015 11.2044C9.87957 11.3398 9.69596 11.4158 9.50452 11.4158C9.31308 11.4158 9.12947 11.3398 8.99408 11.2044L4.90986 7.12019C4.84091 7.05359 4.78591 6.97393 4.74807 6.88584C4.71023 6.79776 4.69031 6.70302 4.68948 6.60716C4.68865 6.51129 4.70691 6.41622 4.74322 6.3275C4.77952 6.23877 4.83313 6.15816 4.90092 6.09037C4.9687 6.02258 5.04931 5.96897 5.13804 5.93267C5.22677 5.89637 5.32184 5.8781 5.4177 5.87893C5.51357 5.87977 5.6083 5.89968 5.69639 5.93752C5.78447 5.97536 5.86414 6.03036 5.93074 6.09932L9.50452 9.6731L13.0783 6.09932C13.2145 5.9678 13.3968 5.89503 13.5861 5.89668C13.7754 5.89832 13.9565 5.97425 14.0904 6.10811C14.2242 6.24197 14.3002 6.42305 14.3018 6.61235C14.3035 6.80165 14.2307 6.98403 14.0992 7.12019L10.015 11.2044Z" fill="#595959"/>
</svg>
