<svg width="50" height="50" viewBox="0 0 50 50" fill="none" xmlns="http://www.w3.org/2000/svg">
<mask id="mask0_43766_3668" style="mask-type:alpha" maskUnits="userSpaceOnUse" x="0" y="0" width="50" height="50">
<rect width="50" height="50" fill="#D9D9D9"/>
</mask>
<g mask="url(#mask0_43766_3668)">
<path d="M4.16797 50.0003V41.667H45.8346V50.0003H4.16797ZM8.33464 37.5003V28.6462L31.668 5.36491C32.0499 4.98296 32.4926 4.68783 32.9961 4.47949C33.4996 4.27116 34.0291 4.16699 34.5846 4.16699C35.1402 4.16699 35.6784 4.27116 36.1992 4.47949C36.7201 4.68783 37.1888 5.00033 37.6055 5.41699L40.4701 8.33366C40.8867 8.7156 41.1905 9.16699 41.3815 9.68783C41.5725 10.2087 41.668 10.7469 41.668 11.3024C41.668 11.8232 41.5725 12.3354 41.3815 12.8389C41.1905 13.3423 40.8867 13.8024 40.4701 14.2191L17.1888 37.5003H8.33464ZM34.5846 14.167L37.5013 11.2503L34.5846 8.33366L31.668 11.2503L34.5846 14.167Z" fill="#D9D9D9"/>
</g>
</svg>
