<svg width="16" height="16" viewBox="0 0 16 16" fill="none" xmlns="http://www.w3.org/2000/svg">
<g clip-path="url(#clip0_225_2529)">
<path d="M7.99935 11.3334C8.73602 11.3334 9.33268 10.7367 9.33268 10.0001C9.33268 9.26341 8.73602 8.66675 7.99935 8.66675C7.26268 8.66675 6.66602 9.26341 6.66602 10.0001C6.66602 10.7367 7.26268 11.3334 7.99935 11.3334ZM11.9993 5.33341H11.3327V4.00008C11.3327 2.16008 9.83935 0.666748 7.99935 0.666748C6.15935 0.666748 4.66602 2.16008 4.66602 4.00008H5.93268C5.93268 2.86008 6.85935 1.93341 7.99935 1.93341C9.13935 1.93341 10.066 2.86008 10.066 4.00008V5.33341H3.99935C3.26268 5.33341 2.66602 5.93008 2.66602 6.66675V13.3334C2.66602 14.0701 3.26268 14.6667 3.99935 14.6667H11.9993C12.736 14.6667 13.3327 14.0701 13.3327 13.3334V6.66675C13.3327 5.93008 12.736 5.33341 11.9993 5.33341ZM11.9993 13.3334H3.99935V6.66675H11.9993V13.3334Z" fill="#6D6D6D"/>
</g>
<defs>
<clipPath id="clip0_225_2529">
<rect width="16" height="16" fill="white"/>
</clipPath>
</defs>
</svg>
