<svg width="16" height="16" viewBox="0 0 16 16" fill="none" xmlns="http://www.w3.org/2000/svg">
<path d="M8.10938 11.375C8.79688 11.375 9.35938 10.8125 9.35938 10.125C9.35938 9.4375 8.79688 8.875 8.10938 8.875C7.42188 8.875 6.85938 9.4375 6.85938 10.125C6.85938 10.8125 7.42188 11.375 8.10938 11.375ZM11.8594 5.75H11.2344V4.5C11.2344 2.775 9.83437 1.375 8.10938 1.375C6.38438 1.375 4.98438 2.775 4.98438 4.5V5.75H4.35938C3.67188 5.75 3.10938 6.3125 3.10938 7V13.25C3.10938 13.9375 3.67188 14.5 4.35938 14.5H11.8594C12.5469 14.5 13.1094 13.9375 13.1094 13.25V7C13.1094 6.3125 12.5469 5.75 11.8594 5.75ZM6.17187 4.5C6.17187 3.43125 7.04063 2.5625 8.10938 2.5625C9.17812 2.5625 10.0469 3.43125 10.0469 4.5V5.75H6.17187V4.5ZM11.8594 13.25H4.35938V7H11.8594V13.25Z" fill="#6D6D6D"/>
</svg>
