<svg width="13" height="14" viewBox="0 0 13 14" fill="none" xmlns="http://www.w3.org/2000/svg">
<path d="M8.84295 5.73659L7.21795 7.82841L6.05682 6.43386L4.43182 8.52273H10.9318L8.84295 5.73659ZM1.18182 2.61364H0V12.0682C0 12.7211 0.528864 13.25 1.18182 13.25H10.6364V12.0682H1.18182V2.61364ZM11.8182 0.25H3.54545C2.8925 0.25 2.36364 0.778864 2.36364 1.43182V9.70455C2.36364 10.3575 2.8925 10.8864 3.54545 10.8864H11.8182C12.4711 10.8864 13 10.3575 13 9.70455V1.43182C13 0.778864 12.4711 0.25 11.8182 0.25ZM11.8182 9.70455H3.54545V1.43182H11.8182V9.70455Z" fill="#A7A1A1"/>
</svg>
