<svg width="13" height="12" viewBox="0 0 13 12" fill="none" xmlns="http://www.w3.org/2000/svg">
<g id="bi:calendar" clip-path="url(#clip0_32_4213)">
<path id="Vector" d="M3.4167 0.819336C3.50945 0.819336 3.5984 0.85618 3.66398 0.921763C3.72956 0.987346 3.76641 1.0763 3.76641 1.16904V1.51875H9.36172V1.16904C9.36172 1.0763 9.39857 0.987346 9.46415 0.921763C9.52973 0.85618 9.61868 0.819336 9.71143 0.819336C9.80418 0.819336 9.89313 0.85618 9.95871 0.921763C10.0243 0.987346 10.0611 1.0763 10.0611 1.16904V1.51875H10.7606C11.1315 1.51875 11.4873 1.66613 11.7497 1.92846C12.012 2.19079 12.1594 2.54659 12.1594 2.91758V10.6111C12.1594 10.9821 12.012 11.3379 11.7497 11.6003C11.4873 11.8626 11.1315 12.01 10.7606 12.01H2.36758C1.99659 12.01 1.64079 11.8626 1.37846 11.6003C1.11613 11.3379 0.96875 10.9821 0.96875 10.6111V2.91758C0.96875 2.54659 1.11613 2.19079 1.37846 1.92846C1.64079 1.66613 1.99659 1.51875 2.36758 1.51875H3.06699V1.16904C3.06699 1.0763 3.10384 0.987346 3.16942 0.921763C3.235 0.85618 3.32395 0.819336 3.4167 0.819336ZM1.66816 3.61699V10.6111C1.66816 10.7966 1.74185 10.9745 1.87302 11.1057C2.00418 11.2369 2.18208 11.3106 2.36758 11.3106H10.7606C10.946 11.3106 11.1239 11.2369 11.2551 11.1057C11.3863 10.9745 11.46 10.7966 11.46 10.6111V3.61699H1.66816Z" fill="#2B2B2B"/>
</g>
<defs>
<clipPath id="clip0_32_4213">
<rect width="11.1906" height="11.1906" fill="white" transform="translate(0.96875 0.819336)"/>
</clipPath>
</defs>
</svg>
