<svg width="12" height="13" viewBox="0 0 12 13" fill="none" xmlns="http://www.w3.org/2000/svg">
<g id="ic_remove_red_eye_48px" clip-path="url(#clip0_32_4221)">
<path id="Vector" d="M6.38295 3.01416C4.05156 3.01416 2.06056 4.46428 1.25391 6.51123C2.06056 8.55819 4.05156 10.0083 6.38295 10.0083C8.71433 10.0083 10.7053 8.55819 11.512 6.51123C10.7053 4.46428 8.71666 3.01416 6.38295 3.01416ZM6.38295 8.84261C5.09602 8.84261 4.05156 7.79816 4.05156 6.51123C4.05156 5.22431 5.09602 4.17985 6.38295 4.17985C7.66987 4.17985 8.71433 5.22431 8.71433 6.51123C8.71433 7.79816 7.66987 8.84261 6.38295 8.84261ZM6.38295 5.1124C5.61126 5.1124 4.98412 5.73955 4.98412 6.51123C4.98412 7.28292 5.61126 7.91006 6.38295 7.91006C7.15463 7.91006 7.78177 7.28292 7.78177 6.51123C7.78177 5.73955 7.15463 5.1124 6.38295 5.1124Z" fill="black"/>
</g>
<defs>
<clipPath id="clip0_32_4221">
<rect width="11.1906" height="11.1906" fill="white" transform="translate(0.785156 0.914551)"/>
</clipPath>
</defs>
</svg>
