<svg width="21" height="21" viewBox="0 0 21 21" fill="none" xmlns="http://www.w3.org/2000/svg">
<rect x="0.558594" y="0.915894" width="19.7482" height="19.7482" rx="3.29136" fill="#C75EE9"/>
<g clip-path="url(#clip0_5_14062)">
<path d="M3.38086 5.50029V10.2022H9.84604V3.73706H5.14409C4.67645 3.73706 4.22797 3.92283 3.8973 4.2535C3.56663 4.58417 3.38086 5.03265 3.38086 5.50029H3.38086ZM8.67055 9.02675H4.55635V5.50029C4.55635 5.34441 4.61827 5.19492 4.72849 5.08469C4.83872 4.97447 4.98821 4.91255 5.14409 4.91255H8.67055V9.02675Z" fill="white"/>
<path d="M3.38086 16.0796C3.38086 16.5473 3.56663 16.9957 3.8973 17.3264C4.22797 17.6571 4.67645 17.8429 5.14409 17.8429H9.84604V11.3777H3.38086V16.0796ZM4.55635 12.5532H8.67055V16.6674H5.14409C4.98821 16.6674 4.83872 16.6054 4.72849 16.4952C4.61827 16.385 4.55635 16.2355 4.55635 16.0796V12.5532Z" fill="white"/>
<path d="M11.0215 11.3777V17.8429H15.7234C16.1911 17.8429 16.6395 17.6571 16.9702 17.3264C17.3009 16.9957 17.4867 16.5473 17.4867 16.0796V11.3777H11.0215ZM16.3112 16.0796C16.3112 16.2355 16.2492 16.385 16.139 16.4952C16.0288 16.6054 15.8793 16.6674 15.7234 16.6674H12.197V12.5532H16.3112V16.0796Z" fill="white"/>
<path d="M13.3725 10.2022H14.5479V7.85123H16.8989V6.67574H14.5479V4.32477H13.3725V6.67574H11.0215V7.85123H13.3725V10.2022Z" fill="white"/>
</g>
<defs>
<clipPath id="clip0_5_14062">
<rect width="14.1058" height="14.1058" fill="white" transform="translate(3.38086 3.73706)"/>
</clipPath>
</defs>
</svg>
