<svg width="16" height="16" viewBox="0 0 16 16" fill="none" xmlns="http://www.w3.org/2000/svg">
<path fill-rule="evenodd" clip-rule="evenodd" d="M9.81033 1.71653C11.0642 0.462656 13.0971 0.462656 14.351 1.71653C15.6049 2.9704 15.6049 5.00332 14.351 6.25719L7.84692 12.7613C7.47533 13.1329 7.25658 13.3516 7.01323 13.5415C6.72641 13.7652 6.41606 13.957 6.08768 14.1135C5.80908 14.2463 5.51559 14.3441 5.01701 14.5102L2.73286 15.2716L2.18287 15.455C1.73678 15.6037 1.24497 15.4875 0.91247 15.1551C0.579973 14.8226 0.463871 14.3307 0.612568 13.8846L1.55727 11.0505C1.72345 10.5519 1.82127 10.2584 1.95405 9.97984C2.11054 9.65147 2.30235 9.34112 2.52607 9.05429C2.71588 8.81093 2.93465 8.59218 3.30628 8.22058L9.81033 1.71653ZM2.70913 14.1953L4.65757 13.5459C5.20003 13.365 5.43052 13.2873 5.64518 13.185C5.90612 13.0606 6.15273 12.9082 6.38066 12.7304C6.56816 12.5842 6.74079 12.4128 7.14512 12.0085L12.3355 6.81808C11.7947 6.62735 11.0981 6.27381 10.4459 5.62163C9.79371 4.96944 9.44017 4.27278 9.24944 3.732L4.05905 8.9224C3.65472 9.32673 3.48334 9.49936 3.33709 9.68687C3.15932 9.91479 3.0069 10.1614 2.88254 10.4223C2.78024 10.637 2.70248 10.8675 2.52165 11.41L1.87218 13.3584L2.70913 14.1953ZM10.0837 2.89771C10.1072 3.01768 10.1468 3.18077 10.213 3.37141C10.3619 3.80063 10.6432 4.36431 11.1732 4.89433C11.7032 5.42436 12.2669 5.70565 12.6961 5.85456C12.8868 5.9207 13.0498 5.96034 13.1698 5.98379L13.6237 5.5299C14.4759 4.6777 14.4759 3.29602 13.6237 2.44382C12.7715 1.59162 11.3898 1.59162 10.5376 2.44382L10.0837 2.89771Z" fill="#BBBBBB"/>
</svg>
