<svg width="17" height="18" viewBox="0 0 17 18" fill="none" xmlns="http://www.w3.org/2000/svg">
<path fill-rule="evenodd" clip-rule="evenodd" d="M7.21861 2.46168H9.53727C9.68565 2.46159 9.81492 2.46151 9.93699 2.481C10.4192 2.55801 10.8366 2.85879 11.0621 3.29194C11.1192 3.40158 11.16 3.52424 11.2068 3.66503L11.2834 3.89468C11.2963 3.93355 11.3 3.94455 11.3032 3.95322C11.4233 4.28518 11.7346 4.50958 12.0875 4.51852C12.0968 4.51876 12.1081 4.5188 12.1493 4.5188H14.2064C14.4904 4.5188 14.7207 4.74905 14.7207 5.03307C14.7207 5.3171 14.4904 5.54735 14.2064 5.54735H2.54943C2.26541 5.54735 2.03516 5.3171 2.03516 5.03307C2.03516 4.74905 2.26541 4.5188 2.54943 4.5188H4.60659C4.64776 4.5188 4.65913 4.51876 4.66841 4.51852C5.0213 4.50958 5.33262 4.28519 5.4527 3.95323C5.45586 3.94451 5.45949 3.93374 5.47251 3.89468L5.54904 3.66505C5.59587 3.52426 5.63668 3.40158 5.69377 3.29194C5.91933 2.85879 6.33664 2.55801 6.8189 2.481C6.94096 2.46151 7.07023 2.46159 7.21861 2.46168ZM6.32637 4.5188C6.36169 4.44953 6.39299 4.37754 6.41992 4.3031C6.4281 4.2805 6.43612 4.25644 6.44642 4.22552L6.51485 4.02022C6.57737 3.83267 6.59176 3.79442 6.60604 3.767C6.68123 3.62261 6.82033 3.52235 6.98108 3.49668C7.01162 3.49181 7.05245 3.49025 7.25014 3.49025H9.50574C9.70344 3.49025 9.74427 3.49181 9.7748 3.49668C9.93555 3.52235 10.0747 3.62261 10.1498 3.767C10.1641 3.79442 10.1785 3.83266 10.241 4.02022L10.3094 4.2254L10.336 4.30312C10.3629 4.37755 10.3942 4.44953 10.4295 4.5188H6.32637Z" fill="#BBBBBB"/>
<path d="M4.20546 6.71312C4.18657 6.42972 3.94151 6.21529 3.65811 6.23419C3.37472 6.25308 3.16029 6.49814 3.17919 6.78153L3.49697 11.5483C3.5556 12.4279 3.60295 13.1384 3.71402 13.6959C3.82949 14.2756 4.02589 14.7597 4.43154 15.1392C4.8372 15.5187 5.33334 15.6825 5.91937 15.7591C6.48304 15.8329 7.19508 15.8329 8.07659 15.8329H8.67925C9.56076 15.8329 10.2728 15.8329 10.8365 15.7591C11.4225 15.6825 11.9187 15.5187 12.3243 15.1392C12.73 14.7597 12.9264 14.2756 13.0419 13.6959C13.1529 13.1384 13.2003 12.4279 13.2589 11.5484L13.5767 6.78153C13.5956 6.49814 13.3812 6.25308 13.0978 6.23419C12.8144 6.21529 12.5693 6.42972 12.5504 6.71312L12.235 11.4438C12.1734 12.3681 12.1295 13.0111 12.0331 13.495C11.9396 13.9643 11.8091 14.2127 11.6217 14.3881C11.4342 14.5635 11.1776 14.6772 10.7031 14.7393C10.2139 14.8033 9.56936 14.8043 8.64309 14.8043H8.11279C7.18652 14.8043 6.54196 14.8033 6.05278 14.7393C5.57827 14.6772 5.32171 14.5635 5.13423 14.3881C4.94675 14.2127 4.81624 13.9643 4.72275 13.495C4.62636 13.0111 4.58246 12.3681 4.52084 11.4438L4.20546 6.71312Z" fill="#BBBBBB"/>
<path d="M6.61252 7.94985C6.89514 7.92159 7.14716 8.12779 7.17542 8.4104L7.51827 11.8389C7.54653 12.1215 7.34034 12.3735 7.05772 12.4018C6.7751 12.4301 6.52309 12.2239 6.49482 11.9412L6.15197 8.51275C6.12371 8.23013 6.32991 7.97811 6.61252 7.94985Z" fill="#BBBBBB"/>
<path d="M10.1434 7.94985C10.426 7.97811 10.6322 8.23013 10.6039 8.51275L10.2611 11.9412C10.2328 12.2239 9.98079 12.4301 9.69818 12.4018C9.41556 12.3735 9.20936 12.1215 9.23763 11.8389L9.58048 8.4104C9.60874 8.12779 9.86075 7.92159 10.1434 7.94985Z" fill="#BBBBBB"/>
</svg>
