<svg width="10" height="10" viewBox="0 0 10 10" fill="none" xmlns="http://www.w3.org/2000/svg">
<path d="M1.02539 8.97436L1.67764 6.75961C1.5457 6.48023 1.44139 6.19387 1.36473 5.90052C1.28808 5.60717 1.24976 5.30699 1.24976 5C1.24976 4.48125 1.34815 3.99375 1.54495 3.5375C1.74176 3.08125 2.00885 2.68437 2.34622 2.34687C2.6836 2.00937 3.08032 1.74219 3.5364 1.54531C3.99248 1.34844 4.4798 1.25 4.99836 1.25C5.51692 1.25 6.00446 1.3484 6.46096 1.5452C6.91747 1.742 7.31457 2.00909 7.65227 2.34647C7.98995 2.68384 8.25729 3.08057 8.45428 3.53665C8.65126 3.99273 8.74976 4.48005 8.74976 4.9986C8.74976 5.51717 8.65132 6.0047 8.45444 6.46121C8.25757 6.91772 7.99038 7.31482 7.65288 7.65251C7.31538 7.9902 6.91851 8.25754 6.46226 8.45452C6.00601 8.65151 5.51851 8.75 4.99976 8.75C4.69276 8.75 4.39259 8.71167 4.09923 8.63502C3.80589 8.55836 3.51952 8.45406 3.24014 8.32211L1.02539 8.97436ZM1.64559 8.35417L2.97892 7.95833C3.08682 7.93056 3.18578 7.91747 3.2758 7.91907C3.36581 7.92068 3.4613 7.94765 3.56226 8C3.78448 8.11111 4.01712 8.19445 4.26017 8.25C4.50323 8.30556 4.74976 8.33333 4.99976 8.33333C5.93031 8.33333 6.71851 8.01042 7.36434 7.36458C8.01017 6.71875 8.33309 5.93056 8.33309 5C8.33309 4.06944 8.01017 3.28125 7.36434 2.63542C6.71851 1.98958 5.93031 1.66667 4.99976 1.66667C4.0692 1.66667 3.28101 1.98958 2.63517 2.63542C1.98934 3.28125 1.66642 4.06944 1.66642 5C1.66642 5.25 1.6942 5.49653 1.74976 5.73958C1.80531 5.98264 1.88864 6.21528 1.99976 6.4375C2.04837 6.52778 2.07574 6.62326 2.08189 6.72396C2.08803 6.82465 2.07454 6.92361 2.04142 7.02083L1.64559 8.35417Z" fill="#8D8D8D"/>
</svg>
