<svg width="25" height="25" viewBox="0 0 25 25" fill="none" xmlns="http://www.w3.org/2000/svg">
<circle cx="12.4085" cy="12.6212" r="12.178" fill="#C75EE9" fill-opacity="0.2"/>
<path d="M15.3729 12.415C15.366 12.5157 15.3078 12.6064 15.2016 12.6971C15.1605 12.7307 15.116 12.7643 15.0749 12.7945C15.0372 12.8247 15.003 12.8549 14.9653 12.8818C14.8215 12.9926 14.6708 13.0631 14.5132 13.09C13.907 13.1941 13.5166 13.2075 13.3625 13.1303C13.1844 13.043 13.1365 12.7105 13.1159 12.5863V12.546C13.0919 12.4419 13.0303 12.2236 13.0269 12.2202C13.0269 12.2135 13.0234 12.2101 13.0234 12.2068C13.0303 12.1866 13.0714 12.1598 13.0919 12.143L13.1159 12.1195C13.294 11.9616 13.5132 11.7971 13.8077 11.7568C13.9105 11.7434 14.0064 11.7064 14.0988 11.6728C14.1434 11.6527 14.1879 11.6392 14.2358 11.6258C14.3112 11.5989 14.3763 11.5989 14.4276 11.6191C14.7085 11.7232 15.0201 11.8642 15.2599 12.1262C15.3455 12.2236 15.3866 12.321 15.3797 12.4184L15.3729 12.415Z" fill="#FFE888"/>
<path d="M14.3501 14.1624C14.2473 14.243 14.1343 14.3471 14.0384 14.4781C13.9631 14.5822 13.8501 14.6191 13.737 14.646C13.7302 14.646 13.7268 14.6493 13.7233 14.6493L13.3603 14.7534C13.3363 14.7635 13.2987 14.7736 13.2473 14.787H13.2336C12.9288 14.871 12.6753 14.8374 12.4287 14.6829C12.1479 14.5083 12.0554 14.2497 12.1479 13.934C12.2506 13.615 12.4424 13.4202 12.737 13.343C12.7712 13.3329 12.802 13.3128 12.8226 13.2993C12.8329 13.2893 12.8568 13.2725 12.8637 13.2725C12.8911 13.2859 12.9116 13.3195 12.9356 13.3497C12.9493 13.3698 12.963 13.3833 12.9733 13.3967C13.1206 13.5747 13.3124 13.662 13.5418 13.662H13.5521C13.761 13.662 13.9631 13.6486 14.1172 13.6318C14.3021 13.6217 14.3912 13.6687 14.4562 13.8199C14.5042 13.9374 14.4665 14.0583 14.3467 14.159L14.3501 14.1624Z" fill="#F4D13D"/>
<path d="M11.7727 14.7734C11.7727 14.7734 11.7658 14.7801 11.7624 14.7835C11.6768 14.9044 11.4028 15.0018 11.2007 15.0454C11.1973 15.0454 11.1905 15.0488 11.1802 15.0488C11.1083 15.079 11.0226 15.0925 10.8959 15.0925C10.4918 15.1529 10.3925 15.0992 10.389 15.0992C10.3822 15.0891 10.3685 15.079 10.3548 15.0757C10.3342 15.0723 10.3068 15.0622 10.2555 15.0421C10.0329 14.9481 9.81367 14.854 9.59448 14.76C9.49859 14.7231 9.47461 14.6828 9.47461 14.6727C9.49516 14.3436 9.82737 13.9204 10.1733 13.9137L10.4027 13.907C10.5432 13.9003 10.6767 13.8969 10.8137 13.8936C10.8959 13.8902 10.9884 13.8969 11.0637 13.9339C11.122 13.9607 11.1699 13.9674 11.2144 13.9473C11.2658 13.9272 11.3035 13.8869 11.3343 13.8163L11.3446 13.7861C11.3548 13.7559 11.3685 13.7223 11.3822 13.6921C11.3857 13.682 11.3891 13.682 11.3925 13.6854C11.3891 13.7626 11.4062 13.823 11.4507 13.8633C11.4884 13.907 11.5501 13.9272 11.6288 13.9238C11.5706 14.1656 11.6528 14.3839 11.7247 14.5786C11.7384 14.6189 11.7521 14.666 11.759 14.713L11.7658 14.7533L11.7693 14.7667L11.7727 14.7734Z" fill="#FFE888"/>
<path d="M11.9382 12.8492C11.6745 13.1312 11.3628 13.3159 11.0169 13.3999C10.9518 13.42 10.8833 13.42 10.808 13.4234C10.7737 13.4234 10.7361 13.4234 10.7052 13.4268C10.5443 13.4268 10.3285 13.4133 10.1265 13.3025C9.78397 13.1077 9.71889 12.5906 9.89699 12.2783C9.99288 12.107 10.1128 11.9962 10.2703 11.9391C10.445 11.8753 10.6333 11.835 10.832 11.8215H10.8628C10.9827 11.8215 11.0854 11.8719 11.1471 11.9727C11.2703 12.1775 11.4519 12.2883 11.7156 12.3219C11.8594 12.3353 11.969 12.4159 12.0135 12.5301C12.0546 12.6409 12.0238 12.7585 11.9348 12.8559L11.9382 12.8492Z" fill="#F4D13D"/>
<path d="M13.4641 11.3341C13.2689 11.5659 13.012 11.7103 12.7381 11.8647L12.7141 11.8782C12.488 11.9285 12.3065 11.9151 12.2997 11.9151C12.0497 11.9218 11.851 11.8748 11.6729 11.7741C11.5222 11.6935 11.4058 11.4819 11.3852 11.2603C11.375 11.1394 11.3887 10.9076 11.5976 10.7431C11.7038 10.6558 11.8031 10.5987 11.899 10.5584L11.964 10.5282C11.964 10.5282 12.1045 10.4509 12.3339 10.4509C12.3476 10.4509 12.3648 10.4543 12.3785 10.4543C12.4846 10.4677 12.5908 10.4744 12.6901 10.4778C12.7689 10.4812 12.8511 10.4812 12.9333 10.4879C12.9812 10.4946 13.0189 10.4979 13.0394 10.5013C13.0429 10.5047 13.0497 10.508 13.06 10.508C13.0908 10.5147 13.1936 10.5483 13.3169 10.6591C13.4607 10.7901 13.4778 10.8371 13.4984 10.8875C13.4984 10.8942 13.5018 10.9009 13.5052 10.9076C13.6148 11.042 13.6045 11.1629 13.4641 11.3341Z" fill="#F4D13D"/>
<path d="M22.5727 12.5331C22.535 12.4021 22.4562 12.3181 22.3295 12.2745C22.2097 12.2342 22.0932 12.1972 21.9802 12.1435C21.5829 11.9588 21.148 11.7775 20.6822 11.6935C20.3739 11.6364 20.0554 11.586 19.7506 11.539C19.4527 11.492 19.141 11.445 18.8396 11.3913C18.3773 11.3073 17.8841 11.2737 17.3806 11.2905C17.6546 11.1159 17.8224 10.8573 17.9492 10.6289C17.9903 10.5584 18.0279 10.4845 18.0656 10.414C18.1067 10.3368 18.1478 10.2595 18.1923 10.1857C18.3738 9.86663 18.3499 9.5879 18.1101 9.31588C18.0142 9.20506 17.9012 9.16812 17.7608 9.19834C17.4286 9.26551 17.0929 9.37297 16.6648 9.53753C16.5278 9.59126 16.3874 9.63827 16.2504 9.67857C15.9833 9.76589 15.7059 9.8532 15.449 10.0144C15.4524 10.0077 15.4524 10.001 15.4559 9.9976L15.4661 9.97409C15.5415 9.77932 15.6168 9.5879 15.6922 9.39312C15.8395 9.02372 15.9901 8.64088 16.1271 8.25804C16.2333 7.96252 16.3326 7.66028 16.4285 7.36811C16.5484 7.00878 16.6683 6.63602 16.8018 6.27669C16.9594 5.85355 16.9217 5.47071 16.6888 5.11138C16.6306 5.02407 16.545 4.88974 16.3737 4.87295C16.0107 4.84273 15.723 4.95019 15.5278 5.1987L15.473 5.26586C15.2812 5.50765 15.0826 5.75616 14.8702 5.98788C14.6579 6.2196 14.425 6.4446 14.2024 6.66288C13.9832 6.87109 13.7606 7.08938 13.5517 7.31438C13.5448 7.3211 13.538 7.32781 13.5311 7.33453C13.5277 7.33453 13.5277 7.33789 13.5243 7.33789C13.4763 7.19013 13.4249 7.04572 13.3736 6.90132C13.329 6.77706 13.2845 6.65281 13.2434 6.52855C13.1578 6.2834 13.0277 6.0584 12.8564 5.86363C12.6509 5.63191 12.4146 5.59833 12.1509 5.75952C11.7639 5.99796 11.4796 6.364 11.2844 6.88117C11.0995 7.36475 11.0995 7.86849 11.1097 8.34536C11.1132 8.40916 11.1132 8.46961 11.1132 8.53342C11.096 8.49648 11.0823 8.45953 11.0652 8.42259C10.9762 8.20767 10.8803 7.98267 10.733 7.78789C10.6405 7.67035 10.5481 7.55617 10.4522 7.43863C10.322 7.27744 10.1885 7.11289 10.0617 6.94498C9.67474 6.41102 9.20896 5.89721 8.55482 5.27594C8.23973 4.98041 7.89725 4.67817 7.44174 4.29533C7.39037 4.25504 7.34242 4.21138 7.29447 4.17108C7.15405 4.05018 7.01021 3.92593 6.85609 3.81847C6.79787 3.78153 6.63006 3.66735 6.47251 3.78824C6.2362 3.97295 6.11633 4.1778 6.10263 4.41287C6.08893 4.65802 6.11975 4.90653 6.15058 5.1181C6.1951 5.41027 6.27387 5.689 6.37662 6.02146C6.46224 6.29684 6.55813 6.589 6.70198 6.86438C6.81842 7.07595 6.94172 7.30766 7.02391 7.55617C7.10268 7.79796 7.2157 8.04983 7.37667 8.35207C7.57189 8.71812 7.79792 9.07073 8.01711 9.41327C8.11301 9.56439 8.2089 9.71215 8.3048 9.86663C8.37672 9.97745 8.44865 10.1017 8.51714 10.2394C8.49317 10.226 8.4692 10.2125 8.4418 10.2025C7.84245 9.93715 7.28762 9.76924 6.7465 9.68865C6.71225 9.68193 6.67458 9.67857 6.6369 9.67521L6.56498 9.66514C5.98961 9.57782 5.46561 9.59797 4.96216 9.71887C4.87996 9.73902 4.80804 9.77932 4.74297 9.83641C4.56145 9.9976 4.53062 10.367 4.68132 10.6088C4.84228 10.8707 5.0786 11.0655 5.30464 11.2502L5.34231 11.2804C5.38341 11.3174 5.42793 11.3543 5.46903 11.3913C5.62657 11.5256 5.79097 11.6599 5.96906 11.7808C5.82864 11.754 5.69165 11.7405 5.55123 11.7405C5.03065 11.7405 4.60255 11.9722 4.27719 12.4323C4.19157 12.5532 4.15732 12.6842 4.18129 12.8051C4.20527 12.9327 4.29089 13.0469 4.42788 13.1375C4.50323 13.1879 4.58885 13.2282 4.67447 13.2685C4.87654 13.3625 5.08202 13.4499 5.28066 13.5204C5.47246 13.5909 5.63685 13.7051 5.80809 13.826C5.85947 13.8629 5.91426 13.8999 5.96563 13.9334C6.18825 14.0812 6.41771 14.1618 6.6643 14.1786C6.69855 14.1786 6.7328 14.182 6.76705 14.1853C6.8287 14.1887 6.89034 14.1954 6.94857 14.1954C6.93487 14.2055 6.92459 14.2155 6.91089 14.2256C6.86294 14.2558 6.815 14.2894 6.77047 14.323C6.37319 14.6286 5.98618 14.9946 5.51698 15.5152C5.08545 15.9954 4.75667 16.5294 4.54433 17.1003C4.30801 17.7383 4.26691 18.3126 4.42103 18.8499C4.54432 19.2797 4.62995 19.4879 5.24984 19.5249C5.6163 19.545 5.83891 19.4241 5.97591 19.132C6.05468 18.9607 6.18482 18.8096 6.36977 18.6685C6.55128 18.5342 6.72252 18.3629 6.88006 18.1614C7.20542 17.7383 7.65066 17.1943 8.18836 16.7342C8.21233 16.7141 8.23973 16.6939 8.26713 16.6771C8.2774 16.6704 8.2911 16.6603 8.30138 16.6536L8.28083 16.7275C8.24316 16.8517 8.20548 16.9794 8.17466 17.107C8.04794 17.6208 7.96574 18.1648 7.93492 18.729C7.89724 19.4141 7.90752 19.9816 7.96574 20.5189C7.99314 20.7506 8.05136 21.0495 8.25343 21.3047L8.26713 21.3215C8.31507 21.382 8.37672 21.4559 8.47947 21.4559H8.49317C8.69866 21.4391 8.96237 21.3954 9.16101 21.1771C9.21238 21.12 9.26376 21.063 9.3117 21.0059C9.36308 20.9488 9.41103 20.8917 9.4624 20.838L9.57199 20.7171C9.8083 20.4551 10.0515 20.1831 10.2433 19.8775C10.2535 19.8607 10.2604 19.854 10.2604 19.8506C10.2638 19.854 10.2707 19.8607 10.2775 19.8741C10.3015 19.9144 10.3323 19.948 10.3631 19.9816L10.3803 20.0018C10.4282 20.0521 10.4727 20.0756 10.5241 20.079C10.5686 20.0824 10.6166 20.0588 10.6611 20.0185C10.7125 19.9715 10.7638 19.9279 10.8152 19.8842C11.0173 19.7062 11.2262 19.5249 11.3563 19.2663C11.3769 19.2294 11.4043 19.1924 11.442 19.1555C11.4522 19.1421 11.6783 18.8432 11.7673 18.6753L11.7742 18.6652C11.7742 18.6652 11.781 18.6484 11.7844 18.645C11.9146 18.3663 11.9899 18.1111 12.0173 17.8693C12.0208 17.8357 12.031 17.8088 12.0584 17.7753C12.0824 17.7484 12.1167 17.7081 12.144 17.7014C12.1851 17.7887 12.4694 18.3663 12.6543 18.5947C12.6646 18.6081 12.6749 18.6215 12.6852 18.635L12.7091 18.6618C12.829 18.8163 12.9523 18.9741 13.0859 19.1219C13.4763 19.5484 13.901 19.9984 14.4113 20.3644C14.8599 20.6868 15.3052 20.8917 15.771 20.9857C16.0689 21.0495 16.3429 20.8245 16.4011 20.5861C16.4456 20.398 16.4114 20.2234 16.3669 20.0454C16.3258 19.8842 16.2881 19.723 16.2504 19.5585C16.1888 19.3032 16.1271 19.0379 16.0586 18.7794C15.9148 18.2488 15.7264 17.6342 15.3874 17.0667L15.4182 17.0767C15.4661 17.0969 15.5141 17.1137 15.5655 17.1338L15.6853 17.1775C15.9319 17.2715 16.1854 17.3656 16.4457 17.4327C16.932 17.5536 17.4115 17.5435 17.9457 17.5167C18.2711 17.5032 18.5554 17.3891 18.7917 17.1775C18.8739 17.107 18.8944 17.0264 18.8533 16.9256C18.8225 16.8484 18.7711 16.7913 18.7163 16.7376L18.6889 16.704C18.6033 16.6133 18.5211 16.5226 18.4355 16.432C18.2642 16.2506 18.0861 16.0659 17.932 15.8678C17.8875 15.8073 17.8396 15.7502 17.795 15.6898C17.6067 15.4446 17.4115 15.1928 17.1854 14.9678C17.1238 14.9073 17.0724 14.8368 17.0176 14.7629L16.9765 14.7092C16.9765 14.7092 16.9731 14.7025 16.9697 14.7025H16.9765C17.295 14.7361 17.6135 14.7226 17.9457 14.6588C18.4595 14.5648 18.9698 14.4875 19.4664 14.417C19.5931 14.3969 19.7164 14.3801 19.8431 14.3633C20.1068 14.3264 20.3808 14.2894 20.6479 14.2357C20.7712 14.2122 20.8842 14.1652 20.9973 14.1148C21.2233 14.0107 21.4151 13.9334 21.6069 13.8764C21.8329 13.8025 22.1206 13.6883 22.3261 13.4398C22.5761 13.1409 22.6583 12.8454 22.5727 12.5331ZM16.3292 10.0648L16.4011 10.0413C16.521 9.9976 16.6374 9.9573 16.7539 9.91701C17.0416 9.81962 17.343 9.71551 17.6306 9.59462C17.6889 9.56775 17.7437 9.56775 17.7848 9.59462C17.8361 9.6282 17.867 9.70544 17.867 9.79947C17.867 9.88006 17.8053 9.98081 17.7642 10.048C17.5793 10.3603 17.3601 10.723 17.1101 11.0554C16.9971 11.2133 16.8395 11.3174 16.6409 11.3678C16.5724 11.3879 16.5039 11.4047 16.4354 11.4215C16.223 11.4719 16.0073 11.5222 15.8052 11.623C15.4696 11.7943 15.2264 11.9689 15.038 12.1771L15.0209 12.1972L14.9901 12.2275C14.8976 12.3215 14.8976 12.3249 14.8052 12.2443C14.5517 12.036 14.3325 11.9151 14.1031 11.8513C14.1065 11.848 14.1099 11.848 14.1133 11.8446C14.1853 11.7909 14.2538 11.7372 14.3257 11.6834L14.4627 11.5827C14.5894 11.4853 14.699 11.3678 14.8017 11.2536C14.8668 11.1831 14.9353 11.1125 15.0038 11.0454C15.0449 11.0084 15.0894 10.9748 15.1339 10.9413C15.2264 10.8707 15.3189 10.8002 15.3771 10.6995C15.586 10.3267 15.949 10.1991 16.3292 10.0648ZM11.4385 12.7547C11.5687 12.7681 11.668 12.8387 11.7091 12.9428C11.7468 13.0435 11.7194 13.151 11.6372 13.2383C11.3974 13.4935 11.1166 13.6614 10.8015 13.7387C10.7433 13.7555 10.6816 13.7555 10.6131 13.7588C10.5823 13.7588 10.5481 13.7588 10.5207 13.7622C10.3734 13.7622 10.1782 13.7487 9.99667 13.648C9.68501 13.47 9.62679 13.0032 9.78776 12.7178C9.87338 12.5633 9.98298 12.4625 10.1268 12.4088C10.2844 12.3517 10.4556 12.3148 10.6371 12.3013H10.6645C10.7741 12.3013 10.8666 12.3484 10.9214 12.439C11.0344 12.6237 11.1988 12.7245 11.4385 12.7547ZM11.3324 11.3275C11.4283 11.2469 11.5173 11.1965 11.6063 11.1595L11.6646 11.1327C11.6646 11.1327 11.7913 11.0622 12.0002 11.0622C12.0139 11.0622 12.0276 11.0655 12.0413 11.0655C12.1372 11.079 12.2331 11.0823 12.3256 11.0857C12.3975 11.0857 12.4728 11.0857 12.5448 11.0957C12.5893 11.1025 12.6235 11.1058 12.6407 11.1092C12.6407 11.1092 12.6509 11.1159 12.6578 11.1159C12.6852 11.1226 12.7776 11.1528 12.8907 11.2536C13.0208 11.3711 13.0379 11.4148 13.0551 11.4618C13.0551 11.4685 13.0585 11.4752 13.0619 11.4786C13.1612 11.5995 13.151 11.7103 13.0242 11.8648C12.8461 12.0763 12.6133 12.2073 12.3667 12.345L12.3461 12.3584C12.1406 12.4055 11.9762 12.392 11.9694 12.392C11.7433 12.3987 11.5618 12.3551 11.4009 12.2644C11.2639 12.1905 11.1577 11.9991 11.1406 11.7976C11.1303 11.6868 11.144 11.4786 11.3324 11.3275ZM11.9283 13.339C12.0173 13.1611 12.0447 13.0032 12.0173 12.842C12.0139 12.8252 12.0139 12.8185 12.0105 12.8152H12.0413C12.0619 12.8152 12.0858 12.8185 12.1064 12.8118C12.2399 12.8118 12.2605 12.8252 12.2982 12.9394C12.3256 13.0166 12.3461 13.0972 12.3632 13.1778L12.3804 13.2517C12.3872 13.2719 12.3838 13.2887 12.353 13.3021L12.3221 13.3155C12.2673 13.3424 12.2125 13.3693 12.1577 13.3827C11.9831 13.4264 11.8358 13.517 11.7022 13.6547L11.6851 13.6715C11.644 13.7152 11.6063 13.7555 11.555 13.7756C11.7228 13.6547 11.8495 13.5069 11.9283 13.339ZM11.8255 14.2222C11.918 13.9334 12.0927 13.7555 12.3598 13.6849C12.3906 13.6749 12.418 13.6581 12.4386 13.6446C12.4489 13.6346 12.4694 13.6211 12.4763 13.6211C12.5002 13.6346 12.5208 13.6648 12.5413 13.6917C12.555 13.7084 12.5653 13.7219 12.5756 13.7353C12.7091 13.8965 12.8838 13.9771 13.0927 13.9771H13.103C13.2914 13.9771 13.4763 13.9637 13.6167 13.9502C13.7845 13.9402 13.8667 13.9838 13.925 14.1215C13.9695 14.229 13.9352 14.3364 13.8256 14.4305C13.7332 14.5043 13.6304 14.5984 13.5414 14.7159C13.4729 14.8099 13.3701 14.8435 13.2674 14.867C13.2605 14.867 13.2571 14.8704 13.2537 14.8704L12.9249 14.9644C12.9044 14.9745 12.8701 14.9812 12.8222 14.9946H12.8085C12.5311 15.0719 12.3016 15.0417 12.079 14.9006C11.8255 14.7428 11.7399 14.5077 11.8255 14.2222ZM12.9283 13.4935C12.7674 13.4129 12.7228 13.114 12.7057 12.9999V12.9629C12.6852 12.8689 12.627 12.6708 12.6235 12.6674C12.6235 12.6607 12.6235 12.6573 12.6235 12.654C12.6304 12.6372 12.6681 12.6103 12.6852 12.5969L12.7057 12.5767C12.8667 12.4323 13.0653 12.2846 13.3325 12.2476C13.4249 12.2342 13.514 12.2006 13.5962 12.1704C13.6373 12.1536 13.6784 12.1402 13.7195 12.1267C13.788 12.1032 13.8462 12.1032 13.8941 12.12C14.1476 12.214 14.4318 12.3416 14.6476 12.5801C14.7264 12.6674 14.7641 12.7581 14.7572 12.8454C14.7504 12.936 14.699 13.02 14.6031 13.1006C14.5654 13.1308 14.5243 13.1611 14.4866 13.1879C14.4524 13.2148 14.4216 13.2416 14.3873 13.2685C14.2572 13.3693 14.1202 13.4331 13.9763 13.4566C13.4249 13.5506 13.0722 13.564 12.9318 13.4935H12.9283ZM14.1305 14.3969C14.1407 14.3532 14.1579 14.3062 14.1818 14.2625C14.2229 14.192 14.2675 14.1014 14.2675 13.9905C14.2675 13.9368 14.2572 13.8797 14.2298 13.8193C14.3222 13.7521 14.4113 13.6883 14.5003 13.6178C14.538 13.5909 14.5791 13.5808 14.6202 13.5943C14.6819 13.6077 14.7264 13.648 14.7469 13.7118C14.7469 13.7118 14.7812 13.7756 14.7846 13.8898C14.7846 14.004 14.7538 14.0913 14.6921 14.145C14.6853 14.1484 14.6819 14.1517 14.675 14.1551C14.675 14.1551 14.6647 14.1652 14.6579 14.1685C14.6202 14.1954 14.5825 14.2256 14.5449 14.2525C14.449 14.3297 14.3531 14.4002 14.2366 14.4237L14.1647 14.4338C14.1373 14.4405 14.1305 14.4305 14.1305 14.4305C14.1305 14.4305 14.1236 14.4237 14.1305 14.3969ZM13.3256 8.15058C13.3256 8.15058 13.3427 8.13715 13.3462 8.13043L13.6989 7.70058L13.7606 7.64013L14.2264 7.2002C14.3222 7.09609 14.425 6.99871 14.5277 6.90468C14.6408 6.80393 14.7538 6.69647 14.8565 6.58229C14.9867 6.43788 15.1202 6.29684 15.2538 6.15915C15.3086 6.10206 15.3634 6.04161 15.4182 5.98452C15.5483 5.84684 15.6511 5.69907 15.7299 5.54795C15.8121 5.38676 16.0758 5.23564 16.2641 5.24571C16.2915 5.24907 16.3087 5.25915 16.3292 5.29273C16.4422 5.464 16.497 5.62855 16.497 5.79982C16.497 5.91736 16.4731 6.02818 16.4251 6.13228C16.2162 6.61251 16.0621 7.1196 15.9148 7.6099C15.884 7.70729 15.8532 7.80468 15.8258 7.90207C15.5963 8.64424 15.3086 9.51738 14.925 10.3401C14.7743 10.6692 14.6271 10.9614 14.3805 11.1965C14.2914 11.2838 14.1887 11.3812 14.0722 11.4517C13.9113 11.5457 13.7503 11.6599 13.5962 11.7943C13.5208 11.8581 13.4318 11.8715 13.3325 11.8849C13.3427 11.848 13.3564 11.8144 13.3736 11.7808C13.5003 11.4786 13.4455 11.2704 13.1852 11.0655C13.0208 10.9379 12.8427 10.8069 12.6064 10.7801C12.5379 10.77 12.4865 10.7196 12.442 10.6155C12.3324 10.3636 12.305 10.1051 12.3598 9.8532C12.4763 9.32596 12.7263 8.84573 13.0962 8.42595C13.151 8.36886 13.1989 8.30506 13.2366 8.24125C13.2605 8.20095 13.2914 8.16737 13.3256 8.15058ZM11.4009 8.28827C11.4009 8.20767 11.4077 8.12707 11.4077 8.04647C11.4146 8.00282 11.4454 7.79125 11.4796 7.59983L11.4968 7.49572C11.5618 7.14311 11.6269 6.81065 11.8564 6.53191C12.0002 6.35729 12.1749 6.2196 12.3769 6.12557C12.442 6.09199 12.5448 6.06848 12.668 6.20952C12.7537 6.31027 12.8256 6.42781 12.877 6.5655C12.966 6.80057 13.0516 7.03565 13.1373 7.27408L13.2092 7.47893C13.2537 7.59311 13.2366 7.67371 13.1578 7.75767C12.9215 8.01625 12.627 8.33864 12.4112 8.69797C12.1338 9.16476 11.9797 9.57111 11.9283 9.97409C11.8906 10.2629 11.9317 10.5316 12.055 10.7633C12.0584 10.7734 12.0653 10.7834 12.0653 10.7901H12.0447C11.9968 10.7868 11.9523 10.7935 11.9009 10.7969C11.8803 10.8002 11.8598 10.8002 11.8255 10.8069C11.8016 10.8103 11.7947 10.8103 11.7947 10.8103C11.7947 10.8103 11.7879 10.7969 11.7879 10.7599C11.7879 10.4845 11.7399 10.2159 11.6406 9.93715C11.4968 9.53753 11.442 9.11439 11.4043 8.7517C11.3906 8.60058 11.3974 8.43939 11.4043 8.28827H11.4009ZM5.34231 10.6995C5.23614 10.6088 5.13682 10.5013 5.0512 10.3804C5.00325 10.32 4.98613 10.2696 4.99983 10.2293C5.0101 10.189 5.05463 10.1521 5.12998 10.1185C5.44164 9.99424 5.77727 9.92372 6.13345 9.91701C6.15743 9.91701 6.17798 9.91365 6.19852 9.91365C6.57183 9.91365 6.96569 9.99424 7.42119 10.1554C7.49654 10.1823 7.56846 10.2092 7.64038 10.2327C7.8356 10.2998 8.03766 10.367 8.22603 10.4644C8.47947 10.5887 8.70893 10.7599 8.92812 10.9245C8.97607 10.9614 9.0206 10.995 9.06854 11.0286C9.11307 11.0622 9.16101 11.0991 9.20553 11.1327C9.30143 11.2066 9.40075 11.2804 9.50349 11.3476C9.70214 11.4819 9.91448 11.5525 10.1405 11.5592H10.2707C10.3666 11.5659 10.4659 11.5659 10.5652 11.5659C10.6234 11.5659 10.6748 11.539 10.6988 11.4954C10.7227 11.4551 10.7193 11.398 10.6851 11.3443C10.6337 11.2603 10.5549 11.2099 10.4625 11.2066C9.93503 11.1763 9.58569 10.8607 9.2843 10.5248C9.06169 10.2797 8.8973 9.99089 8.73633 9.7088L8.70893 9.66178C8.50344 9.30245 8.27055 8.94648 8.04794 8.60394C7.97944 8.49983 7.91095 8.39573 7.84245 8.28827C7.74998 8.14386 7.67805 7.99946 7.63011 7.85841C7.52736 7.54274 7.38694 7.23714 7.24995 6.94498C7.19858 6.83751 7.14721 6.72669 7.09926 6.61923C7.01364 6.42781 6.94172 6.22967 6.87322 6.0349L6.81157 5.85355C6.73622 5.6487 6.68828 5.44385 6.6369 5.21213C6.57868 4.96026 6.55471 4.69161 6.56156 4.38937C6.56156 4.32892 6.57183 4.27854 6.59238 4.23153C6.61293 4.18116 6.63005 4.17108 6.64033 4.16772C6.64718 4.16772 6.6643 4.16772 6.70882 4.19459C6.83212 4.27183 6.95199 4.36922 7.06501 4.45989C7.10611 4.49347 7.14721 4.52705 7.18488 4.56063C7.91095 5.14161 8.4418 5.61512 8.90072 6.10542C9.29116 6.51512 9.67816 6.9752 10.1302 7.54946C10.6268 8.18752 10.9077 8.90618 11.12 9.52745C11.1474 9.60805 11.1748 9.68865 11.2056 9.76588C11.281 9.96738 11.3598 10.1756 11.3906 10.3905C11.4043 10.498 11.418 10.6122 11.4111 10.7297C11.4009 10.9144 11.3152 11.0487 11.1611 11.126C10.8084 11.3073 10.7878 11.6263 10.8049 11.848V11.8681C10.8084 11.9017 10.8118 11.9353 10.8084 11.942C10.8015 11.9487 10.757 11.9588 10.7227 11.9622C10.3392 12.0293 10.0378 12.1334 9.77748 12.2946C9.71584 12.3282 9.67474 12.3685 9.64049 12.4155C9.56857 12.523 9.45897 12.5801 9.30828 12.5868C9.03087 12.6002 8.78086 12.5767 8.54797 12.5096C8.44865 12.4793 8.35275 12.4525 8.25343 12.4256C8.04794 12.3685 7.8356 12.3081 7.63011 12.2409C7.27392 12.12 6.92116 11.9219 6.54443 11.6364L6.33209 11.4786C6.00331 11.2301 5.66082 10.9715 5.34231 10.6995ZM6.69513 13.779C6.39716 13.7722 6.17455 13.5976 5.98961 13.4364C5.98961 13.4364 5.98276 13.4297 5.97933 13.4297C5.88001 13.329 5.60603 13.2114 5.38684 13.1241C5.38341 13.1241 5.37656 13.1208 5.37314 13.1208C5.28409 13.1006 5.19847 13.0737 5.11285 13.0334C4.98956 12.973 4.85256 12.9159 4.69502 12.8588C4.64707 12.842 4.61625 12.8219 4.6094 12.8017C4.59912 12.7816 4.6094 12.7446 4.63337 12.6976C4.72584 12.5163 4.87996 12.3752 5.1334 12.2409C5.28409 12.1637 5.45534 12.12 5.60603 12.12H5.64712C5.82522 12.12 5.94509 12.1435 6.04783 12.204C6.2499 12.3181 6.47251 12.3652 6.68827 12.4054L6.75335 12.4189C6.91431 12.4525 7.06843 12.5196 7.2157 12.5834C7.26023 12.6036 7.30817 12.6237 7.35269 12.6405C7.91094 12.8756 8.51371 13.0066 9.14389 13.0334H9.17471C9.17471 13.0334 9.19869 13.0334 9.20553 13.0368C9.23293 13.0435 9.26033 13.0402 9.28773 13.0368C9.33568 13.0334 9.33911 13.0368 9.34595 13.0569C9.3802 13.1443 9.34595 13.2618 9.2843 13.3122C9.21581 13.3659 9.13019 13.376 9.03772 13.3861H9.01032C8.82195 13.4129 8.66441 13.4532 8.52399 13.5069C8.3322 13.5842 8.14041 13.6581 7.94862 13.7319C7.79793 13.789 7.65066 13.8495 7.49997 13.9066C7.46572 13.92 7.44859 13.9234 7.43146 13.9167C7.19173 13.8092 6.93486 13.7857 6.69513 13.779ZM8.02739 16.2943C7.51024 16.7208 7.07186 17.2245 6.70882 17.6577C6.47936 17.9398 6.2225 18.1984 5.97933 18.4335C5.79097 18.6148 5.6437 18.7962 5.5341 18.9842C5.46903 19.0917 5.38683 19.1387 5.27039 19.1253C4.95188 19.095 4.87996 19.0615 4.81146 18.7659C4.77036 18.5779 4.76009 18.3865 4.75666 18.1581C4.74296 17.8559 4.85256 17.52 4.95188 17.2614C5.21217 16.5629 5.66767 15.9182 6.33552 15.2835C6.89719 14.7528 7.45887 14.37 8.05479 14.1047C8.45207 13.9301 8.79455 13.8394 9.13019 13.8193C9.16444 13.8193 9.20553 13.8193 9.24321 13.7991C9.27746 13.7823 9.30828 13.7756 9.34253 13.7756C9.4076 13.7756 9.47267 13.8092 9.55829 13.8864C9.60282 13.9267 9.65419 13.9704 9.65419 13.9872C9.65419 14.004 9.59939 14.0577 9.55829 14.0946C9.4076 14.239 9.28088 14.4002 9.18499 14.5715C8.98635 14.9275 9.02059 15.1894 9.30143 15.4749C9.31855 15.4917 9.32198 15.4984 9.32541 15.5017C9.32198 15.5017 9.31855 15.5085 9.30143 15.5219C9.25691 15.5521 9.20553 15.579 9.14046 15.6025C8.70208 15.7603 8.33562 16.0424 8.02739 16.2943ZM9.85968 19.7297C9.80488 19.7935 9.75351 19.8641 9.70556 19.9312C9.68158 19.9648 9.65762 19.9984 9.63022 20.032C9.38705 20.351 9.13361 20.6398 8.87332 20.8984C8.83908 20.932 8.79798 20.9656 8.74661 21.0025C8.65071 21.0663 8.61989 21.063 8.55139 20.9723C8.46234 20.8581 8.40755 20.7204 8.38357 20.5525C8.35275 20.3577 8.3459 20.1562 8.33562 19.9615C8.32877 19.8204 8.32193 19.6794 8.30823 19.5383C8.28425 19.2059 8.29453 18.8633 8.33905 18.5174C8.35275 18.3999 8.36645 18.2823 8.38015 18.1614C8.41782 17.8021 8.45892 17.4294 8.56166 17.0734C8.66441 16.7241 8.79113 16.4622 8.96922 16.2506C9.05142 16.1465 9.14046 16.0827 9.24321 16.0491C9.43842 15.9887 9.58569 15.8678 9.72268 15.7502C9.78091 15.6965 9.83228 15.673 9.88708 15.673C9.9042 15.673 9.92132 15.6764 9.94187 15.6831C9.99667 15.6965 10.0035 15.72 9.99667 15.757C9.99325 15.7771 9.98982 15.7973 9.9864 15.8174C9.98297 15.851 9.97612 15.8846 9.96585 15.9182C9.88365 16.2002 9.85283 16.4857 9.83228 16.8282C9.81173 17.2044 9.80146 17.5133 9.80146 17.8021C9.80488 18.2454 9.86653 18.6652 9.98298 19.0514C10.0686 19.3268 10.0309 19.535 9.85968 19.7297ZM10.1131 15.2331C9.91105 15.1491 9.71241 15.0618 9.51377 14.9779C9.42815 14.9443 9.40418 14.9073 9.40418 14.8973C9.4213 14.5984 9.72268 14.2155 10.0378 14.2088L10.2467 14.2021C10.3734 14.1954 10.4967 14.192 10.62 14.1887C10.6953 14.1853 10.7775 14.192 10.846 14.2256C10.8974 14.2491 10.9419 14.2558 10.983 14.239C11.031 14.2223 11.0652 14.1853 11.0926 14.1215L11.1029 14.0946C11.1132 14.0678 11.1234 14.0375 11.1371 14.0107C11.1406 14.0006 11.144 14.0006 11.1474 14.004C11.1474 14.0745 11.1611 14.1282 11.1988 14.1652C11.233 14.2055 11.2878 14.2222 11.3598 14.2189C11.3084 14.4372 11.3803 14.6353 11.4454 14.8133C11.4591 14.8502 11.4694 14.8939 11.4762 14.9342L11.4831 14.9711L11.4865 14.9846C11.4831 14.9879 11.4796 14.9913 11.4762 14.9946C11.3974 15.1055 11.1508 15.1928 10.9659 15.2331C10.9625 15.2331 10.9556 15.2364 10.9488 15.2364C10.8837 15.2633 10.8049 15.2767 10.6919 15.2767C10.3255 15.3305 10.2364 15.2835 10.233 15.2835C10.2261 15.2734 10.2159 15.2667 10.2022 15.2633C10.185 15.2599 10.1576 15.2499 10.1131 15.2331ZM11.5995 18.0406C11.3837 18.5812 11.0755 19.0615 10.6782 19.4678C10.6748 19.4678 10.6679 19.4779 10.6679 19.4779C10.6542 19.4879 10.644 19.5014 10.6303 19.5115C10.6166 19.5282 10.5857 19.5551 10.5789 19.5585C10.5618 19.5484 10.5515 19.535 10.5446 19.5182C10.5446 19.5081 10.5446 19.5115 10.5378 19.5047C10.4727 19.3704 10.3905 19.0212 10.3631 18.9137C10.2535 18.4637 10.2022 18.007 10.2159 17.557C10.2193 17.4461 10.2193 17.3353 10.2193 17.2245C10.2193 17.0432 10.2193 16.8585 10.233 16.6771C10.257 16.3715 10.3392 16.0726 10.4111 15.8476C10.4453 15.7435 10.4864 15.72 10.6371 15.72H10.6851C10.757 15.7267 10.8358 15.7301 10.846 15.7402C10.8529 15.7502 10.8495 15.8006 10.8495 15.8443C10.846 15.8678 10.846 15.8946 10.846 15.9215C10.8323 16.4085 11.0207 16.835 11.2193 17.2346C11.2228 17.2447 11.2296 17.2581 11.2365 17.2682C11.2536 17.2917 11.2673 17.3152 11.2741 17.342C11.3084 17.4562 11.3906 17.5267 11.4557 17.5738C11.6372 17.7047 11.6783 17.8391 11.5995 18.0406ZM12.1714 16.7678L12.1406 16.8349C12.0687 16.9961 11.9934 17.1607 11.8803 17.3017C11.8495 17.342 11.8118 17.3622 11.7776 17.3622H11.7707C11.7365 17.3588 11.7057 17.3353 11.6851 17.295C11.4968 16.929 11.3015 16.5495 11.2193 16.1297C11.1611 15.8174 11.2262 15.6025 11.4351 15.4379C11.4728 15.4077 11.507 15.3775 11.5413 15.3473C11.5721 15.317 11.5995 15.2902 11.6337 15.2633C11.6611 15.2432 11.6851 15.2331 11.7125 15.2331C11.7365 15.2331 11.7639 15.2432 11.7879 15.2667C11.8803 15.3506 11.9831 15.401 12.1167 15.4245C12.2468 15.448 12.3221 15.5353 12.3427 15.6864C12.3495 15.7469 12.3564 15.814 12.3598 15.8779C12.3632 15.9114 12.3667 15.9484 12.3667 15.9786C12.3804 16.2741 12.2776 16.5428 12.1714 16.7678ZM15.9251 19.8204L15.9388 19.8809C15.9833 20.0689 16.0244 20.2435 16.0449 20.4148C16.0449 20.4954 16.021 20.5559 15.9764 20.5894C15.9354 20.6163 15.8806 20.6197 15.8155 20.5995C15.6203 20.5357 15.4148 20.4652 15.1613 20.3745C15.038 20.3309 14.925 20.2603 14.788 20.1462C14.6647 20.0387 14.5346 19.938 14.4079 19.8372C14.1544 19.6391 13.8941 19.4309 13.675 19.1857C13.2742 18.729 12.9215 18.3092 12.6475 17.8189C12.579 17.6913 12.5379 17.5536 12.4934 17.4092C12.4694 17.3185 12.442 17.2245 12.4043 17.1372C12.3941 17.1003 12.4146 17.0566 12.4283 17.0364C12.6646 16.6536 12.7537 16.2137 12.716 15.6159C12.7057 15.4547 12.7263 15.4279 12.8941 15.3909C12.9557 15.3741 13.0208 15.364 13.0859 15.3506C13.1338 15.3439 13.1852 15.3338 13.2331 15.3237C13.3496 15.3002 13.4489 15.2432 13.5482 15.1861L13.5893 15.1659C13.5893 15.1659 13.603 15.1558 13.6065 15.1558C13.6065 15.1558 13.6065 15.1581 13.6065 15.1626C13.6818 15.4715 13.8667 15.72 14.0483 15.9585L14.0757 15.9988C14.175 16.1264 14.2675 16.2473 14.3428 16.3816C14.3702 16.4286 14.401 16.4756 14.4524 16.5058C14.7504 16.6805 14.8942 16.9659 15.0449 17.2648C15.3976 17.9667 15.6682 18.7559 15.9217 19.8204H15.9251ZM17.0313 15.3237C17.0313 15.3237 17.0313 15.3271 17.0381 15.3305C17.2162 15.532 17.3806 15.7502 17.5347 15.9652L17.6341 16.0961C17.8738 16.4252 18.0896 16.6805 18.3053 16.8988C18.3499 16.9424 18.3636 16.9626 18.3636 16.9626C18.3567 16.976 18.2951 17.0029 18.2745 17.0129C18.0724 17.1137 17.8498 17.1372 17.5827 17.1405H17.5621C16.7231 17.1405 15.9936 16.9659 15.3292 16.6133C15.0791 16.479 14.7949 16.3279 14.5654 16.1096C14.4866 16.0323 14.4353 15.9383 14.377 15.8409C14.3428 15.7872 14.312 15.7301 14.2709 15.6764C14.2058 15.5857 14.1476 15.4917 14.0859 15.3976C14.0517 15.3439 14.0174 15.2935 13.9832 15.2398C13.9387 15.176 13.9078 15.0987 13.8907 15.0114C13.8702 14.8939 13.9078 14.8301 14.0174 14.7931C14.0757 14.773 14.1339 14.7629 14.1853 14.7629C14.3873 14.7529 14.5791 14.6823 14.7846 14.5446C14.7949 14.5379 14.8051 14.5312 14.812 14.5245L14.8497 14.4876C14.8668 14.4741 14.9319 14.4405 15.1442 14.4405C15.2024 14.4405 15.2744 14.4439 15.36 14.4506H15.3737C15.7401 14.454 16.0415 14.4875 16.3224 14.6286C16.3977 14.6655 16.4662 14.7159 16.5347 14.7663C16.5689 14.7931 16.6066 14.82 16.6477 14.8502L16.6648 14.8704C16.8772 15.1323 17.0005 15.2868 17.0313 15.3237ZM22.1172 13.0402C22.0007 13.2181 21.8398 13.3558 21.6377 13.4465C20.987 13.7319 20.4048 13.9267 19.8534 14.0409C19.576 14.098 19.2883 14.1316 19.0006 14.1383C18.6102 14.1517 18.2368 14.2357 17.8909 14.3264C17.5895 14.4036 17.2882 14.3734 17.0313 14.3364C16.747 14.2995 16.4662 14.2256 16.1922 14.1584C16.0347 14.1181 15.8806 14.0778 15.723 14.0443C15.6579 14.0308 15.5894 14.0174 15.5244 14.004C15.449 13.9872 15.3703 13.9704 15.2949 13.9536C15.1956 13.9301 15.1476 13.8764 15.1442 13.7857C15.1408 13.6312 15.1134 13.4129 14.901 13.2618C14.8976 13.2584 14.8873 13.2517 14.8873 13.245C14.8839 13.2383 14.8908 13.2249 14.901 13.2148C15.0312 13.0637 15.0552 12.8756 15.062 12.7144C15.062 12.6069 15.1065 12.5331 15.199 12.4693C15.2641 12.4256 15.3257 12.3786 15.3908 12.3316C15.4798 12.261 15.5723 12.1905 15.6648 12.1334C16.0381 11.9084 16.4594 11.8043 16.8258 11.7304C17.0347 11.6868 17.2436 11.6666 17.4491 11.6633C17.6649 11.6868 17.8841 11.6969 18.0964 11.7036C18.5074 11.7204 18.9321 11.7372 19.3328 11.8648C19.5451 11.9286 19.7609 11.942 19.9698 11.9521C20.0657 11.9588 20.165 11.9622 20.2609 11.9722C20.463 11.9957 20.6685 12.0394 20.8637 12.0797C20.9425 12.0965 21.0212 12.1133 21.0966 12.1267C21.124 12.1334 21.1514 12.1435 21.1719 12.1603C21.4082 12.3282 21.6651 12.4155 21.9357 12.5028C22.0692 12.5465 22.1583 12.6137 22.1925 12.7043C22.2268 12.7984 22.1994 12.9125 22.1172 13.0402Z" fill="#282828"/>
<path d="M17.8518 9.78994C17.8484 9.87054 17.7936 9.97129 17.7525 10.0385C17.5641 10.3508 17.3449 10.7135 17.0949 11.0459C16.9819 11.2038 16.8243 11.3079 16.6257 11.3582C16.5572 11.3784 16.4887 11.3952 16.4202 11.412C16.2113 11.4623 15.9921 11.5127 15.79 11.6135C15.4578 11.7847 15.2112 11.9594 15.0229 12.1676L15.0057 12.1877C15.0057 12.1877 14.9886 12.2079 14.9749 12.2179C14.8825 12.312 14.8825 12.3153 14.79 12.2347C14.5365 12.0265 14.3174 11.9056 14.0879 11.8418C14.0879 11.8385 14.0947 11.8385 14.0982 11.8351C14.1701 11.7814 14.242 11.7276 14.3105 11.6739L14.4475 11.5732C14.5776 11.4758 14.6838 11.3582 14.79 11.2441C14.8516 11.1735 14.9201 11.103 14.9886 11.0358C15.0297 10.9989 15.0742 10.9653 15.1188 10.9317C15.2112 10.8612 15.3071 10.7907 15.3619 10.6899C15.5708 10.3172 15.9339 10.1896 16.3175 10.0552L16.3894 10.0317C16.5058 9.98808 16.6223 9.94778 16.7387 9.90748C17.0298 9.81009 17.3278 9.70599 17.6155 9.58509C17.6737 9.55822 17.7285 9.55822 17.7696 9.58509C17.821 9.61867 17.8518 9.69591 17.8518 9.78994Z" fill="#EFEDE4"/>
<path d="M22.1063 13.0302C21.9864 13.2082 21.8255 13.3459 21.6234 13.4365C20.9761 13.722 20.3905 13.9168 19.8391 14.0309C19.5617 14.088 19.274 14.1216 18.9863 14.1283C18.5959 14.1418 18.2225 14.2257 17.8766 14.3164C17.5752 14.3936 17.2739 14.3634 17.017 14.3265C16.7327 14.2895 16.4519 14.2156 16.1779 14.1485C16.0204 14.1082 15.8663 14.0679 15.7087 14.0343C15.6436 14.0209 15.5786 14.0074 15.5101 13.994C15.4347 13.9772 15.356 13.9604 15.2806 13.9436C15.1813 13.9201 15.1333 13.8664 15.1299 13.7757C15.1265 13.6212 15.0991 13.403 14.8867 13.2518C14.8867 13.2485 14.873 13.2418 14.873 13.235C14.873 13.2283 14.8765 13.2149 14.8867 13.2048C15.0203 13.0537 15.0409 12.8656 15.0477 12.7044C15.0511 12.597 15.0957 12.5231 15.1847 12.4593C15.2498 12.4156 15.3149 12.3686 15.3765 12.3216C15.4655 12.2511 15.558 12.1806 15.6539 12.1235C16.0238 11.8985 16.4485 11.7944 16.8115 11.7205C17.0204 11.6768 17.2328 11.6567 17.4348 11.6533C17.6506 11.6768 17.8698 11.6869 18.0821 11.6936C18.4931 11.7104 18.9178 11.7272 19.3185 11.8548C19.5343 11.9186 19.7466 11.9321 19.9555 11.9421C20.0514 11.9488 20.1507 11.9522 20.2466 11.9623C20.4487 11.9858 20.6542 12.0294 20.8494 12.0697C20.9282 12.0865 21.0069 12.1033 21.0823 12.1168C21.1097 12.1235 21.1371 12.1335 21.1576 12.1503C21.3939 12.3182 21.6542 12.4056 21.9214 12.4929C22.0549 12.5365 22.144 12.6037 22.1782 12.6944C22.2125 12.7884 22.1885 12.9026 22.1063 13.0302Z" fill="white"/>
<path d="M18.3513 16.9527C18.3513 16.9527 18.2794 16.993 18.2588 17.0031C18.0567 17.1038 17.8341 17.1273 17.567 17.1307H17.5464C16.7074 17.1307 15.9779 16.956 15.3134 16.6034C15.0634 16.4691 14.7792 16.318 14.5497 16.0997C14.4709 16.0225 14.4196 15.9284 14.3613 15.831C14.3305 15.7773 14.2963 15.7202 14.2586 15.6665C14.1935 15.5758 14.1319 15.4818 14.0702 15.3878C14.036 15.334 14.0017 15.2837 13.9675 15.2299C13.923 15.1661 13.8921 15.0889 13.8784 15.0016C13.8579 14.884 13.8956 14.8202 14.0017 14.7833C14.0599 14.7631 14.1182 14.7531 14.1695 14.7531C14.3716 14.743 14.5634 14.6725 14.7689 14.5348C14.7826 14.5281 14.7894 14.5213 14.7963 14.5146L14.8066 14.5045L14.834 14.4777C14.834 14.4777 14.9162 14.4307 15.1285 14.4307C15.1867 14.4307 15.2586 14.434 15.3443 14.4407H15.358C15.7244 14.4441 16.0258 14.4777 16.3101 14.6187C16.3854 14.6557 16.4505 14.706 16.519 14.7564C16.5567 14.7833 16.5909 14.8101 16.632 14.8404L16.6491 14.8605C16.8615 15.1225 16.9848 15.2769 17.0156 15.3139C17.019 15.3139 17.019 15.3172 17.0224 15.3206C17.2005 15.5221 17.3649 15.7404 17.519 15.9553L17.6184 16.0863C17.8581 16.4154 18.0739 16.6706 18.2896 16.8889C18.3342 16.9325 18.3478 16.9527 18.3513 16.9527Z" fill="white"/>
<path d="M16.0284 20.4057C16.0284 20.4863 16.0044 20.5468 15.9599 20.5803C15.9188 20.6072 15.864 20.6106 15.799 20.5904C15.6037 20.5266 15.3982 20.4561 15.1448 20.3654C15.0215 20.3218 14.9085 20.2512 14.7715 20.1371C14.6482 20.0296 14.5181 19.9288 14.3948 19.8281C14.1379 19.63 13.8776 19.4217 13.6584 19.1766C13.2577 18.7199 12.905 18.3001 12.631 17.8098C12.5625 17.6822 12.5214 17.5445 12.4803 17.4001C12.4529 17.3094 12.4255 17.2154 12.3912 17.1281C12.3775 17.0911 12.3981 17.0475 12.4118 17.0273C12.6515 16.6445 12.7406 16.2046 12.6995 15.6068C12.6892 15.4456 12.7097 15.4187 12.8776 15.3818C12.9392 15.365 13.0043 15.3549 13.0694 15.3415C13.1173 15.3348 13.1687 15.3247 13.2166 15.3146C13.3331 15.2911 13.4358 15.234 13.5317 15.177L13.5728 15.1568C13.5728 15.1568 13.5865 15.1467 13.5899 15.1467C13.5899 15.1501 13.5934 15.1501 13.5934 15.1534C13.6687 15.4624 13.8536 15.7109 14.0352 15.9493L14.0626 15.9896C14.1619 16.1173 14.2543 16.2382 14.3297 16.3725C14.3571 16.4195 14.3879 16.4665 14.4393 16.4967C14.7373 16.6714 14.8811 16.9568 15.0318 17.2557C15.388 17.9576 15.6551 18.7467 15.9085 19.8113L15.9222 19.8718C15.9668 20.0598 16.0079 20.2344 16.0284 20.4057Z" fill="white"/>
<path d="M12.3551 15.9694C12.3654 16.2649 12.2627 16.5336 12.1565 16.7586L12.1257 16.8258C12.0537 16.9869 11.9784 17.1515 11.8654 17.2925C11.838 17.3328 11.8003 17.353 11.7626 17.353H11.7558C11.7215 17.3496 11.6907 17.3261 11.6702 17.2858C11.4818 16.9198 11.2866 16.5403 11.2078 16.1205C11.1462 15.8082 11.2112 15.5933 11.4201 15.4287C11.4578 15.3985 11.4921 15.3683 11.5263 15.3381C11.5571 15.3078 11.588 15.281 11.6188 15.2541C11.6462 15.234 11.6736 15.2239 11.6976 15.2239C11.725 15.2239 11.7489 15.234 11.7729 15.2575C11.8654 15.3414 11.9715 15.3918 12.1017 15.4153C12.2353 15.4388 12.3072 15.5261 12.3277 15.6772C12.338 15.7377 12.3414 15.8049 12.3448 15.8687C12.3483 15.9022 12.3517 15.9392 12.3551 15.9694Z" fill="#EFEDE4"/>
<path d="M11.5831 18.031C11.3707 18.5717 11.0591 19.0519 10.6618 19.4582C10.6584 19.4582 10.6515 19.4683 10.6515 19.4683C10.6378 19.4784 10.6275 19.4918 10.6173 19.5019C10.6001 19.5187 10.5727 19.5455 10.5659 19.5489C10.5453 19.5388 10.5351 19.5254 10.5316 19.5086C10.5282 19.4985 10.5316 19.5019 10.5248 19.4952C10.4563 19.3608 10.3741 19.0116 10.3501 18.9041C10.2371 18.4541 10.1857 17.9974 10.1994 17.5474C10.2029 17.4366 10.2029 17.3258 10.2029 17.2149C10.2029 17.0336 10.2029 16.8489 10.2166 16.6675C10.2405 16.3619 10.3262 16.0631 10.3947 15.8381C10.4289 15.734 10.47 15.7104 10.6207 15.7104H10.6686C10.744 15.7172 10.8193 15.7205 10.8296 15.7306C10.8365 15.7407 10.833 15.791 10.833 15.8347C10.8296 15.8582 10.8296 15.8851 10.8296 15.9119C10.8159 16.3989 11.0043 16.8254 11.2029 17.225C11.2098 17.2351 11.2166 17.2485 11.2235 17.2586C11.2372 17.2821 11.2509 17.3056 11.2577 17.3325C11.292 17.4467 11.3742 17.5172 11.4427 17.5642C11.6242 17.6952 11.6653 17.8295 11.5831 18.031Z" fill="white"/>
<path d="M9.84377 19.7208C9.78897 19.7846 9.7376 19.8551 9.68965 19.9223C9.66568 19.9559 9.6417 19.9895 9.61773 20.023C9.37457 20.3421 9.1177 20.6309 8.85741 20.8895C8.82317 20.923 8.78207 20.9566 8.7307 20.9936C8.63823 21.0574 8.60398 21.054 8.53548 20.9633C8.44643 20.8492 8.39164 20.7115 8.36766 20.5436C8.34027 20.3488 8.32999 20.1473 8.31972 19.9525C8.31287 19.8115 8.30602 19.6704 8.29232 19.5294C8.27177 19.1969 8.27862 18.8544 8.32314 18.5085C8.33684 18.3909 8.35054 18.2734 8.36424 18.1525C8.40191 17.7932 8.44301 17.4204 8.54575 17.0644C8.6485 16.7152 8.77522 16.4532 8.95331 16.2417C9.03551 16.1376 9.12455 16.0738 9.2273 16.0402C9.42251 15.9797 9.56978 15.8588 9.70677 15.7413C9.765 15.6876 9.81637 15.6641 9.87117 15.6641C9.88829 15.6641 9.90884 15.6674 9.92597 15.6741C9.98419 15.6876 9.98762 15.7111 9.98419 15.748C9.97734 15.7682 9.97391 15.7883 9.97049 15.8085C9.96706 15.842 9.96021 15.8756 9.94994 15.9092C9.86774 16.1913 9.83692 16.4768 9.81637 16.8193C9.79582 17.1954 9.78555 17.5044 9.78555 17.7932C9.78555 18.2365 9.85062 18.6562 9.96707 19.0424C10.0527 19.3178 10.015 19.526 9.84377 19.7208Z" fill="white"/>
<path d="M9.17168 14.5623C8.97304 14.9182 9.00729 15.1802 9.29155 15.4656C9.30525 15.4824 9.30867 15.4891 9.3121 15.4925C9.30867 15.4925 9.30524 15.4992 9.28812 15.5126C9.2436 15.5429 9.19222 15.5697 9.12715 15.5932C8.68877 15.7511 8.32231 16.0332 8.01408 16.285C7.49693 16.7115 7.05855 17.2153 6.69894 17.6485C6.46605 17.9306 6.20919 18.1891 5.96602 18.4242C5.77766 18.6056 5.63381 18.7869 5.52079 18.975C5.45572 19.0824 5.37352 19.1294 5.25708 19.116C4.93857 19.0858 4.87007 19.0522 4.79815 18.7567C4.75705 18.5686 4.74678 18.3772 4.74335 18.1488C4.72965 17.8466 4.83925 17.5108 4.93857 17.2522C5.20228 16.5537 5.65436 15.9089 6.32221 15.2742C6.88388 14.7436 7.44556 14.3608 8.04148 14.0955C8.43876 13.9208 8.78124 13.8302 9.11688 13.81C9.15455 13.81 9.19223 13.81 9.2299 13.7899C9.26415 13.7731 9.29497 13.7664 9.32922 13.7664C9.39429 13.7664 9.45936 13.7999 9.54498 13.8772C9.58951 13.9175 9.64088 13.9611 9.64431 13.9779C9.64431 13.9914 9.58609 14.0484 9.54841 14.0854C9.39429 14.2298 9.26757 14.391 9.17168 14.5623Z" fill="white"/>
<path d="M9.26872 13.303C9.20022 13.3567 9.1146 13.3668 9.02213 13.3769H8.99474C8.80637 13.4038 8.64882 13.4441 8.5084 13.4978C8.31661 13.575 8.12482 13.6489 7.93303 13.7228C7.78576 13.7799 7.63507 13.8403 7.48438 13.8974C7.45355 13.9108 7.43301 13.9142 7.41588 13.9075C7.17957 13.8 6.9227 13.7765 6.67954 13.7698C6.38158 13.7631 6.15896 13.5885 5.97744 13.4273C5.97402 13.4273 5.96717 13.4205 5.96375 13.4205C5.86443 13.3198 5.59044 13.2023 5.37125 13.1149C5.36783 13.1149 5.36097 13.1116 5.35755 13.1116C5.27193 13.0914 5.18288 13.0646 5.10069 13.0243C4.97397 12.9638 4.83697 12.9067 4.67943 12.8496C4.63148 12.8329 4.60066 12.8127 4.59381 12.7926C4.58354 12.7724 4.59381 12.7355 4.61779 12.6885C4.71026 12.5071 4.86437 12.3661 5.11781 12.2317C5.2685 12.1545 5.43975 12.1108 5.59044 12.1108H5.63154C5.81305 12.1108 5.9295 12.1343 6.03224 12.1948C6.23431 12.309 6.45693 12.356 6.67269 12.3963L6.73776 12.4097C6.89873 12.4433 7.05285 12.5105 7.20012 12.5743C7.24464 12.5944 7.29258 12.6146 7.33711 12.6314C7.89536 12.8664 8.49813 12.9974 9.1283 13.0243H9.15913C9.15913 13.0243 9.1831 13.0243 9.18995 13.0276C9.21735 13.0344 9.24817 13.031 9.27215 13.0276C9.32009 13.0243 9.32352 13.0276 9.33379 13.0478C9.36461 13.1351 9.33379 13.2526 9.26872 13.303Z" fill="#EFEDE4"/>
<path d="M16.481 5.79018C16.481 5.90772 16.457 6.01854 16.4125 6.12264C16.2002 6.60287 16.0461 7.10996 15.8988 7.60026C15.868 7.69765 15.8406 7.79504 15.8097 7.89243C15.5803 8.6346 15.2926 9.50774 14.9124 10.3305C14.7583 10.6596 14.611 10.9518 14.3645 11.1868C14.2754 11.2742 14.1727 11.3716 14.0562 11.4421C13.8953 11.5361 13.7343 11.6503 13.5802 11.7846C13.5048 11.8484 13.4158 11.8619 13.3165 11.8753C13.3267 11.8383 13.3439 11.8048 13.3576 11.7712C13.4843 11.4689 13.4329 11.2607 13.1692 11.0559C13.0082 10.9283 12.8267 10.7973 12.5904 10.7704C12.5219 10.7604 12.4705 10.71 12.426 10.6059C12.3164 10.354 12.289 10.0954 12.3438 9.84356C12.4603 9.31632 12.7103 8.83609 13.0836 8.41631C13.1384 8.35922 13.1829 8.29542 13.2206 8.23161C13.248 8.19131 13.2788 8.15773 13.313 8.14094C13.3199 8.13422 13.3267 8.12751 13.3302 8.12079L13.6863 7.69094C13.7035 7.67079 13.724 7.65064 13.7446 7.63049L14.2103 7.19056C14.3062 7.08646 14.409 6.98907 14.5117 6.89504C14.6248 6.79429 14.7378 6.68683 14.8405 6.57265C14.9707 6.42824 15.1042 6.2872 15.2378 6.14951C15.2926 6.09242 15.3474 6.03197 15.4022 5.97488C15.5323 5.8372 15.6351 5.68943 15.7138 5.53831C15.796 5.37712 16.0598 5.226 16.2515 5.23607C16.2789 5.23943 16.2926 5.24951 16.3132 5.28309C16.4262 5.45436 16.481 5.61891 16.481 5.79018Z" fill="white"/>
<path d="M13.1443 7.74801C12.908 8.0066 12.6134 8.32899 12.3977 8.68832C12.1202 9.15511 11.9661 9.56145 11.9148 9.96444C11.8771 10.2532 11.9182 10.5219 12.0415 10.7536C12.0483 10.7637 12.0518 10.7738 12.0518 10.7805H12.0312C11.9833 10.7771 11.9387 10.7838 11.8908 10.7872C11.8668 10.7906 11.8463 10.7906 11.812 10.7973C11.7915 10.8006 11.7812 10.8006 11.7812 10.8006C11.7812 10.8006 11.7743 10.7872 11.7743 10.7503C11.7743 10.4749 11.7264 10.2062 11.6271 9.9275C11.4832 9.52787 11.4284 9.10474 11.3942 8.74205C11.3805 8.59093 11.3839 8.42973 11.3908 8.27861C11.3908 8.19801 11.3942 8.11742 11.3942 8.03682C11.401 7.99316 11.4319 7.78159 11.4661 7.59018L11.4832 7.48607C11.5517 7.13346 11.6134 6.80099 11.8428 6.52226C11.9867 6.34763 12.1613 6.20995 12.3634 6.11592C12.4285 6.08233 12.5312 6.05883 12.6545 6.19987C12.7401 6.30062 12.8121 6.41816 12.8634 6.55584C12.9525 6.79092 13.0381 7.02599 13.1237 7.26443L13.1957 7.46928C13.2402 7.58346 13.2265 7.66406 13.1443 7.74801Z" fill="white"/>
<path d="M11.3944 10.7202C11.3841 10.9049 11.2985 11.0392 11.1444 11.1164C10.7916 11.2978 10.7711 11.6168 10.7882 11.8385V11.8586C10.7916 11.8922 10.795 11.9258 10.795 11.9325C10.7848 11.9392 10.7402 11.9493 10.706 11.9526C10.3224 12.0198 10.0244 12.1239 9.76074 12.2851C9.70251 12.3187 9.65799 12.359 9.62374 12.406C9.55182 12.5135 9.44223 12.5706 9.29153 12.5773C9.01412 12.5907 8.76411 12.5672 8.53122 12.5C8.4319 12.4698 8.336 12.4429 8.23668 12.4161C8.03119 12.359 7.81885 12.2985 7.61336 12.2314C7.26061 12.1105 6.90442 11.9123 6.52768 11.6269L6.31535 11.4691C5.98656 11.2206 5.64408 10.962 5.32557 10.69C5.2194 10.5993 5.1235 10.4918 5.03445 10.3709C4.98651 10.3105 4.96938 10.2601 4.98308 10.2198C4.99336 10.1795 5.03788 10.1426 5.11323 10.109C5.42489 9.98472 5.76052 9.9142 6.1167 9.90749C6.14068 9.90749 6.16123 9.90413 6.1852 9.90413C6.55851 9.90413 6.94894 9.98472 7.40787 10.1459C7.47979 10.1728 7.55172 10.1997 7.62364 10.2232C7.81885 10.2903 8.02092 10.3575 8.20928 10.4549C8.46272 10.5791 8.69219 10.7504 8.91138 10.915C8.95932 10.9519 9.00385 10.9855 9.0518 11.0191C9.09632 11.0526 9.14426 11.0896 9.19221 11.1232C9.28468 11.197 9.384 11.2709 9.48675 11.3381C9.68539 11.4724 9.90116 11.5429 10.1272 11.5497H10.2539C10.3498 11.5564 10.4491 11.5564 10.5485 11.5564C10.6101 11.5564 10.658 11.5295 10.682 11.4859C10.706 11.4456 10.7026 11.3885 10.6683 11.3347C10.6204 11.2508 10.5382 11.2004 10.4457 11.197C9.91828 11.1668 9.56894 10.8511 9.26756 10.5153C9.04837 10.2702 8.88055 9.98137 8.72301 9.69928L8.69219 9.65226C8.4867 9.29293 8.2538 8.93696 8.03119 8.59442C7.96269 8.49031 7.8942 8.38621 7.8257 8.27875C7.73323 8.13434 7.66131 7.98994 7.61336 7.84889C7.51062 7.53322 7.3702 7.22762 7.23321 6.93546C7.18183 6.82799 7.13046 6.71717 7.08251 6.60971C6.99689 6.41829 6.92497 6.22015 6.85647 6.02538L6.79482 5.84403C6.71948 5.63918 6.67153 5.43433 6.62016 5.20261C6.56536 4.95074 6.53796 4.68209 6.54481 4.37985C6.54823 4.3194 6.55851 4.26902 6.57563 4.22201C6.59961 4.17164 6.61331 4.16156 6.62358 4.1582C6.63043 4.1582 6.64756 4.1582 6.69208 4.18507C6.8188 4.26231 6.93524 4.3597 7.04826 4.45037C7.08936 4.48395 7.13046 4.51753 7.17156 4.55112C7.8942 5.13209 8.42505 5.6056 8.88398 6.0959C9.27441 6.5056 9.66484 6.96568 10.1135 7.53994C10.6101 8.178 10.8909 8.89666 11.1033 9.51793C11.1307 9.59853 11.1581 9.67913 11.1889 9.75637C11.2642 9.95786 11.343 10.1661 11.3738 10.381C11.3875 10.4885 11.4012 10.6026 11.3944 10.7202Z" fill="white"/>
</svg>
