    
    <svg width="19" height="19" viewBox="0 0 19 19" fill="none" xmlns="http://www.w3.org/2000/svg">
    <g clip-path="url(#clip0_9_2164)">
    <path d="M9.62369 3.2635C10.4417 3.2635 11.1048 2.60038 11.1048 1.78238C11.1048 0.964386 10.4417 0.30127 9.62369 0.30127C8.80569 0.30127 8.14258 0.964386 8.14258 1.78238C8.14258 2.60038 8.80569 3.2635 9.62369 3.2635Z" fill="#6D6D6D"/>
    <path d="M9.62369 10.6693C10.4417 10.6693 11.1048 10.0061 11.1048 9.18814C11.1048 8.37015 10.4417 7.70703 9.62369 7.70703C8.80569 7.70703 8.14258 8.37015 8.14258 9.18814C8.14258 10.0061 8.80569 10.6693 9.62369 10.6693Z" fill="#6D6D6D"/>
    <path d="M9.62369 18.0744C10.4417 18.0744 11.1048 17.4113 11.1048 16.5933C11.1048 15.7753 10.4417 15.1122 9.62369 15.1122C8.80569 15.1122 8.14258 15.7753 8.14258 16.5933C8.14258 17.4113 8.80569 18.0744 9.62369 18.0744Z" fill="#6D6D6D"/>
    </g>
    <defs>
    <clipPath id="clip0_9_2164">
    <rect width="17.7734" height="17.7734" fill="white" transform="translate(0.738281 0.30127)"/>
    </clipPath>
    </defs>
    </svg>