<svg width="80" height="61" viewBox="0 0 80 61" fill="none" xmlns="http://www.w3.org/2000/svg">
<path fill-rule="evenodd" clip-rule="evenodd" d="M0.816406 20.0406C0.816406 9.15139 9.64383 0.323975 20.533 0.323975H59.9662C70.8554 0.323975 79.6828 9.15139 79.6828 20.0406C79.6828 30.9298 70.8554 39.7572 59.9662 39.7572H35.9774C35.981 39.8709 35.9828 39.9851 35.9828 40.0998C35.9828 45.4836 31.9641 49.8481 27.0068 49.8481C22.0494 49.8481 18.0307 45.4836 18.0307 40.0998C18.0307 39.9326 18.0346 39.7665 18.0423 39.6014C8.32895 38.3769 0.816406 30.0861 0.816406 20.0406ZM18.0241 60.1094C20.5027 60.1094 22.5121 58.0421 22.5121 55.4918C22.5121 52.9416 20.5027 50.8743 18.0241 50.8743C15.5454 50.8743 13.536 52.9416 13.536 55.4918C13.536 58.0421 15.5454 60.1094 18.0241 60.1094Z" fill="#F2F4F5"/>
<circle cx="28.1689" cy="21.3142" r="4.45214" fill="#222222" fill-opacity="0.1"/>
<circle cx="40.8916" cy="21.3147" r="4.45214" fill="#222222" fill-opacity="0.25"/>
<circle cx="53.6123" cy="21.3147" r="4.45214" fill="#222222" fill-opacity="0.5"/>
</svg>
