<svg width="67" height="66" viewBox="0 0 67 66" fill="none" xmlns="http://www.w3.org/2000/svg">
<path d="M17.693 49.1086H32.1454V38.7703H17.693V49.1086ZM17.693 35.6056H32.1454V17.0389H17.693V35.6056ZM35.3102 49.1086H49.7626V30.5419H35.3102V49.1086ZM35.3102 27.3772H49.7626V17.0389H35.3102V27.3772ZM15.3722 56.3875C13.9867 56.3875 12.814 55.9075 11.854 54.9475C10.8941 53.9875 10.4141 52.8148 10.4141 51.4293V14.7182C10.4141 13.3327 10.8941 12.16 11.854 11.2C12.814 10.24 13.9867 9.76001 15.3722 9.76001H52.0834C53.4689 9.76001 54.6416 10.24 55.6016 11.2C56.5616 12.16 57.0416 13.3327 57.0416 14.7182V20.4148H61.8941V24.5288H57.0416V31.0167H61.8941V35.1308H57.0416V41.6187H61.8941V45.7327H57.0416V51.4293C57.0416 52.8148 56.5616 53.9875 55.6016 54.9475C54.6416 55.9075 53.4689 56.3875 52.0834 56.3875H15.3722ZM15.3722 52.2734H52.0834C52.2944 52.2734 52.4878 52.1855 52.6637 52.0096C52.8395 51.8338 52.9274 51.6403 52.9274 51.4293V14.7182C52.9274 14.5072 52.8395 14.3137 52.6637 14.1379C52.4878 13.9621 52.2944 13.8741 52.0834 13.8741H15.3722C15.1612 13.8741 14.9678 13.9621 14.7919 14.1379C14.6161 14.3137 14.5282 14.5072 14.5282 14.7182V51.4293C14.5282 51.6403 14.6161 51.8338 14.7919 52.0096C14.9678 52.1855 15.1612 52.2734 15.3722 52.2734Z" fill="#DDDDDD"/>
</svg>
