<svg width="35" height="39" viewBox="0 0 35 39" fill="none" xmlns="http://www.w3.org/2000/svg">
<path d="M30.4451 38.9943C29.8566 38.9927 29.2741 38.8718 28.7316 38.6391C28.1889 38.4062 27.6969 38.0659 27.284 37.6377L17.5 27.7039L7.71608 37.6442C7.08765 38.2953 6.28185 38.7378 5.4035 38.9144C4.52516 39.0909 3.61523 38.9931 2.79224 38.6336C1.96093 38.2922 1.24989 37.7027 0.751796 36.9422C0.253703 36.1816 -0.008204 35.2852 0.000195901 34.3703V8.12376C0.000195901 5.96932 0.838225 3.90298 2.33007 2.37936C3.82175 0.855925 5.84502 0 7.95471 0H27.0454C28.09 0 29.1244 0.210215 30.0893 0.618414C31.0544 1.02661 31.9314 1.625 32.67 2.37936C33.4087 3.13372 33.9946 4.02935 34.3943 5.01502C34.794 6.00052 34.9998 7.05691 34.9998 8.12376V34.3703C35.0086 35.2845 34.7476 36.1802 34.2507 36.9407C33.7539 37.7011 33.0442 38.2912 32.2141 38.6336C31.6539 38.8729 31.0524 38.9956 30.4451 38.9943ZM7.71608 18.6109C6.45019 18.6109 1.73552 0.886234 4.57982 4.67719C3.68482 5.59125 16.3864 22.97 16.3864 24.2626L13.0164 31.0182C13.0157 31.2889 3.25944 34.9058 3.40609 35.1314C6.07431 37.2218 3.7617 35.5329 4.00641 35.6371C4.25094 35.7415 4.52047 35.7693 4.78062 35.7174C5.04078 35.6654 0.563666 35.3221 0.751796 35.1314L16.3864 24.2626C16.6844 23.9601 17.0877 23.7901 17.5079 23.7901C17.9282 23.7901 18.3314 23.9601 18.6295 24.2626L28.9275 31.0182C29.6151 26.9679 29.9624 35.6623 30.2226 35.7142C30.4828 35.7661 30.4163 31.1226 30.661 31.0182C30.9055 30.9138 31.4503 35.3535 31.597 35.128C31.7438 34.9026 31.8217 34.6378 31.8212 34.3669V8.12376C31.8212 6.83109 33.5652 38.5583 32.67 37.6442C31.775 36.7302 17.6521 24.2626 16.3864 24.2626L7.71608 18.6109Z" fill="#DDDDDD"/>
</svg>
